<svg xmlns="http://www.w3.org/2000/svg" xmlns:xlink="http://www.w3.org/1999/xlink" width="66" height="67" viewBox="0 0 66 67">
    <defs>
        <path id="a" d="M3.744 7.063c-1.788-14.3 49.84-2.95 52.846 0 3.006 2.95 6.456 11.885 4.682 22.395-1.773 10.51 0 26.268-4.682 31.304-4.682 5.036-43.591 0-52.846 0-9.255 0 1.787-39.399 0-53.699z"/>
    </defs>
    <g fill="none" fill-rule="evenodd">
        <g transform="translate(4 1.971)">
            <mask id="b" fill="#fff">
                <use xlink:href="#a"/>
            </mask>
            <use fill="#CCBFF6" xlink:href="#a"/>
            <g fill="#CCBFF6" mask="url(#b)">
                <path d="M-1.59-1.615h68v69h-68z"/>
            </g>
        </g>
        <path stroke="#000" stroke-linecap="round" stroke-linejoin="round" stroke-width="2" d="M1 23.971h12.878v18.804H1zM50 1.971h14.076V16H50zM50 26.971h14.076V41H50zM50 51.971h14.076V66H50zM7 19.015V7.971h33.843M7 49.971v10.447h33.843"/>
        <path fill="#FFF" fill-rule="nonzero" stroke="#000" stroke-linecap="round" stroke-linejoin="round" stroke-width="2" d="M18 33.971h22.762"/>
        <path stroke="#000" stroke-linecap="round" stroke-linejoin="round" stroke-width="2" d="M38.19 3.971l4.003 3.858L38 11.135M38.19 29.971l4.003 3.858L38 37.135M38.19 56.971l4.003 3.858L38 64.135"/>
    </g>
</svg>
