<svg xmlns="http://www.w3.org/2000/svg" xmlns:xlink="http://www.w3.org/1999/xlink" width="202" height="200" viewBox="0 0 202 200">
    <defs>
        <path id="a" d="M11.413 21.302c-5.45-43.128 151.933-8.895 161.096 0 9.162 8.895 19.679 35.843 14.273 67.54-5.406 31.698 0 79.22-14.273 94.408-14.274 15.187-132.884 0-161.096 0-28.213 0 5.449-118.82 0-161.948z"/>
    </defs>
    <g fill="none" fill-rule="evenodd">
        <g transform="translate(13 3)">
            <mask id="b" fill="#fff">
                <use xlink:href="#a"/>
            </mask>
            <use fill="#CCBFF6" xlink:href="#a"/>
            <g fill="#523D93" mask="url(#b)">
                <path d="M-4.846-4.872h206v209h-206z"/>
            </g>
        </g>
        <g stroke="#FFF" stroke-linecap="round" stroke-linejoin="round" stroke-width="6">
            <path d="M3 70.991h38.729v57.112H3zM149.809 3h42.331v42.607h-42.331zM149.809 78.243h42.331v42.607h-42.331zM149.809 154.393h42.331V197h-42.331z"/>
            <path fill-rule="nonzero" d="M20.113 53.766V20.224h101.775M20.113 149.86v31.729h101.775"/>
            <path fill="#FFF" fill-rule="nonzero" d="M54.338 100.907h68.45"/>
            <path d="M115.256 9.346l12.036 11.715-12.61 10.042M115.256 89.121l12.036 11.716-12.61 10.042M115.256 170.71l12.036 11.716-12.61 10.041"/>
        </g>
    </g>
</svg>
