<svg xmlns="http://www.w3.org/2000/svg" xmlns:xlink="http://www.w3.org/1999/xlink" width="76" height="64" viewBox="0 0 76 64">
    <defs>
        <path id="a" d="M31.826 63.822c5.983-1.215 16.59 1.403 22.22-11.13 2.934-6.535 9.287-13.09 9.287-20.78 0-8.414-2.61-15.604-9.288-19.671C46.805 7.83 40.92 0 31.825 0c-9.114 0-15.33 7.578-21.582 11.156C3.61 14.952 2.136 24.696.318 31.911-1.679 39.84 6.156 46.976 11.652 55.23c4.074 6.117 15.112 9.62 20.174 8.592z"/>
    </defs>
    <g fill="none" fill-rule="evenodd">
        <g transform="translate(6)">
            <mask id="b" fill="#fff">
                <use xlink:href="#a"/>
            </mask>
            <use fill="#A5D5FA" xlink:href="#a"/>
            <g fill="#A5D5FA" mask="url(#b)">
                <path d="M-2.43-1.641h71v70h-71z"/>
            </g>
        </g>
        <g fill="#000" fill-rule="nonzero">
            <path d="M64.465 19.095H31.408c-.58 0-1.068-.489-1.068-1.068V6.067c0-.579.488-1.067 1.068-1.067h33.057c.58 0 1.068.488 1.068 1.068v11.959c0 .61-.458 1.068-1.068 1.068zm-31.988-2.136h30.92V7.136h-30.92v9.823zM64.465 39.199H31.408c-.58 0-1.068-.488-1.068-1.068V26.172c0-.58.488-1.067 1.068-1.067h33.057c.58 0 1.068.488 1.068 1.067v11.96c0 .579-.458 1.067-1.068 1.067zm-31.988-2.136h30.92V27.24h-30.92v9.823zM64.465 59.304H31.408c-.58 0-1.068-.489-1.068-1.068v-11.96c0-.579.488-1.067 1.068-1.067h33.057c.58 0 1.068.488 1.068 1.068v11.959c0 .58-.458 1.068-1.068 1.068zm-31.988-2.136h30.92v-9.823h-30.92v9.823zM74.324 32.7h-7.265c-.58 0-1.068-.487-1.068-1.067s.488-1.068 1.068-1.068h6.196V10.888H67.06c-.58 0-1.068-.488-1.068-1.068 0-.58.488-1.068 1.068-1.068h7.265c.58 0 1.068.489 1.068 1.068v21.813c0 .58-.488 1.068-1.068 1.068z"/>
            <path d="M28.692 59.517H9.524c-3.48-.183-9.371-2.105-9.371-7.993 0-4.515 2.533-6.223 4.578-7.596.092-.061.183-.122.244-.183 0 0 0-.03-.03-.03-.061-.092-.092-.214-.153-.306-.793-1.83-.64-3.752.427-5.37 1.19-1.83 3.297-2.928 5.495-2.928.091 0 .244 0 .427.03.153-2.623 1.099-4.149 3.48-5.826 2.075-1.465 5.799-2.868 9.492-2.075 2.686.58 4.823 2.197 6.38 4.82.305.519.122 1.16-.367 1.465a1.08 1.08 0 0 1-1.465-.366c-1.251-2.106-2.93-3.387-5.006-3.844-2.808-.61-5.952.427-7.814 1.738-2.045 1.434-2.594 2.472-2.594 4.912 0 .366-.153.671-.397.915-.519.458-1.22.428-1.862.367-.091 0-.183-.031-.274-.031-1.466 0-2.93.763-3.724 1.983-.458.732-.885 1.891-.244 3.356.03.091.091.183.122.274.152.336.335.702.427 1.16.092.396-.092.823-.427 1.067-.306.245-.641.458-.977.672-1.954 1.311-3.632 2.44-3.632 5.827 0 5.247 6.44 5.796 7.325 5.857h19.108c.58 0 1.068.488 1.068 1.068 0 .58-.488 1.037-1.068 1.037z"/>
        </g>
    </g>
</svg>
