<svg xmlns="http://www.w3.org/2000/svg" xmlns:xlink="http://www.w3.org/1999/xlink" width="202" height="172" viewBox="0 0 202 172">
    <defs>
        <path id="a" d="M85.034 171.522c15.987-3.267 44.327 3.769 59.368-29.913 7.842-17.563 24.815-35.177 24.815-55.848 0-22.61-6.97-41.932-24.815-52.864C125.059 21.047 109.332 0 85.034 0 60.68 0 44.074 20.366 27.368 29.982 9.645 40.182 5.707 66.372.851 85.76c-5.336 21.306 15.596 40.488 30.282 62.669 10.885 16.44 40.378 25.855 53.9 23.092z"/>
    </defs>
    <g fill="none" fill-rule="evenodd">
        <g transform="translate(14)">
            <mask id="b" fill="#fff">
                <use xlink:href="#a"/>
            </mask>
            <use fill="#A5D5FA" xlink:href="#a"/>
            <g fill="#41A1FA" mask="url(#b)">
                <path d="M-6.494-4.41h190v187h-190z"/>
            </g>
        </g>
        <g fill="#FFF" fill-rule="nonzero">
            <path d="M172.348 50.719H83.971c-1.55 0-2.856-1.307-2.856-2.858V15.857c0-1.55 1.305-2.857 2.856-2.857h88.377c1.55 0 2.857 1.306 2.857 2.857v32.004c0 1.633-1.225 2.858-2.857 2.858zm-85.521-5.715h82.665V18.715H86.827v26.289zM172.348 104.52H83.971c-1.55 0-2.856-1.305-2.856-2.857V69.66c0-1.552 1.305-2.858 2.856-2.858h88.377c1.55 0 2.857 1.306 2.857 2.858v32.003a2.839 2.839 0 0 1-2.857 2.858zm-85.521-5.714h82.665V72.517H86.827v26.289zM172.348 158.323H83.971c-1.55 0-2.856-1.306-2.856-2.857v-32.004c0-1.551 1.305-2.858 2.856-2.858h88.377c1.55 0 2.857 1.307 2.857 2.858v32.004a2.839 2.839 0 0 1-2.857 2.857zm-85.521-5.715h82.665V126.32H86.827v26.29zM198.707 87.131h-19.422c-1.55 0-2.856-1.306-2.856-2.857 0-1.552 1.305-2.858 2.856-2.858h16.565v-52.66h-16.565c-1.55 0-2.856-1.305-2.856-2.857 0-1.55 1.305-2.857 2.856-2.857h19.422c1.55 0 2.856 1.306 2.856 2.857v58.375c0 1.55-1.306 2.857-2.856 2.857z"/>
            <path d="M76.708 158.895H25.461c-9.303-.49-25.053-5.634-25.053-21.39 0-12.084 6.773-16.656 12.24-20.33.245-.163.49-.326.654-.49 0 0 0-.081-.082-.081-.163-.245-.245-.572-.408-.816-2.122-4.899-1.714-10.042 1.142-14.37 3.183-4.898 8.814-7.837 14.69-7.837.244 0 .652 0 1.142.081.408-7.02 2.937-11.103 9.302-15.593 5.55-3.919 15.505-7.675 25.38-5.552 7.18 1.551 12.893 5.878 17.055 12.9.816 1.388.326 3.102-.98 3.918-1.387.817-3.1.327-3.917-.98-3.345-5.633-7.834-9.062-13.383-10.286-7.507-1.633-15.912 1.143-20.89 4.653-5.468 3.838-6.937 6.613-6.937 13.145 0 .98-.408 1.796-1.06 2.45-1.388 1.224-3.265 1.142-4.978.979-.245 0-.49-.082-.735-.082-3.917 0-7.834 2.041-9.956 5.307-1.224 1.96-2.366 5.062-.652 8.98.081.245.244.49.326.735.408.898.898 1.878 1.142 3.103.245 1.061-.244 2.204-1.142 2.857-.816.653-1.714 1.225-2.611 1.796-5.223 3.51-9.711 6.532-9.711 15.594 0 14.042 17.218 15.512 19.585 15.675h51.084c1.55 0 2.856 1.307 2.856 2.858 0 1.55-1.305 2.776-2.856 2.776z"/>
        </g>
    </g>
</svg>
