<svg xmlns="http://www.w3.org/2000/svg" width="29" height="29" viewBox="0 0 29 29">
    <g fill="#1991EB" fill-rule="nonzero" stroke="#FFF" stroke-width=".3">
        <path d="M10.74 18.26a1.345 1.345 0 0 0-1.949 0L2.67 24.384a1.345 1.345 0 0 0 0 1.947 1.345 1.345 0 0 0 1.947 0l6.122-6.121a1.345 1.345 0 0 0 0-1.948zM4.757 20.209l2.921-2.922a1.345 1.345 0 0 0 0-1.948 1.345 1.345 0 0 0-1.948 0L2.81 18.261a1.345 1.345 0 0 0 0 1.948 1.345 1.345 0 0 0 1.948 0zM11.713 21.183l-2.922 2.921a1.345 1.345 0 0 0 0 1.948 1.345 1.345 0 0 0 1.948 0l2.922-2.922a1.345 1.345 0 0 0 0-1.947c-.557-.557-1.391-.418-1.948 0z"/>
        <path d="M21.174 17.565c4.591-4.035 7.513-9.739 7.652-16 0-.835-.696-1.53-1.391-1.391-6.122.139-11.965 3.06-16 7.652l-5.148-1.67c-.557-.139-1.113 0-1.391.279L1.417 9.913a1.345 1.345 0 0 0 0 1.948 1.345 1.345 0 0 0 1.948 0l2.783-2.783 3.478 1.113c-.556.696-.974 1.53-1.391 2.226-.278.557-.14 1.253.278 1.67l6.4 6.4c.417.417 1.113.556 1.67.278.834-.417 1.53-.835 2.226-1.391l1.113 3.478-2.783 2.783a1.345 1.345 0 0 0 0 1.948 1.345 1.345 0 0 0 1.948 0l3.34-3.34c.416-.417.556-.973.277-1.39l-1.53-5.288zm-5.009.278l-5.008-5.008c3.2-5.426 8.626-9.044 14.747-9.74-.695 6.122-4.313 11.548-9.739 14.748z"/>
    </g>
</svg>
