<svg xmlns="http://www.w3.org/2000/svg" width="21" height="24" viewBox="0 0 21 24">
    <path fill="#83C500" fill-rule="nonzero" stroke="#83C500" d="M10.1 0L.02 5.939v11.877l10.08 5.939 10.08-5.94V5.94L10.1 0zm9.126 6.2l-6.519 3.658-2.63-1.544-2.63 1.544L.974 6.2 10.1.83 19.226 6.2zm-9.15 8.29l-2.14-1.259 2.14-1.164 2.143 1.164-2.142 1.26zm2.399-1.663l-2.142-1.164v-2.66l2.142 1.259v2.565zm-2.63-1.164l-2.143 1.164v-2.565l2.142-1.259v2.66zM.718 6.603l6.518 3.659v3.088l.116.071 2.514 1.473.024 7.887-9.172-5.369V6.604zm9.614 16.178l-.023-7.887 2.514-1.473.116-.071v-3.088l6.542-3.658v10.784l-9.149 5.393z"/>
</svg>
