<?xml version="1.0" encoding="UTF-8"?>
<svg width="124px" height="26px" viewBox="0 0 124 26" version="1.1" xmlns="http://www.w3.org/2000/svg" xmlns:xlink="http://www.w3.org/1999/xlink">
    <!-- Generator: sketchtool 50.2 (55047) - http://www.bohemiancoding.com/sketch -->
    <title>9278E1F1-0CE5-45E3-9042-A2D42E9DBC8F</title>
    <desc>Created with sketchtool.</desc>
    <defs></defs>
    <g id="Symbols" stroke="none" stroke-width="1" fill="none" fill-rule="evenodd">
        <g id="Logos" transform="translate(-967.000000, -64.000000)">
            <g id="Group-4-Copy-8" transform="translate(967.000000, 64.000000)">
                <g id="Group-2" transform="translate(31.978947, 6.500000)" fill="#FFFFFF">
                    <path d="M5.36260842,6.71814 C6.71094526,6.71814 7.48757684,5.89069 7.48757684,4.80519 L7.48757684,4.76814 C7.48757684,3.51624 6.65547158,2.85454 5.30713474,2.85454 L3.23764,2.85454 L3.23764,6.71814 L5.36260842,6.71814 Z M0.466566316,1.80479 C0.466566316,1.06964 1.05785053,0.46189 1.81490316,0.46189 L5.62105053,0.46189 C8.52199789,0.46189 10.2769242,2.17334 10.2769242,4.63944 L10.2769242,4.67584 C10.2769242,7.47279 8.09713474,8.92619 5.36260842,8.92619 L3.23764,8.92619 L3.23764,11.28179 C3.23764,11.92594 2.79450316,12.51484 2.14774526,12.62534 C1.24319789,12.79109 0.466566316,12.16514 0.466566316,11.31884 L0.466566316,1.80479 Z" id="Fill-765"></path>
                    <path d="M23.0257558,7.67533 L21.3445768,3.66353 L19.6633979,7.67533 L23.0257558,7.67533 Z M15.4689347,10.91363 L19.7188716,1.34563 C20.0145137,0.68263 20.5496716,0.27768 21.2891032,0.27768 L21.4365979,0.27768 C22.1760295,0.27768 22.6929137,0.68263 22.9885558,1.34563 L27.2384926,10.91363 C27.4780084,11.42908 27.4597347,11.81583 26.8691032,12.40408 C26.6654821,12.60688 26.3881137,12.75378 26.0924716,12.75378 C25.46464,12.75378 25.0580505,12.38588 24.7996084,11.83403 L24.0229768,9.90223 L18.6472505,9.90223 L17.7968716,11.90748 C17.5749768,12.42293 17.1129137,12.73558 16.5594821,12.73558 C15.8572505,12.73558 15.3207874,12.18373 15.3207874,11.48433 C15.3207874,11.30038 15.3762611,11.09823 15.4689347,10.91363 Z" id="Fill-766"></path>
                    <path d="M32.61448,1.694615 C32.61448,0.811915 33.4648589,0.130715 34.4438063,0.406965 C35.0168168,0.572065 35.3862063,1.087515 35.3862063,1.676415 L35.3862063,5.816915 L40.5041432,0.885365 C40.8552589,0.553865 41.1881011,0.351715 41.6677853,0.351715 C42.4444168,0.351715 42.9430274,0.922415 42.9430274,1.584115 C42.9430274,2.007265 42.7400589,2.320565 42.4444168,2.596815 L38.8967116,5.816915 L42.7583326,10.545665 C42.9795747,10.803715 43.1270695,11.079315 43.1270695,11.484915 C43.1270695,12.238915 42.5364379,12.790765 41.7232589,12.790765 C41.1881011,12.790765 40.8552589,12.533365 40.5596168,12.146615 L36.9564379,7.564765 L35.3679326,8.999965 L35.3679326,11.466065 C35.3679326,12.036115 34.9796168,12.569765 34.42488,12.735515 C33.4648589,13.011765 32.5962063,12.330565 32.5962063,11.447865 L32.5962063,1.694615 L32.61448,1.694615 Z" id="Fill-767"></path>
                    <path d="M48.3190147,11.466195 L48.3190147,1.749995 C48.3190147,1.051245 48.8920253,0.480545 49.5942568,0.480545 L56.7816884,0.480545 C57.2613726,0.480545 57.7051621,0.756145 57.8898568,1.198145 C58.2409726,2.081495 57.5942147,2.872545 56.7444884,2.872545 L51.0907411,2.872545 L51.0907411,5.448495 L55.7283411,5.448495 C56.3006989,5.448495 56.8365095,5.835245 56.9474568,6.405945 C57.1138779,7.178145 56.50432,7.841145 55.7648884,7.841145 L51.0907411,7.841145 L51.0907411,10.417095 L56.8365095,10.417095 C57.40952,10.417095 57.9270568,10.803195 58.0562779,11.355695 C58.2226989,12.146745 57.6124884,12.809095 56.8365095,12.809095 L49.6680042,12.809095 C48.9102989,12.790895 48.3190147,12.201995 48.3190147,11.466195" id="Fill-768"></path>
                    <path d="M66.9802316,2.85428 L64.3011789,2.85428 C63.7288211,2.85428 63.2112842,2.48638 63.0814105,1.93388 C62.8967158,1.16168 63.5252,0.46163 64.3194526,0.46163 L72.4303579,0.46163 C73.0033684,0.46163 73.5202526,0.83018 73.6501263,1.38203 C73.8348211,2.15488 73.2063368,2.85428 72.4114316,2.85428 L69.7513053,2.85428 L69.7513053,11.33743 C69.7513053,11.98093 69.3075158,12.56983 68.6614105,12.69918 C67.7555579,12.86428 66.9802316,12.23898 66.9802316,11.42908 L66.9802316,2.85428 Z" id="Fill-769"></path>
                    <path d="M88.59676,6.5715 L88.59676,6.53445 C88.59676,4.49215 87.1002758,2.7989 84.9753074,2.7989 C82.8503389,2.7989 81.3910547,4.4733 81.3910547,6.49805 L81.3910547,6.53445 C81.3910547,8.57675 82.8875389,10.26935 85.0125074,10.26935 C87.1374758,10.26935 88.59676,8.6138 88.59676,6.5715 M78.8046758,6.5715 L78.8046758,6.53445 C78.8046758,3.1304 81.5020021,0.35165 85.1972021,0.35165 C88.8924021,0.35165 91.5525284,3.09335 91.5525284,6.49805 L91.5525284,6.53445 C91.5525284,9.93915 88.8552021,12.71725 85.1600021,12.71725 C81.4648021,12.71725 78.8046758,9.95735 78.8046758,6.5715" id="Fill-770"></path>
                </g>
                <g id="Group">
                    <polygon id="Fill-775" fill="#008FFF" points="22.3374253 2.999685 15.0122884 0.223535 17.0883095 7.142135 17.61172 7.342985 22.8314674 9.344335 24.4721832 9.973535"></polygon>
                    <path d="M9.25738316,21.25552 L10.32052,20.27922 C10.5319726,20.02897 10.5326253,19.65587 10.3113832,19.41732 C10.0907937,19.17942 9.71683579,19.15017 9.44990947,19.33997 L8.38742526,20.31692 C8.17532,20.56652 8.17532,20.92532 8.39590947,21.17817 C8.61715158,21.41672 8.99045684,21.44597 9.25738316,21.25552" id="Fill-776" fill="#008FFF"></path>
                    <path d="M16.7103705,8.226985 L12.3038021,12.275835 C12.5511495,12.573535 12.5276547,12.995385 12.2378863,13.261235 L9.43940211,15.833285 C9.16986526,16.080935 9.15354947,16.482635 9.40285474,16.750435 C9.65150737,17.018885 10.0541811,17.035135 10.3237179,16.787485 L15.2922021,12.221235 C15.5617389,11.972935 15.9644126,11.989185 16.2130653,12.257635 C16.4617179,12.525435 16.4460547,12.926485 16.1765179,13.174785 L13.1078442,15.994485 C12.8383074,16.242135 12.8226442,16.643185 13.0712968,16.911635 C13.3199495,17.180085 13.7226232,17.196335 13.99216,16.948685 L15.9976968,15.105285 C16.2672337,14.857635 16.6699074,14.873885 16.91856,15.142335 C17.1672126,15.410785 17.1515495,15.811835 16.8820126,16.059485 L14.1279074,18.590585 C13.8583705,18.838235 13.8420547,19.239285 14.0907074,19.507735 C14.33936,19.776185 14.7420337,19.792435 15.0115705,19.544785 L24.1980126,11.101935 L16.7103705,8.226985 Z" id="Fill-777" fill="#008FFF"></path>
                    <path d="M12.1980758,20.311005 C11.9350653,20.552805 11.9180968,20.961005 12.1608758,21.222955 C12.4036547,21.485555 12.8135074,21.501805 13.0771705,21.260005 C13.3401811,21.018205 13.3558442,20.610005 13.1137179,20.348055 C12.8709389,20.085455 12.4610863,20.069205 12.1980758,20.311005" id="Fill-778" fill="#008FFF"></path>
                    <path d="M10.3025726,22.066785 C10.0402147,22.308585 10.0232463,22.716785 10.2660253,22.978735 C10.5088042,23.241335 10.9186568,23.257585 11.18232,23.015785 C11.4446779,22.773985 11.4609937,22.365785 11.2182147,22.103835 C10.9754358,21.841235 10.5655832,21.824985 10.3025726,22.066785" id="Fill-779" fill="#008FFF"></path>
                    <path d="M8.38742526,23.82185 C8.12441474,24.06365 8.10809895,24.47185 8.35022526,24.7338 C8.59300421,24.99575 9.00350947,25.012 9.26652,24.7702 C9.52953053,24.52905 9.54584632,24.1202 9.30306737,23.8589 C9.06028842,23.5963 8.65043579,23.58005 8.38742526,23.82185" id="Fill-780" fill="#008FFF"></path>
                    <path d="M12.1018126,17.780165 C11.8590337,17.518215 11.4491811,17.501315 11.1861705,17.743115 C10.92316,17.984915 10.9068442,18.393115 11.1496232,18.655715 C11.3917495,18.917015 11.8022547,18.933265 12.0646126,18.691465 C12.3282758,18.450315 12.3445916,18.041465 12.1018126,17.780165" id="Fill-781" fill="#008FFF"></path>
                    <path d="M3.56597895,24.7442 C3.30296842,24.986 3.28665263,25.3942 3.52877895,25.65615 C3.77155789,25.91875 4.18206316,25.93435 4.44507368,25.6932 C4.70808421,25.4514 4.7244,25.04255 4.48162105,24.78125 C4.23884211,24.51865 3.82898947,24.5024 3.56597895,24.7442" id="Fill-782" fill="#008FFF"></path>
                    <path d="M7.37591158,19.46867 L8.43839579,18.49237 C8.66485895,18.24277 8.66551158,17.86967 8.42991158,17.63047 C8.20866947,17.39257 7.83536421,17.36267 7.56843789,17.55312 L6.50595368,18.53007 C6.29384842,18.77967 6.29384842,19.13847 6.51443789,19.39132 C6.73502737,19.64482 7.10898526,19.65912 7.37591158,19.46867" id="Fill-783" fill="#008FFF"></path>
                    <path d="M4.53154737,22.09662 L5.59403158,21.12032 C5.80613684,20.87007 5.80678947,20.49697 5.58554737,20.25842 C5.36430526,20.02052 4.991,19.99127 4.72407368,20.18107 L3.66158947,21.15802 C3.44948421,21.40762 3.44948421,21.76642 3.67007368,22.01927 C3.89131579,22.25782 4.26462105,22.28707 4.53154737,22.09662" id="Fill-784" fill="#008FFF"></path>
                    <path d="M1.86554737,22.808175 L0.802410526,23.785125 C0.590957895,24.035375 0.590957895,24.393525 0.811547368,24.646375 C1.03213684,24.884925 1.40609474,24.914175 1.67236842,24.724375 L2.73550526,23.747425 C2.94695789,23.497825 2.94761053,23.124075 2.72702105,22.886175 C2.50577895,22.647625 2.13247368,22.618375 1.86554737,22.808175" id="Fill-785" fill="#008FFF"></path>
                    <path d="M6.47795579,22.07439 L5.41547158,23.05069 C5.20401895,23.30094 5.20336632,23.65974 5.42395579,23.91259 C5.64519789,24.15114 6.01850316,24.18039 6.28542947,23.98994 L7.34856632,23.01299 C7.56001895,22.76404 7.56067158,22.39029 7.33942947,22.15174 C7.11884,21.91319 6.74488211,21.88394 6.47795579,22.07439" id="Fill-786" fill="#008FFF"></path>
                    <path d="M4.60288,14.120145 C4.36010105,13.858845 3.94959579,13.841945 3.68723789,14.083745 C3.42357474,14.324895 3.40725895,14.733745 3.65003789,14.995695 C3.89281684,15.257645 4.30266947,15.273895 4.56568,15.032095 C4.82934316,14.790295 4.84500632,14.382095 4.60288,14.120145" id="Fill-787" fill="#3C0084"></path>
                    <path d="M7.03686947,9.250865 C7.29922737,9.009065 7.31619579,8.600865 7.07341684,8.338915 C6.83063789,8.076965 6.42078526,8.060715 6.15712211,8.302515 C5.89476421,8.544315 5.87844842,8.952515 6.12122737,9.214465 C6.36400632,9.476415 6.77385895,9.492665 7.03686947,9.250865" id="Fill-788" fill="#3C0084"></path>
                    <path d="M5.13190316,10.99644 C5.39491368,10.75464 5.41122947,10.34579 5.16910316,10.08449 C4.92632421,9.82189 4.51581895,9.80564 4.25280842,10.04744 C3.98979789,10.28924 3.97348211,10.69744 4.21626105,10.95939 C4.45904,11.22199 4.86889263,11.23759 5.13190316,10.99644" id="Fill-789" fill="#3C0084"></path>
                    <path d="M4.48625474,16.8636 C4.22324421,17.1054 4.20692842,17.5136 4.44970737,17.77555 C4.69183368,18.03815 5.10168632,18.05375 5.36534947,17.8126 C5.62836,17.5708 5.64467579,17.16195 5.40189684,16.90065 C5.15911789,16.63805 4.74926526,16.6218 4.48625474,16.8636" id="Fill-790" fill="#3C0084"></path>
                    <path d="M2.58128842,18.608525 C2.31893053,18.850325 2.30196211,19.258525 2.54474105,19.520475 C2.78752,19.783075 3.19737263,19.799325 3.46103579,19.557525 C3.72339368,19.315725 3.73970947,18.907525 3.49693053,18.645575 C3.25415158,18.382975 2.84429895,18.366725 2.58128842,18.608525" id="Fill-791" fill="#3C0084"></path>
                    <path d="M0.686437895,20.364305 C0.423427368,20.606105 0.406458947,21.014305 0.649237895,21.276255 C0.892016842,21.538855 1.30186947,21.555105 1.56553263,21.313305 C1.82854316,21.071505 1.84485895,20.663305 1.60208,20.401355 C1.35930105,20.138755 0.949448421,20.122505 0.686437895,20.364305" id="Fill-792" fill="#3C0084"></path>
                    <path d="M3.27340421,11.84066 C3.05216211,11.60211 2.67885684,11.57286 2.41193053,11.76266 L1.34879368,12.73961 C1.13734105,12.98986 1.13734105,13.34801 1.35727789,13.60086 C1.57721474,13.85436 1.95182526,13.86866 2.21940421,13.67886 L3.28188842,12.70191 C3.49334105,12.45166 3.49399368,12.07856 3.27340421,11.84066" id="Fill-793" fill="#3C0084"></path>
                    <path d="M7.40142947,14.18742 L6.33894526,15.16437 C6.12684,15.41397 6.12684,15.77277 6.34742947,16.02562 C6.56867158,16.26417 6.94197684,16.29342 7.20890316,16.10297 L8.27138737,15.12667 C8.49785053,14.87772 8.49785053,14.51827 8.26290316,14.26477 C8.04166105,14.02622 7.66835579,13.99697 7.40142947,14.18742" id="Fill-794" fill="#3C0084"></path>
                    <path d="M24.4718568,9.97321 L17.0886358,7.14246 L15.0126147,0.22321 L8.08297263,6.59256 C7.80038316,6.79601 7.78472,7.19706 8.03272,7.46616 C8.28137263,7.73461 8.68469895,7.75021 8.95423579,7.50256 L10.01672,6.52626 C10.2862568,6.27796 10.6889305,6.29486 10.9375832,6.56331 C11.1862358,6.83111 11.16992,7.23216 10.9003832,7.48046 L5.60232,12.34961 C5.33278316,12.59726 5.31581474,12.99831 5.56512,13.26676 C5.81377263,13.53521 6.21644632,13.55146 6.48598316,13.30381 L10.7222147,9.41096 C10.9910989,9.16331 11.3937726,9.17891 11.6430779,9.44736 C11.8917305,9.71581 11.8747621,10.11751 11.6058779,10.36516 L9.27076211,12.51081 C9.00122526,12.75846 8.98490947,13.15951 9.23356211,13.42796 C9.48221474,13.69706 9.88488842,13.71266 10.1544253,13.46501 L11.4714358,12.25471 C11.7109516,12.03436 12.0836042,12.03761 12.3035411,12.27616 L16.7101095,8.22666 L24.1977516,11.10161 L24.6806989,10.65831 L24.4718568,9.97321 Z" id="Fill-795" fill="#3C0084"></path>
                </g>
            </g>
        </g>
    </g>
</svg>