<?xml version="1.0" encoding="UTF-8"?>
<svg width="124px" height="26px" viewBox="0 0 124 26" version="1.1" xmlns="http://www.w3.org/2000/svg" xmlns:xlink="http://www.w3.org/1999/xlink">
    <!-- Generator: sketchtool 50.2 (55047) - http://www.bohemiancoding.com/sketch -->
    <title>5DE17716-A403-4DEA-A019-287A3B945D14</title>
    <desc>Created with sketchtool.</desc>
    <defs></defs>
    <g id="Symbols" stroke="none" stroke-width="1" fill="none" fill-rule="evenodd">
        <g id="Logos" transform="translate(-967.000000, -179.000000)" fill="#FFFFFF">
            <g id="Group-5-Copy-3" transform="translate(967.000000, 179.000000)">
                <g id="Group-4-Copy-2" transform="translate(31.627530, 6.500000)">
                    <g id="Group-2" transform="translate(0.351417, 0.000000)">
                        <path d="M5.36260842,6.71814 C6.71094526,6.71814 7.48757684,5.89069 7.48757684,4.80519 L7.48757684,4.76814 C7.48757684,3.51624 6.65547158,2.85454 5.30713474,2.85454 L3.23764,2.85454 L3.23764,6.71814 L5.36260842,6.71814 Z M0.466566316,1.80479 C0.466566316,1.06964 1.05785053,0.46189 1.81490316,0.46189 L5.62105053,0.46189 C8.52199789,0.46189 10.2769242,2.17334 10.2769242,4.63944 L10.2769242,4.67584 C10.2769242,7.47279 8.09713474,8.92619 5.36260842,8.92619 L3.23764,8.92619 L3.23764,11.28179 C3.23764,11.92594 2.79450316,12.51484 2.14774526,12.62534 C1.24319789,12.79109 0.466566316,12.16514 0.466566316,11.31884 L0.466566316,1.80479 Z" id="Fill-765"></path>
                        <path d="M23.0257558,7.67533 L21.3445768,3.66353 L19.6633979,7.67533 L23.0257558,7.67533 Z M15.4689347,10.91363 L19.7188716,1.34563 C20.0145137,0.68263 20.5496716,0.27768 21.2891032,0.27768 L21.4365979,0.27768 C22.1760295,0.27768 22.6929137,0.68263 22.9885558,1.34563 L27.2384926,10.91363 C27.4780084,11.42908 27.4597347,11.81583 26.8691032,12.40408 C26.6654821,12.60688 26.3881137,12.75378 26.0924716,12.75378 C25.46464,12.75378 25.0580505,12.38588 24.7996084,11.83403 L24.0229768,9.90223 L18.6472505,9.90223 L17.7968716,11.90748 C17.5749768,12.42293 17.1129137,12.73558 16.5594821,12.73558 C15.8572505,12.73558 15.3207874,12.18373 15.3207874,11.48433 C15.3207874,11.30038 15.3762611,11.09823 15.4689347,10.91363 Z" id="Fill-766"></path>
                        <path d="M32.61448,1.694615 C32.61448,0.811915 33.4648589,0.130715 34.4438063,0.406965 C35.0168168,0.572065 35.3862063,1.087515 35.3862063,1.676415 L35.3862063,5.816915 L40.5041432,0.885365 C40.8552589,0.553865 41.1881011,0.351715 41.6677853,0.351715 C42.4444168,0.351715 42.9430274,0.922415 42.9430274,1.584115 C42.9430274,2.007265 42.7400589,2.320565 42.4444168,2.596815 L38.8967116,5.816915 L42.7583326,10.545665 C42.9795747,10.803715 43.1270695,11.079315 43.1270695,11.484915 C43.1270695,12.238915 42.5364379,12.790765 41.7232589,12.790765 C41.1881011,12.790765 40.8552589,12.533365 40.5596168,12.146615 L36.9564379,7.564765 L35.3679326,8.999965 L35.3679326,11.466065 C35.3679326,12.036115 34.9796168,12.569765 34.42488,12.735515 C33.4648589,13.011765 32.5962063,12.330565 32.5962063,11.447865 L32.5962063,1.694615 L32.61448,1.694615 Z" id="Fill-767"></path>
                        <path d="M48.3190147,11.466195 L48.3190147,1.749995 C48.3190147,1.051245 48.8920253,0.480545 49.5942568,0.480545 L56.7816884,0.480545 C57.2613726,0.480545 57.7051621,0.756145 57.8898568,1.198145 C58.2409726,2.081495 57.5942147,2.872545 56.7444884,2.872545 L51.0907411,2.872545 L51.0907411,5.448495 L55.7283411,5.448495 C56.3006989,5.448495 56.8365095,5.835245 56.9474568,6.405945 C57.1138779,7.178145 56.50432,7.841145 55.7648884,7.841145 L51.0907411,7.841145 L51.0907411,10.417095 L56.8365095,10.417095 C57.40952,10.417095 57.9270568,10.803195 58.0562779,11.355695 C58.2226989,12.146745 57.6124884,12.809095 56.8365095,12.809095 L49.6680042,12.809095 C48.9102989,12.790895 48.3190147,12.201995 48.3190147,11.466195" id="Fill-768"></path>
                        <path d="M66.9802316,2.85428 L64.3011789,2.85428 C63.7288211,2.85428 63.2112842,2.48638 63.0814105,1.93388 C62.8967158,1.16168 63.5252,0.46163 64.3194526,0.46163 L72.4303579,0.46163 C73.0033684,0.46163 73.5202526,0.83018 73.6501263,1.38203 C73.8348211,2.15488 73.2063368,2.85428 72.4114316,2.85428 L69.7513053,2.85428 L69.7513053,11.33743 C69.7513053,11.98093 69.3075158,12.56983 68.6614105,12.69918 C67.7555579,12.86428 66.9802316,12.23898 66.9802316,11.42908 L66.9802316,2.85428 Z" id="Fill-769"></path>
                        <path d="M88.59676,6.5715 L88.59676,6.53445 C88.59676,4.49215 87.1002758,2.7989 84.9753074,2.7989 C82.8503389,2.7989 81.3910547,4.4733 81.3910547,6.49805 L81.3910547,6.53445 C81.3910547,8.57675 82.8875389,10.26935 85.0125074,10.26935 C87.1374758,10.26935 88.59676,8.6138 88.59676,6.5715 M78.8046758,6.5715 L78.8046758,6.53445 C78.8046758,3.1304 81.5020021,0.35165 85.1972021,0.35165 C88.8924021,0.35165 91.5525284,3.09335 91.5525284,6.49805 L91.5525284,6.53445 C91.5525284,9.93915 88.8552021,12.71725 85.1600021,12.71725 C81.4648021,12.71725 78.8046758,9.95735 78.8046758,6.5715" id="Fill-770"></path>
                    </g>
                </g>
                <g id="Group-3">
                    <path d="M11.8982359,20.2185597 C11.630117,20.4649069 11.6132378,20.8806582 11.8605824,21.147696 C12.107927,21.4153804 12.5260107,21.4321914 12.7941296,21.1858442 C13.0622485,20.9388505 13.0784785,20.5230991 12.8311339,20.2560614 C12.5844385,19.9890236 12.1663548,19.9715659 11.8982359,20.2185597" id="Fill-2536"></path>
                    <path d="M9.95038541,22.1583014 C9.6822665,22.4046486 9.66603655,22.8204 9.91273191,23.0874377 C10.1600765,23.3551221 10.5788094,23.3719332 10.8469283,23.1249394 C11.114398,22.8785922 11.1312772,22.4628409 10.8839326,22.1958031 C10.636588,21.9287653 10.2185043,21.9113077 9.95038541,22.1583014" id="Fill-2538"></path>
                    <path d="M8.00279045,24.0977886 C7.73467155,24.3441358 7.71844159,24.7605337 7.96513695,25.0275714 C8.21248151,25.2952558 8.63056523,25.3114203 8.89868413,25.0650731 C9.16680304,24.8180793 9.1836822,24.402328 8.93633764,24.1352902 C8.68899308,23.8682525 8.27090936,23.8514414 8.00279045,24.0977886" id="Fill-2540"></path>
                    <path d="M11.5333865,17.6694844 C11.2860419,17.4024466 10.8679582,17.3856355 10.5998393,17.6319827 C10.3317204,17.8783299 10.3148412,18.2947278 10.5621858,18.5617656 C10.8101795,18.8288034 11.227614,18.8456145 11.495733,18.5986207 C11.7638519,18.3529201 11.780731,17.9365222 11.5333865,17.6694844" id="Fill-2542"></path>
                    <path d="M2.80945945,24.7443691 C2.54134054,24.9913629 2.52446139,25.4071142 2.77180594,25.674152 C3.0191505,25.9418364 3.43723422,25.9580009 3.70535313,25.7116537 C3.97347203,25.4653065 3.99035119,25.0489086 3.74235743,24.7818708 C3.49566207,24.514833 3.07757835,24.4980219 2.80945945,24.7443691" id="Fill-2544"></path>
                    <path d="M6.89068725,19.5377277 L7.97419925,18.5419936 C8.20466465,18.2872409 8.20531385,17.9076981 7.96575967,17.6639372 C7.74048785,17.4208229 7.36005764,17.3904336 7.08739434,17.5844078 L6.00388235,18.5801419 C5.78769931,18.8348947 5.78769931,19.2008593 6.01232193,19.4588449 C6.23694455,19.716184 6.61867316,19.7317019 6.89068725,19.5377277" id="Fill-2546"></path>
                    <path d="M3.64469566,22.1240501 L4.72820765,21.128316 C4.94439069,20.8729167 4.94503989,20.4933738 4.71976808,20.2502595 C4.49449626,20.0071452 4.11406604,19.976756 3.84140275,20.1707301 L2.75789076,21.1671108 C2.54170772,21.421217 2.54170772,21.7871816 2.76633033,22.0451672 C2.99160215,22.2882815 3.37268156,22.3180243 3.64469566,22.1240501" id="Fill-2548"></path>
                    <path d="M1.24453072,22.7573156 L0.161018727,23.7530497 C-0.0551643132,24.0078024 -0.0551643132,24.373767 0.170107503,24.6311061 C0.394730122,24.8742204 0.775809535,24.9039631 1.04782363,24.7106355 L2.13133562,23.7142548 C2.34751866,23.4601486 2.34816786,23.0793127 2.12354524,22.8361984 C1.89762423,22.5930841 1.51654482,22.5633414 1.24453072,22.7573156" id="Fill-2550"></path>
                    <path d="M5.78899771,22.1106807 L4.70548571,23.1064148 C4.48930267,23.3618141 4.48930267,23.7271322 4.71392529,23.9844712 C4.93919711,24.2282321 5.32027652,24.2579748 5.59229062,24.0640006 L6.67580261,23.0682666 C6.89198565,22.8135138 6.89263485,22.4333244 6.66736303,22.1902101 C6.44209121,21.9464492 6.0610118,21.9167065 5.78899771,22.1106807" id="Fill-2552"></path>
                    <path d="M3.74323666,14.436327 C3.4952429,14.1692892 3.07780838,14.1531247 2.80968948,14.3988253 C2.54092137,14.6451725 2.52469141,15.062217 2.77203597,15.3286082 C3.01938053,15.595646 3.43746425,15.6124571 3.70558316,15.3661099 C3.97370206,15.1197626 3.99058122,14.7033648 3.74323666,14.436327" id="Fill-2554"></path>
                    <path d="M6.30244559,8.90048992 C6.5705645,8.65414272 6.58679445,8.2383914 6.34009909,7.97135362 C6.09275453,7.70366926 5.67402162,7.68685816 5.40590271,7.93320537 C5.13778381,8.18019915 5.12155385,8.59595046 5.36889841,8.86298824 C5.61559377,9.13002603 6.03432669,9.14683712 6.30244559,8.90048992" id="Fill-2556"></path>
                    <path d="M4.35485064,10.8405294 C4.62296954,10.5941822 4.6391995,10.1777843 4.39250414,9.9107465 C4.14451038,9.64306214 3.72642666,9.62689762 3.45830776,9.87324483 C3.19018885,10.119592 3.17395889,10.5359899 3.42130345,10.8030277 C3.66799881,11.0700655 4.08673173,11.0868766 4.35485064,10.8405294" id="Fill-2558"></path>
                    <path d="M4.10785608,16.9854021 C3.83973718,17.2323959 3.82285802,17.6481472 4.07020258,17.915185 C4.31754714,18.1828694 4.73563086,18.1990339 5.00374976,17.9526867 C5.27186867,17.7063395 5.28874783,17.2899416 5.04075407,17.0229038 C4.79405871,16.755866 4.37597499,16.7390549 4.10785608,16.9854021" id="Fill-2560"></path>
                    <path d="M2.16035593,18.9251439 C1.89223703,19.1714911 1.87535787,19.587889 2.12205323,19.8549268 C2.37004699,20.1226111 2.78813071,20.1387756 3.05624961,19.8924284 C3.32436852,19.6454347 3.34124768,19.2296833 3.09325392,18.9626456 C2.84655856,18.6956078 2.42847484,18.6787967 2.16035593,18.9251439" id="Fill-2562"></path>
                    <path d="M0.212410631,20.8651403 C-0.0557082747,21.1114875 -0.0719382327,21.5272388 0.174757128,21.7942766 C0.422101688,22.0619609 0.840834603,22.078772 1.10895351,21.8317782 C1.37707241,21.585431 1.39330237,21.1696797 1.14595781,20.9026419 C0.898613254,20.6356042 0.480529536,20.6181465 0.212410631,20.8651403" id="Fill-2564"></path>
                    <path d="M2.77168627,11.8445969 C2.54576525,11.6014826 2.16533504,11.5710933 1.89267174,11.765714 L0.809808947,12.7614481 C0.594275105,13.0162009 0.594275105,13.3821655 0.818248525,13.6395046 C1.04287114,13.8974902 1.42459975,13.9123616 1.69726305,13.7183874 L2.78077504,12.7226533 C2.99630888,12.4685471 2.99695808,12.0877112 2.77168627,11.8445969" id="Fill-2566"></path>
                    <path d="M7.08674515,14.3517137 L6.00388235,15.3474478 C5.78769931,15.6028471 5.78769931,15.9681652 6.01232193,16.2255042 C6.23759374,16.4692651 6.61802396,16.4990078 6.89068725,16.3050336 L7.97419925,15.3092995 C8.20531385,15.0551934 8.20531385,14.6892288 7.96575967,14.4312431 C7.74048785,14.1874822 7.35940844,14.1577395 7.08674515,14.3517137" id="Fill-2568"></path>
                    <polygon id="Fill-2570" points="17.6445611 7.01216643 24.5078857 9.66831946 22.3324222 2.55916595 15.5807596 0"></polygon>
                    <path d="M8.83836114,21.4777326 L9.92187313,20.4819985 C10.1380562,20.2265992 10.1387054,19.8470563 9.91278435,19.6032955 C9.68816174,19.3601812 9.30708232,19.3304385 9.03506823,19.5244126 L7.95155623,20.5201467 C7.73537319,20.7748995 7.73537319,21.1408641 7.95934661,21.3982032 C8.18526763,21.641964 8.56569784,21.6717068 8.83836114,21.4777326" id="Fill-2572"></path>
                    <path d="M16.8382972,8.40554758 L23.7029203,11.0423032 L14.3375853,19.6495839 C14.0636236,19.9017504 13.6526811,19.8855858 13.3988445,19.6120823 C13.1456572,19.3379321 13.1618872,18.9286466 13.4371473,18.6771267 L16.2442808,16.0966236 C16.5195409,15.8438106 16.5357708,15.4345251 16.2825835,15.1610215 C16.0287469,14.8875179 15.6178044,14.8713534 15.3431935,15.1241664 L13.298868,17.0031296 C13.0242571,17.2559426 12.6133146,17.2391315 12.3601272,16.9649813 C12.1062907,16.6914778 12.1225207,16.2828388 12.3971315,16.0300258 L15.5262674,13.1553286 C15.8002291,12.9025155 15.8171083,12.4938766 15.5632717,12.2197264 C15.3100844,11.9468694 14.8991419,11.9300583 14.624531,12.1828714 L9.5581873,16.8388981 C9.28357641,17.0910646 8.87263387,17.0742535 8.61944653,16.8007499 C8.36560999,16.5278929 8.38248914,16.1186074 8.65710003,15.8657944 L16.8382972,8.40554758 Z" id="Fill-2574"></path>
                    <path d="M11.8982359,20.2185597 C11.630117,20.4649069 11.6132378,20.8806582 11.8605824,21.147696 C12.107927,21.4153804 12.5260107,21.4321914 12.7941296,21.1858442 C13.0622485,20.9388505 13.0784785,20.5230991 12.8311339,20.2560614 C12.5844385,19.9890236 12.1663548,19.9715659 11.8982359,20.2185597" id="Fill-2576"></path>
                    <path d="M9.95038541,22.1583014 C9.6822665,22.4046486 9.66603655,22.8204 9.91273191,23.0874377 C10.1600765,23.3551221 10.5788094,23.3719332 10.8469283,23.1249394 C11.114398,22.8785922 11.1312772,22.4628409 10.8839326,22.1958031 C10.636588,21.9287653 10.2185043,21.9113077 9.95038541,22.1583014" id="Fill-2578"></path>
                    <path d="M8.00279045,24.0977886 C7.73467155,24.3441358 7.71844159,24.7605337 7.96513695,25.0275714 C8.21248151,25.2952558 8.63056523,25.3114203 8.89868413,25.0650731 C9.16680304,24.8180793 9.1836822,24.402328 8.93633764,24.1352902 C8.68899308,23.8682525 8.27090936,23.8514414 8.00279045,24.0977886" id="Fill-2580"></path>
                    <path d="M11.5333865,17.6694844 C11.2860419,17.4024466 10.8679582,17.3856355 10.5998393,17.6319827 C10.3317204,17.8783299 10.3148412,18.2947278 10.5621858,18.5617656 C10.8101795,18.8288034 11.227614,18.8456145 11.495733,18.5986207 C11.7638519,18.3529201 11.780731,17.9365222 11.5333865,17.6694844" id="Fill-2582"></path>
                    <path d="M2.80945945,24.7443691 C2.54134054,24.9913629 2.52446139,25.4071142 2.77180594,25.674152 C3.0191505,25.9418364 3.43723422,25.9580009 3.70535313,25.7116537 C3.97347203,25.4653065 3.99035119,25.0489086 3.74235743,24.7818708 C3.49566207,24.514833 3.07757835,24.4980219 2.80945945,24.7443691" id="Fill-2584"></path>
                    <path d="M6.89068725,19.5377277 L7.97419925,18.5419936 C8.20466465,18.2872409 8.20531385,17.9076981 7.96575967,17.6639372 C7.74048785,17.4208229 7.36005764,17.3904336 7.08739434,17.5844078 L6.00388235,18.5801419 C5.78769931,18.8348947 5.78769931,19.2008593 6.01232193,19.4588449 C6.23694455,19.716184 6.61867316,19.7317019 6.89068725,19.5377277" id="Fill-2586"></path>
                    <path d="M3.64469566,22.1240501 L4.72820765,21.128316 C4.94439069,20.8729167 4.94503989,20.4933738 4.71976808,20.2502595 C4.49449626,20.0071452 4.11406604,19.976756 3.84140275,20.1707301 L2.75789076,21.1671108 C2.54170772,21.421217 2.54170772,21.7871816 2.76633033,22.0451672 C2.99160215,22.2882815 3.37268156,22.3180243 3.64469566,22.1240501" id="Fill-2588"></path>
                    <path d="M1.24453072,22.7573156 L0.161018727,23.7530497 C-0.0551643132,24.0078024 -0.0551643132,24.373767 0.170107503,24.6311061 C0.394730122,24.8742204 0.775809535,24.9039631 1.04782363,24.7106355 L2.13133562,23.7142548 C2.34751866,23.4601486 2.34816786,23.0793127 2.12354524,22.8361984 C1.89762423,22.5930841 1.51654482,22.5633414 1.24453072,22.7573156" id="Fill-2590"></path>
                    <path d="M5.78899771,22.1106807 L4.70548571,23.1064148 C4.48930267,23.3618141 4.48930267,23.7271322 4.71392529,23.9844712 C4.93919711,24.2282321 5.32027652,24.2579748 5.59229062,24.0640006 L6.67580261,23.0682666 C6.89198565,22.8135138 6.89263485,22.4333244 6.66736303,22.1902101 C6.44209121,21.9464492 6.0610118,21.9167065 5.78899771,22.1106807" id="Fill-2592"></path>
                    <path d="M3.74323666,14.436327 C3.4952429,14.1692892 3.07780838,14.1531247 2.80968948,14.3988253 C2.54092137,14.6451725 2.52469141,15.062217 2.77203597,15.3286082 C3.01938053,15.595646 3.43746425,15.6124571 3.70558316,15.3661099 C3.97370206,15.1197626 3.99058122,14.7033648 3.74323666,14.436327" id="Fill-2594"></path>
                    <path d="M6.30244559,8.90048992 C6.5705645,8.65414272 6.58679445,8.2383914 6.34009909,7.97135362 C6.09275453,7.70366926 5.67402162,7.68685816 5.40590271,7.93320537 C5.13778381,8.18019915 5.12155385,8.59595046 5.36889841,8.86298824 C5.61559377,9.13002603 6.03432669,9.14683712 6.30244559,8.90048992" id="Fill-2596"></path>
                    <path d="M4.35485064,10.8405294 C4.62296954,10.5941822 4.6391995,10.1777843 4.39250414,9.9107465 C4.14451038,9.64306214 3.72642666,9.62689762 3.45830776,9.87324483 C3.19018885,10.119592 3.17395889,10.5359899 3.42130345,10.8030277 C3.66799881,11.0700655 4.08673173,11.0868766 4.35485064,10.8405294" id="Fill-2598"></path>
                    <path d="M4.10785608,16.9854021 C3.83973718,17.2323959 3.82285802,17.6481472 4.07020258,17.915185 C4.31754714,18.1828694 4.73563086,18.1990339 5.00374976,17.9526867 C5.27186867,17.7063395 5.28874783,17.2899416 5.04075407,17.0229038 C4.79405871,16.755866 4.37597499,16.7390549 4.10785608,16.9854021" id="Fill-2600"></path>
                    <path d="M2.16035593,18.9251439 C1.89223703,19.1714911 1.87535787,19.587889 2.12205323,19.8549268 C2.37004699,20.1226111 2.78813071,20.1387756 3.05624961,19.8924284 C3.32436852,19.6454347 3.34124768,19.2296833 3.09325392,18.9626456 C2.84655856,18.6956078 2.42847484,18.6787967 2.16035593,18.9251439" id="Fill-2602"></path>
                    <path d="M0.212410631,20.8651403 C-0.0557082747,21.1114875 -0.0719382327,21.5272388 0.174757128,21.7942766 C0.422101688,22.0619609 0.840834603,22.078772 1.10895351,21.8317782 C1.37707241,21.585431 1.39330237,21.1696797 1.14595781,20.9026419 C0.898613254,20.6356042 0.480529536,20.6181465 0.212410631,20.8651403" id="Fill-2604"></path>
                    <path d="M2.77168627,11.8445969 C2.54576525,11.6014826 2.16533504,11.5710933 1.89267174,11.765714 L0.809808947,12.7614481 C0.594275105,13.0162009 0.594275105,13.3821655 0.818248525,13.6395046 C1.04287114,13.8974902 1.42459975,13.9123616 1.69726305,13.7183874 L2.78077504,12.7226533 C2.99630888,12.4685471 2.99695808,12.0877112 2.77168627,11.8445969" id="Fill-2606"></path>
                    <path d="M7.08674515,14.3517137 L6.00388235,15.3474478 C5.78769931,15.6028471 5.78769931,15.9681652 6.01232193,16.2255042 C6.23759374,16.4692651 6.61802396,16.4990078 6.89068725,16.3050336 L7.97419925,15.3092995 C8.20531385,15.0551934 8.20531385,14.6892288 7.96575967,14.4312431 C7.74048785,14.1874822 7.35940844,14.1577395 7.08674515,14.3517137" id="Fill-2608"></path>
                    <path d="M13.8614928,0.646580583 L7.29095658,6.68499665 C7.00336172,6.8931956 6.98648256,7.30248111 7.24031911,7.5759847 C7.49285725,7.84948828 7.90379979,7.8656528 8.17905988,7.61283979 L9.26257187,6.61710569 C9.53718276,6.36558584 9.94812529,6.38175036 10.2006634,6.65525395 C10.4545,6.92875753 10.43827,7.33804304 10.1636591,7.59020947 L4.76167993,12.5546552 C4.48771824,12.8074682 4.47018988,13.2161071 4.72402642,13.4896107 C4.97721377,13.7637609 5.3881563,13.7799254 5.66276719,13.527759 L9.98123441,9.55840077 C10.2558453,9.30623434 10.6667878,9.32239885 10.9206244,9.59654902 C11.1731625,9.87005261 11.1569326,10.2786915 10.8823217,10.5315045 L8.50171144,12.7188867 C8.22710055,12.9716997 8.21087059,13.3803386 8.46470714,13.6538422 C8.71789448,13.9279923 9.12818782,13.9441569 9.4034479,13.6919904 L15.9850205,7.66844572 L13.8614928,0.646580583 Z" id="Fill-2610"></path>
                </g>
            </g>
        </g>
    </g>
</svg>