<svg xmlns="http://www.w3.org/2000/svg" width="146" height="41" viewBox="0 0 146 41">
    <g fill="none" fill-rule="evenodd">
        <text fill="#FFF" font-family="HelveticaNeue, Helvetica Neue" font-size="30">
            <tspan x="53" y="32">Paketo</tspan>
        </text>
        <g fill-rule="nonzero">
            <ellipse cx="5.644" cy="22.922" fill="#523D93" rx="1.004" ry="1.011" transform="rotate(-45 5.644 22.922)"/>
            <path fill="#523D93" d="M11.186 11.694a.966.966 0 0 0 1.405 0l1.55-1.56a.966.966 0 0 1 1.405 0 .981.981 0 0 1 0 1.415l-7.802 7.854a.981.981 0 0 0 0 1.415.966.966 0 0 0 1.406 0l6.252-6.295a.966.966 0 0 1 1.406 0 .981.981 0 0 1 0 1.415l-3.442 3.465a.981.981 0 0 0 0 1.415.966.966 0 0 0 1.405 0l1.95-1.964a.896.896 0 0 1 1.263 0l7.342-7.391L21.396 0l-10.21 10.279c-.402.404-.402 1.04 0 1.415z"/>
            <path fill="#41A1FA" d="M27.334 9.413l-9.35 9.441c.43.433.43 1.126 0 1.56l-4.16 4.157a.981.981 0 0 0 0 1.415.966.966 0 0 0 1.406 0l7.343-7.392a.966.966 0 0 1 1.405 0 .981.981 0 0 1 0 1.415l-4.531 4.562a.981.981 0 0 0 0 1.415.966.966 0 0 0 1.405 0l2.954-2.974a.966.966 0 0 1 1.406 0 .981.981 0 0 1 0 1.415l-4.045 4.07a.981.981 0 0 0 0 1.416.966.966 0 0 0 1.406 0l14.284-14.38-9.523-6.12z"/>
            <path fill="#41A1FA" d="M21.397 0l11.415 3.898 4.045 11.665-11.56-4.1z"/>
            <ellipse cx="9.073" cy="13.837" fill="#523D93" rx="1.004" ry="1.011" transform="rotate(-45 9.073 13.837)"/>
            <ellipse cx="6.285" cy="16.647" fill="#523D93" rx="1.004" ry="1.011" transform="rotate(-45 6.285 16.647)"/>
            <ellipse cx="7.052" cy="27.165" fill="#523D93" rx="1.004" ry="1.011" transform="rotate(-45 7.052 27.165)"/>
            <ellipse cx="4.243" cy="29.995" fill="#523D93" rx="1.004" ry="1.011" transform="rotate(-45 4.243 29.995)"/>
            <ellipse cx="1.435" cy="32.826" fill="#523D93" rx="1.004" ry="1.011" transform="rotate(-45 1.435 32.826)"/>
            <ellipse cx="19.076" cy="32.038" fill="#41A1FA" rx="1.004" ry="1.011" transform="rotate(-45 19.076 32.038)"/>
            <ellipse cx="16.267" cy="34.869" fill="#41A1FA" rx="1.004" ry="1.011" transform="rotate(-45 16.267 34.869)"/>
            <ellipse cx="13.459" cy="37.699" fill="#41A1FA" rx="1.004" ry="1.011" transform="rotate(-45 13.459 37.7)"/>
            <ellipse cx="17.356" cy="28.115" fill="#41A1FA" rx="1.004" ry="1.011" transform="rotate(-45 17.356 28.115)"/>
            <ellipse cx="6.102" cy="39.417" fill="#41A1FA" rx="1.004" ry="1.011" transform="rotate(-45 6.102 39.417)"/>
            <path fill="#523D93" d="M24.982 11.463l-.315-.953 11.845 4.071.345.982-.775.75-11.874-4.07zM4.159 18.768c-.373-.376-.918-.376-1.32-.058l-1.548 1.559c-.316.404-.287.953.057 1.328.373.376.918.376 1.32.058l1.548-1.56c.316-.403.316-.952-.057-1.327zM11.96 22.232c-.372-.375-.917-.375-1.319-.057l-1.549 1.559c-.315.404-.287.953.058 1.328.372.375.917.375 1.319.058l1.549-1.56c.315-.404.315-.981-.058-1.328z"/>
            <path fill="#41A1FA" d="M12.42 27.4c-.373-.375-.918-.375-1.32-.057l-1.549 1.56c-.315.403-.287.952.058 1.327.372.376.917.376 1.319.058l1.549-1.56c.344-.374.315-.952-.058-1.327zM8.232 31.645c-.373-.375-.918-.375-1.32-.058l-1.548 1.56c-.316.404-.287.952.057 1.328.373.375.918.375 1.32.057l1.548-1.559a1.016 1.016 0 0 0-.057-1.328zM4.016 35.89c-.373-.376-.918-.376-1.32-.058L1.147 37.39c-.315.404-.287.953.058 1.328.344.375.917.375 1.319.058l1.549-1.56a1.016 1.016 0 0 0-.057-1.328zM15.23 30.23c-.373-.375-.918-.375-1.32-.057l-1.548 1.559c-.315.404-.287.953.057 1.328.373.375.918.375 1.32.058l1.549-1.56c.344-.375.315-.952-.058-1.328zM11.014 34.475c-.373-.376-.918-.376-1.32-.058l-1.548 1.56c-.316.403-.287.952.057 1.327.373.376.918.376 1.32.058l1.548-1.56c.345-.403.316-.952-.057-1.327z"/>
        </g>
    </g>
</svg>
