<svg xmlns="http://www.w3.org/2000/svg" width="104" height="24" viewBox="0 0 104 24">
    <g fill="none" fill-rule="evenodd">
        <text fill="#FFF" font-family="HelveticaNeue, Helvetica Neue" font-size="24" transform="translate(0 -2)">
            <tspan x="30" y="23">Paketo</tspan>
        </text>
        <g fill-rule="nonzero">
            <ellipse cx="3.356" cy="13.418" fill="#523D93" rx="1" ry="1" transform="rotate(-45 3.356 13.418)"/>
            <path fill="#523D93" d="M6.651 6.845a.58.58 0 0 0 .836 0l.92-.913a.58.58 0 0 1 .836 0 .568.568 0 0 1 0 .829l-4.638 4.597a.568.568 0 0 0 0 .828.58.58 0 0 0 .835 0L9.158 8.5a.58.58 0 0 1 .836 0 .568.568 0 0 1 0 .829l-2.047 2.028a.568.568 0 0 0 0 .828.58.58 0 0 0 .836 0l1.16-1.15a.539.539 0 0 1 .75 0l4.366-4.326L12.722 0l-6.07 6.017a.568.568 0 0 0 0 .828z"/>
            <path fill="#41A1FA" d="M16.253 5.51l-5.56 5.527a.639.639 0 0 1 0 .912L8.22 14.383a.568.568 0 0 0 0 .828.58.58 0 0 0 .836 0l4.366-4.326a.58.58 0 0 1 .835 0 .568.568 0 0 1 0 .828l-2.694 2.67a.568.568 0 0 0 0 .828.58.58 0 0 0 .835 0l1.757-1.74a.58.58 0 0 1 .836 0 .568.568 0 0 1 0 .828l-2.405 2.383a.568.568 0 0 0 0 .828.58.58 0 0 0 .836 0l8.493-8.417-5.662-3.583z"/>
            <path fill="#41A1FA" d="M12.722 0l6.788 2.282 2.405 6.828-6.873-2.4z"/>
            <ellipse cx="5.395" cy="8.1" fill="#523D93" rx="1" ry="1" transform="rotate(-45 5.395 8.1)"/>
            <ellipse cx="3.737" cy="9.745" fill="#523D93" rx="1" ry="1" transform="rotate(-45 3.737 9.745)"/>
            <ellipse cx="4.193" cy="15.901" fill="#523D93" rx="1" ry="1" transform="rotate(-45 4.193 15.901)"/>
            <ellipse cx="2.523" cy="17.558" fill="#523D93" rx="1" ry="1" transform="rotate(-45 2.523 17.558)"/>
            <ellipse cx=".853" cy="19.215" fill="#523D93" rx="1" ry="1" transform="rotate(-45 .853 19.215)"/>
            <ellipse cx="11.342" cy="18.754" fill="#41A1FA" rx="1" ry="1" transform="rotate(-45 11.342 18.754)"/>
            <ellipse cx="9.672" cy="20.411" fill="#41A1FA" rx="1" ry="1" transform="rotate(-45 9.672 20.411)"/>
            <ellipse cx="8.003" cy="22.068" fill="#41A1FA" rx="1" ry="1" transform="rotate(-45 8.003 22.068)"/>
            <ellipse cx="10.32" cy="16.458" fill="#41A1FA" rx="1" ry="1" transform="rotate(-45 10.32 16.458)"/>
            <ellipse cx="3.628" cy="23.073" fill="#41A1FA" rx="1" ry="1" transform="rotate(-45 3.628 23.073)"/>
            <path fill="#523D93" d="M14.854 6.71l-.187-.558 7.043 2.383.205.575-.46.44-7.061-2.384zM2.473 10.986c-.222-.22-.546-.22-.785-.034l-.92.913a.588.588 0 0 0 .034.777c.221.22.545.22.784.034l.921-.913c.188-.236.188-.557-.034-.777zM7.112 13.014c-.222-.22-.546-.22-.785-.034l-.92.913a.588.588 0 0 0 .033.777c.222.22.546.22.785.034l.92-.912c.188-.237.188-.575-.033-.778z"/>
            <path fill="#41A1FA" d="M7.384 16.04c-.221-.22-.545-.22-.784-.034l-.92.912a.588.588 0 0 0 .033.778c.222.22.546.22.785.034l.92-.913c.205-.22.188-.558-.034-.778zM4.895 18.524c-.222-.22-.546-.22-.785-.034l-.92.913a.588.588 0 0 0 .033.777c.222.22.546.22.785.034l.92-.913a.588.588 0 0 0-.033-.777zM2.388 21.008c-.222-.22-.546-.22-.785-.033l-.92.912a.588.588 0 0 0 .033.778c.205.22.546.22.785.034l.92-.913a.588.588 0 0 0-.033-.778zM9.056 17.696c-.222-.22-.546-.22-.785-.034l-.92.913a.588.588 0 0 0 .033.777c.222.22.546.22.785.034l.92-.913c.206-.22.189-.558-.033-.777zM6.549 20.18c-.222-.22-.546-.22-.785-.034l-.92.913a.588.588 0 0 0 .034.778c.221.22.545.22.784.033l.92-.912a.553.553 0 0 0-.033-.778z"/>
        </g>
    </g>
</svg>
