<svg xmlns="http://www.w3.org/2000/svg" width="16" height="29" viewBox="0 0 16 29">
    <g fill="#FFF" fill-rule="nonzero">
        <path d="M12.837 1.197H4.12a.992.992 0 0 0-.274-.704A.945.945 0 0 0 3.163.2H1.165a.945.945 0 0 0-.682.284.992.992 0 0 0-.283.696v2.046c0 .262.102.512.283.696a.945.945 0 0 0 .682.284h1.998a.945.945 0 0 0 .676-.287.992.992 0 0 0 .28-.693h8.718c.266-.01.524.091.717.279.192.187.303.446.308.718v9.971c0 .56-.444 1.015-.99 1.015H8.037a.993.993 0 0 0-.27-.719.945.945 0 0 0-.694-.296h-1.99a.968.968 0 0 0-.956.98v2.046c0 .541.428.98.956.98h1.99a.945.945 0 0 0 .676-.287.992.992 0 0 0 .28-.693h4.807c1.633 0 2.958-1.353 2.963-3.026v-9.97c-.005-1.673-1.33-3.027-2.963-3.027z"/>
        <path d="M14.843 24.392h-1.999a.969.969 0 0 0-.957.98H3.165c-.541 0-.982-.443-.991-.997V11.407c0-.56.443-1.015.99-1.015h4.802c0 .542.428.98.957.98h1.999a.969.969 0 0 0 .957-.98v-2.03a.968.968 0 0 0-.957-.962h-2a.968.968 0 0 0-.956.962H3.165a2.93 2.93 0 0 0-2.1.893A3.074 3.074 0 0 0 .2 11.407v12.968c0 1.677 1.327 3.036 2.965 3.036h8.714a.992.992 0 0 0 .28.702c.181.186.428.29.685.287h2a.969.969 0 0 0 .956-.98v-2.048a.969.969 0 0 0-.957-.98z"/>
    </g>
</svg>
