<svg xmlns="http://www.w3.org/2000/svg" width="31" height="42" viewBox="0 0 31 42">
    <path fill="#FFF" fill-rule="nonzero" d="M20.347 41.497c-.444 0-.868-.256-1.068-.69-.19-.41-1.12-3.02-.826-14.207a1.189 1.189 0 0 1 1.167-1.167c.045 0 4.719-.097 4.719-2.725-.004-.08-.142-2.124-4.752-2.124-1.043 0-1.947.956-2.015 2.13l-.284 4.922a1.288 1.288 0 0 1-.028.201 2.036 2.036 0 0 1-1.984 1.605c-.966 0-1.784-.67-1.99-1.63a1.285 1.285 0 0 1-.026-.196l-.242-4.884c-.06-1.184-.963-2.148-2.015-2.148-3.78 0-4.593 1.818-4.734 2.258.158 2.473 4.669 2.59 4.715 2.59a1.19 1.19 0 0 1 1.167 1.168c.294 11.187-.637 13.797-.826 14.208-.27.586-.947.849-1.533.59C-.311 36.969.109 29.439.132 29.12c.018-.245.11-.48.262-.67C3.52 24.545.249 16.244.216 16.16a1.216 1.216 0 0 1-.087-.453C.13 7.223 6.888.292 15.213.214h.183c8.328.085 15.08 7.013 15.08 15.493 0 .155-.03.31-.087.453-.033.084-3.304 8.386-.177 12.29.153.19.245.425.262.67.023.318.442 7.848-9.66 12.279a1.18 1.18 0 0 1-.467.098zM2.484 29.616c.052 1.237.688 5.713 6.956 8.966.225-1.501.502-4.66.378-10.83-2.164-.27-5-1.276-5.733-3.757-.039 1.996-.46 4.002-1.601 5.621zm18.301-1.864c-.123 6.154.152 9.312.381 10.829 6.256-3.248 6.9-7.716 6.952-8.966-1.137-1.614-1.559-3.612-1.6-5.601-.731 2.465-3.568 3.468-5.733 3.738zM2.488 15.484c.307.815 1.265 3.56 1.531 6.647.336-1.057 1.736-3.947 6.984-3.947 2.114 0 3.892 1.605 4.292 3.76.403-2.153 2.186-3.76 4.292-3.76 2.74 0 4.749.646 5.97 1.92a4.11 4.11 0 0 1 1.042 1.868c.285-3.022 1.216-5.687 1.517-6.488-.118-7.092-5.823-12.845-12.818-12.87-6.988.024-12.693 5.778-12.81 12.87z"/>
</svg>
