<svg xmlns="http://www.w3.org/2000/svg" xmlns:xlink="http://www.w3.org/1999/xlink" width="395" height="450" viewBox="0 0 395 450">
    <defs>
        <rect id="a" width="415" height="450" rx="6"/>
    </defs>
    <g fill="none" fill-rule="evenodd" transform="translate(-20)">
        <mask id="b" fill="#fff">
            <use xlink:href="#a"/>
        </mask>
        <g fill-rule="nonzero" stroke="#FFF" stroke-width="10" mask="url(#b)" opacity=".16">
            <g transform="translate(0 -77)">
                <ellipse cx="130" cy="528.5" rx="23" ry="23.5" transform="rotate(-45 130 528.5)"/>
                <path d="M259.442 269.077c9.273 9.302 23.184 9.302 32.457 0l35.769-35.877c9.273-9.301 23.184-9.301 32.457 0 9.274 9.302 9.274 23.254 0 32.555L179.955 446.47c-9.273 9.301-9.273 23.253 0 32.555 9.274 9.301 23.184 9.301 32.457 0l144.401-144.837c9.274-9.301 23.184-9.301 32.457 0 9.274 9.302 9.274 23.254 0 32.555l-79.487 79.727c-9.273 9.301-9.273 23.253 0 32.555 9.274 9.301 23.184 9.301 32.458 0l45.042-45.178c7.949-7.973 21.197-7.973 29.145 0L586 263.762 495.253 0 259.442 236.522c-9.274 9.302-9.274 23.918 0 32.555zM632.619 217L416.22 434.849a25.397 25.397 0 0 1 0 35.975l-96.251 95.933c-9.293 9.327-9.293 23.317 0 32.644 9.293 9.327 23.233 9.327 32.526 0l169.932-170.548c9.294-9.327 23.233-9.327 32.527 0 9.293 9.327 9.293 23.317 0 32.644l-104.88 105.26c-9.294 9.327-9.294 23.317 0 32.644 9.293 9.327 23.232 9.327 32.525 0l68.372-68.619c9.293-9.327 23.233-9.327 32.526 0 9.293 9.327 9.293 23.317 0 32.644l-93.596 93.935c-9.293 9.327-9.293 23.317 0 32.644 9.293 9.327 23.233 9.327 32.526 0L853 358.235 632.619 217z"/>
                <ellipse cx="209" cy="318.5" rx="23" ry="23.5" transform="rotate(-45 209 318.5)"/>
                <ellipse cx="145" cy="384.5" rx="23" ry="23.5" transform="rotate(-45 145 384.5)"/>
                <path d="M96.361 432.619c-8.616-8.591-21.21-8.591-30.49-1.322l-35.793 35.686c-7.29 9.251-6.628 21.807 1.326 30.398 8.617 8.591 21.21 8.591 30.49 1.322l35.793-35.686c7.291-9.251 7.291-21.807-1.326-30.398zM276.361 512.619c-8.616-8.591-21.21-8.591-30.49-1.322l-35.793 35.686c-7.29 9.251-6.628 21.807 1.326 30.398 8.617 8.591 21.21 8.591 30.49 1.322l35.793-35.686c7.291-9.251 7.291-22.468-1.326-30.398z"/>
            </g>
        </g>
    </g>
</svg>
