<svg xmlns="http://www.w3.org/2000/svg" width="49" height="18" viewBox="0 0 49 18">
    <g fill="#FFF" fill-rule="nonzero" transform="translate(.8 1)">
        <path stroke="#FFF" d="M46.777.316a.44.44 0 0 0-.562-.292c-1.401.486-4.486 4.108-5.283 5.065a322.914 322.914 0 0 1-4.654-.598c-4.51-.602-9.157-1.215-13.804-1.235-.162-.615.802-1.781 1.55-2.414a.473.473 0 0 0 .135-.525.437.437 0 0 0-.438-.295c-3.178.177-4.785 2.602-5.162 3.255-.59.253-1.324.682-2.097 1.135-.952.558-1.937 1.135-2.546 1.303-.945.263-11.374 1.207-13.465 1.207a.453.453 0 0 0-.445.462c0 .256.199.463.445.463.781 0 12.464-.898 13.694-1.239.718-.199 1.753-.805 2.753-1.39l.345-.202.824-.468a8.8 8.8 0 0 1 .957-.468.454.454 0 0 0 .237-.218c.048-.094 1.024-1.971 3.165-2.669-.477.596-.911 1.356-.845 2.07-.237.003.727 0 .49.006a.455.455 0 0 0-.433.474c.007.256.23.455.457.45 5.109-.142 9.074.548 14.07 1.215 1.606.214 3.266.436 4.902.626a.438.438 0 0 0 .387-.159 52.67 52.67 0 0 1 2.127-2.42c-.766 1.601-1.086 3.48-.106 4.873.228.324.496.585.755.838.101.098.202.197.3.299a.435.435 0 0 0 .629 0 .476.476 0 0 0 0-.654 15.625 15.625 0 0 0-.32-.32c-.24-.234-.467-.454-.646-.708-.958-1.36-.179-3.525.78-4.965l.113-.173c.875-1.339 1.25-1.688 1.41-1.744a.466.466 0 0 0 .281-.585zM46.443 14.382c-.853-.183-3.887-3.193-4.993-4.436-.443-.499-1.439-.366-2.509-.171-.135.024-.248.045-.325.055-1.52.195-3.01.473-4.531.765-.452.086-.9.174-1.348.262-2.879.566-5.598 1.1-8.52 1.136-.477.006-.97.025-1.471.045-1.536.058-3.124.122-4.525-.19-1.422-.315-4.972-1.683-5.007-1.697a.451.451 0 0 0-.325.841c.148.057 3.648 1.406 5.137 1.737.545.12 1.107.188 1.678.225.313.339 2.163 2.291 3.437 2.63a.45.45 0 0 0 .233-.87c-.648-.173-1.655-1.036-2.37-1.726.593-.003 1.189-.026 1.777-.05.493-.019.978-.038 1.448-.043 1.923-.025 3.746-.257 5.575-.57.293.25 1.831 1.553 3.113 2.457a.45.45 0 1 0 .52-.737c-.853-.601-1.85-1.408-2.477-1.927.645-.12 1.294-.247 1.951-.376.446-.088.894-.176 1.344-.262 1.507-.289 2.982-.564 4.475-.756.09-.011.219-.035.373-.063.962-.175 1.529-.21 1.673-.117.038.044 4.014 4.406 5.479 4.719a.45.45 0 0 0 .189-.881z"/>
        <circle cx="19.2" cy="7.8" r="1.2"/>
    </g>
</svg>
