<?xml version="1.0" encoding="UTF-8"?>
<svg width="88px" height="88px" viewBox="0 0 88 88" version="1.1" xmlns="http://www.w3.org/2000/svg" xmlns:xlink="http://www.w3.org/1999/xlink">
    <!-- Generator: sketchtool 50.2 (55047) - http://www.bohemiancoding.com/sketch -->
    <title>EC80C829-EC10-4296-9A58-5D0F61DE4399</title>
    <desc>Created with sketchtool.</desc>
    <defs>
        <rect id="path-1" x="0" y="0" width="80" height="80"></rect>
        <filter x="-6.9%" y="-6.9%" width="116.2%" height="116.2%" filterUnits="objectBoundingBox" id="filter-2">
            <feOffset dx="1" dy="1" in="SourceAlpha" result="shadowOffsetOuter1"></feOffset>
            <feGaussianBlur stdDeviation="2" in="shadowOffsetOuter1" result="shadowBlurOuter1"></feGaussianBlur>
            <feComposite in="shadowBlurOuter1" in2="SourceAlpha" operator="out" result="shadowBlurOuter1"></feComposite>
            <feColorMatrix values="0 0 0 0 0   0 0 0 0 0   0 0 0 0 0  0 0 0 0.15 0" type="matrix" in="shadowBlurOuter1"></feColorMatrix>
        </filter>
        <path d="M1.99269442,3.69979348 C1.04128211,-3.79080962 28.5206999,2.15489301 30.1205375,3.69979348 C31.7203752,5.24469395 33.5566093,9.92517637 32.6126884,15.4305491 C31.6687675,20.9359218 32.6126884,29.1898189 30.1205375,31.8276366 C27.6283867,34.4654543 6.91872944,31.8276366 1.99269442,31.8276366 C-2.93334061,31.8276366 2.94410672,11.1903966 1.99269442,3.69979348 Z" id="path-3"></path>
    </defs>
    <g id="Paketo-Website-Design" stroke="none" stroke-width="1" fill="none" fill-rule="evenodd">
        <g id="Landing-page-Hercules-Mobile" transform="translate(-59.000000, -2849.000000)">
            <g id="Group-19-Copy-2" transform="translate(62.000000, 2852.000000)">
                <g id="Rectangle-7-Copy-13">
                    <use fill="black" fill-opacity="1" filter="url(#filter-2)" xlink:href="#path-1"></use>
                    <rect stroke="#E0E0E0" stroke-width="1" stroke-linejoin="square" fill="#FFFFFF" fill-rule="evenodd" x="0.5" y="0.5" width="79" height="79"></rect>
                </g>
                <g id="Group-5" transform="translate(4.000000, 8.000000)">
                    <text id="Application-Moderniz" font-family="Roboto-Medium, Roboto" font-size="6" font-weight="400" line-spacing="11" fill="#393939">
                        <tspan x="21.6540746" y="6.67479675">Application </tspan>
                        <tspan x="17.4953832" y="17.6747967">Modernization</tspan>
                    </text>
                    <g id="Group-54-Copy" transform="translate(15.299630, 30.674797)">
                        <g id="pattern/cube" transform="translate(5.145302, 0.000000)">
                            <g id="color/light-Purple">
                                <mask id="mask-4" fill="white">
                                    <use xlink:href="#path-3"></use>
                                </mask>
                                <use id="Mask" fill="#CCBFF6" xlink:href="#path-3"></use>
                                <g mask="url(#mask-4)" fill="#CCBFF6" id="Rectangle">
                                    <g transform="translate(-0.846154, -0.846154)">
                                        <rect x="0" y="0" width="36" height="36"></rect>
                                    </g>
                                </g>
                            </g>
                        </g>
                        <g id="Group-23" transform="translate(0.000000, 2.513666)" fill="#000000" fill-rule="nonzero">
                            <g id="Group">
                                <path d="M3.7732218,19.6851491 C1.74628447,19.6851491 0.0779591281,18.0198451 0.0779591281,15.9617809 C0.0779591281,13.9037166 1.73069264,12.2384127 3.7732218,12.2384127 C5.81575096,12.2384127 7.46848447,13.9037166 7.46848447,15.9617809 C7.46848447,18.0198451 5.81575096,19.6851491 3.7732218,19.6851491 Z M3.7732218,13.3538521 C2.33877384,13.3538521 1.16938692,14.5321332 1.16938692,15.9774913 C1.16938692,17.4228494 2.33877384,18.6011305 3.7732218,18.6011305 C5.20766976,18.6011305 6.37705668,17.4228494 6.37705668,15.9774913 C6.37705668,14.5321332 5.20766976,13.3538521 3.7732218,13.3538521 Z" id="Shape"></path>
                                <ellipse id="Oval" cx="7.81150464" cy="3.51913279" rx="1" ry="1"></ellipse>
                                <ellipse id="Oval" cx="10.5556659" cy="3.51913279" rx="1" ry="1"></ellipse>
                                <ellipse id="Oval" cx="13.3154191" cy="3.51913279" rx="1" ry="1"></ellipse>
                                <path d="M12.9412153,16.4016725 L7.32815804,16.4016725 C7.03191336,16.4016725 6.78244415,16.1503058 6.78244415,15.851808 C6.78244415,15.5533101 7.03191336,15.3019435 7.32815804,15.3019435 L12.9412153,15.3019435 C13.23746,15.3019435 13.4869292,15.5533101 13.4869292,15.851808 C13.4869292,16.1503058 13.23746,16.4016725 12.9412153,16.4016725 Z" id="Shape"></path>
                                <path d="M21.5634948,19.6851491 C19.5365575,19.6851491 17.8682322,18.0198451 17.8682322,15.9617809 C17.8682322,13.9037166 19.5209657,12.2384127 21.5634948,12.2384127 C23.606024,12.2384127 25.2587575,13.9037166 25.2587575,15.9617809 C25.2587575,18.0198451 23.606024,19.6851491 21.5634948,19.6851491 Z M21.5634948,13.3538521 C20.1290469,13.3538521 18.95966,14.5321332 18.95966,15.9774913 C18.95966,17.4228494 20.1290469,18.6011305 21.5634948,18.6011305 C22.9979428,18.6011305 24.1673297,17.4228494 24.1673297,15.9774913 C24.1673297,14.5321332 22.9979428,13.3538521 21.5634948,13.3538521 Z" id="Shape"></path>
                                <path d="M30.3416927,16.4016725 L25.040472,16.4016725 C24.7442273,16.4016725 24.4947581,16.1503058 24.4947581,15.851808 C24.4947581,15.5533101 24.7442273,15.3019435 25.040472,15.3019435 L30.3416927,15.3019435 C30.6379374,15.3019435 30.8874066,15.5533101 30.8874066,15.851808 C30.8874066,16.1503058 30.6379374,16.4016725 30.3416927,16.4016725 Z" id="Shape"></path>
                                <path d="M28.1744289,18.96247 C28.0185107,18.96247 27.8781842,18.8996283 27.7690414,18.773945 C27.5663477,18.5539992 27.5819395,18.1926597 27.8158169,18.0041347 L30.1078153,15.93036 L27.9561433,13.9508479 C27.7378578,13.7466125 27.722266,13.4009834 27.9249597,13.1810376 C28.1276534,12.9610918 28.4706736,12.9453813 28.6889592,13.1496167 L31.2772022,15.5375997 C31.386345,15.6475726 31.4487123,15.7889663 31.4487123,15.9460705 C31.4487123,16.1031746 31.386345,16.2445683 31.2616104,16.3545412 L28.5174491,18.8367867 C28.4394899,18.9153388 28.3147553,18.96247 28.1744289,18.96247 Z" id="Shape"></path>
                                <path d="M11.179339,18.96247 C11.0234207,18.96247 10.8830943,18.8996283 10.7739515,18.773945 C10.5712578,18.5539992 10.5868496,18.1926597 10.820727,18.0041347 L13.1127254,15.93036 L10.9610534,13.9508479 C10.7427679,13.7466125 10.727176,13.4009834 10.9298698,13.1810376 C11.1325635,12.9610918 11.4755837,12.9453813 11.6938692,13.1496167 L14.2821123,15.5375997 C14.3912551,15.6475726 14.4536224,15.7889663 14.4536224,15.9460705 C14.4536224,16.1031746 14.3912551,16.2445683 14.2665204,16.3545412 L11.5223591,18.8367867 C11.4444,18.9153388 11.3196654,18.96247 11.179339,18.96247 Z" id="Shape"></path>
                                <path d="M39.4629107,19.6851491 C37.4359733,19.6851491 35.767648,18.0198451 35.767648,15.9617809 C35.767648,13.9037166 37.4203815,12.2541231 39.4629107,12.2541231 C41.5054398,12.2541231 43.1581733,13.919427 43.1581733,15.9774913 C43.1581733,18.0355556 41.489848,19.6851491 39.4629107,19.6851491 Z M39.4629107,13.3538521 C38.0284627,13.3538521 36.8590758,14.5321332 36.8590758,15.9774913 C36.8590758,17.4228494 38.0284627,18.6011305 39.4629107,18.6011305 C40.8973586,18.6011305 42.0667455,17.4228494 42.0667455,15.9774913 C42.0667455,14.5321332 40.8817668,13.3538521 39.4629107,13.3538521 Z" id="Shape"></path>
                                <path d="M36.3133619,27.9016957 L7.14105614,27.9016957 C5.02056785,27.9016957 3.28987521,26.1578397 3.28987521,24.0212234 L3.28987521,3.99044522 C3.28987521,1.85382888 5.02056785,0.1099729 7.14105614,0.1099729 L36.3133619,0.1099729 C38.4338502,0.1099729 40.1645428,1.85382888 40.1645428,3.99044522 L40.1645428,24.0212234 C40.1645428,26.1578397 38.4338502,27.9016957 36.3133619,27.9016957 Z M7.14105614,1.2097019 C5.61305723,1.2097019 4.381303,2.45082462 4.381303,3.99044522 L4.381303,24.0212234 C4.381303,25.560844 5.61305723,26.8019667 7.14105614,26.8019667 L36.3133619,26.8019667 C37.8413608,26.8019667 39.073115,25.560844 39.073115,24.0212234 L39.073115,3.99044522 C39.073115,2.45082462 37.8413608,1.2097019 36.3133619,1.2097019 L7.14105614,1.2097019 Z" id="Shape"></path>
                                <path d="M39.6188289,6.6140844 L3.85118093,6.6140844 C3.55493624,6.6140844 3.30546703,6.36271777 3.30546703,6.0642199 C3.30546703,5.76572203 3.55493624,5.5143554 3.85118093,5.5143554 L39.6188289,5.5143554 C39.9150736,5.5143554 40.1645428,5.76572203 40.1645428,6.0642199 C40.1645428,6.36271777 39.9150736,6.6140844 39.6188289,6.6140844 Z" id="Shape"></path>
                            </g>
                        </g>
                    </g>
                </g>
            </g>
        </g>
    </g>
</svg>