<?xml version="1.0" encoding="UTF-8"?>
<svg width="88px" height="88px" viewBox="0 0 88 88" version="1.1" xmlns="http://www.w3.org/2000/svg" xmlns:xlink="http://www.w3.org/1999/xlink">
    <!-- Generator: sketchtool 50.2 (55047) - http://www.bohemiancoding.com/sketch -->
    <title>62DBDD32-441B-4A42-9AB4-926EF00B4415</title>
    <desc>Created with sketchtool.</desc>
    <defs>
        <rect id="path-1" x="0" y="0" width="80" height="80"></rect>
        <filter x="-6.9%" y="-6.9%" width="116.2%" height="116.2%" filterUnits="objectBoundingBox" id="filter-2">
            <feOffset dx="1" dy="1" in="SourceAlpha" result="shadowOffsetOuter1"></feOffset>
            <feGaussianBlur stdDeviation="2" in="shadowOffsetOuter1" result="shadowBlurOuter1"></feGaussianBlur>
            <feComposite in="shadowBlurOuter1" in2="SourceAlpha" operator="out" result="shadowBlurOuter1"></feComposite>
            <feColorMatrix values="0 0 0 0 0   0 0 0 0 0   0 0 0 0 0  0 0 0 0.15 0" type="matrix" in="shadowBlurOuter1"></feColorMatrix>
        </filter>
        <path d="M1.63038634,3.13921871 C0.851958091,-3.21644453 23.3351181,1.82839407 24.6440762,3.13921871 C25.9530342,4.45004336 27.4554076,8.42136177 26.6831087,13.0925871 C25.9108098,17.7638124 26.6831087,24.7671191 24.6440762,27.0052674 C22.6050436,29.2434157 5.66077863,27.0052674 1.63038634,27.0052674 C-2.40000595,27.0052674 2.40881459,9.49488195 1.63038634,3.13921871 Z" id="path-3"></path>
    </defs>
    <g id="Paketo-Website-Design" stroke="none" stroke-width="1" fill="none" fill-rule="evenodd">
        <g id="Landing-page-Hercules-Mobile" transform="translate(-175.000000, -2953.000000)">
            <g id="Group-14-Copy-2" transform="translate(178.000000, 2956.000000)">
                <g id="Rectangle-7-Copy-12">
                    <use fill="black" fill-opacity="1" filter="url(#filter-2)" xlink:href="#path-1"></use>
                    <rect stroke="#E0E0E0" stroke-width="1" stroke-linejoin="square" fill="#FFFFFF" fill-rule="evenodd" x="0.5" y="0.5" width="79" height="79"></rect>
                </g>
                <text id="Cloud-Native-Applica" font-family="Roboto-Medium, Roboto" font-size="6" font-weight="400" line-spacing="11" fill="#393939">
                    <tspan x="7.125" y="15">Cloud-Native Application </tspan>
                    <tspan x="22.7871094" y="26">Development</tspan>
                </text>
                <g id="Group-52-Copy" transform="translate(27.164697, 37.000000)">
                    <g id="pattern/cube" transform="translate(2.993061, 0.786100)">
                        <g id="color/light-Purple">
                            <mask id="mask-4" fill="white">
                                <use xlink:href="#path-3"></use>
                            </mask>
                            <use id="Mask" fill="#CCBFF6" xlink:href="#path-3"></use>
                            <g mask="url(#mask-4)" fill="#CCBFF6" id="Rectangle">
                                <g transform="translate(-0.692308, -0.717949)">
                                    <rect x="0" y="0" width="29" height="31"></rect>
                                </g>
                            </g>
                        </g>
                    </g>
                    <g id="Group-24" fill="#000000" fill-rule="nonzero">
                        <g id="Group">
                            <path d="M21.8363343,21.0805903 C21.4589483,21.0805903 21.0815623,21.0674887 20.7041763,21.054387 C20.5480166,21.0412853 20.3918569,21.0412853 20.2356972,21.0412853 C19.9884443,21.0281837 19.7932446,20.8185569 19.7932446,20.5696251 C19.8062579,20.3206934 20.0144709,20.1241683 20.2617238,20.1241683 C20.4178835,20.1241683 20.5740432,20.13727 20.730203,20.13727 C21.5240149,20.176575 22.3308401,20.2027783 23.0856121,20.0717616 C26.0266202,19.5476947 27.9265634,17.8706807 28.7333887,15.0931262 C29.5532272,12.2500634 28.9025617,9.76074569 26.7683788,7.70378317 C25.349928,6.34120928 23.5671046,5.69922735 21.4589483,5.83024407 C20.8082828,5.86954908 20.3788436,5.63371899 20.0274842,5.03104207 C18.1926075,1.95214914 15.4988523,0.602676915 12.0112852,0.995727077 C8.48467817,1.38877724 5.34847044,4.57248355 5.02313769,8.09683333 C4.97108445,8.72571359 4.71081825,9.09256041 4.13823261,9.3807972 C2.27732926,10.3110159 1.24927777,11.8308099 0.975998256,14.0318908 C0.949971636,14.2808225 0.715732054,14.464246 0.468479163,14.4380426 C0.221226271,14.4118393 0.0390399302,14.1760092 0.0650665504,13.9270774 C0.364372682,11.424658 1.60063714,9.62972897 3.72180668,8.56849353 C4.0080995,8.42437514 4.07316606,8.33266343 4.09919268,8.0182233 C4.46356536,4.08772168 7.96414577,0.537168555 11.8941654,0.0917117044 C15.7591185,-0.340643474 18.7521798,1.16604881 20.7822562,4.57248355 C20.9774559,4.90002535 21.0945756,4.95243204 21.3808685,4.93933037 C23.7492909,4.79521198 25.766354,5.51580394 27.3800044,7.06180124 C29.7354135,9.34149218 30.5031988,12.2107584 29.5792538,15.3682613 C28.6813354,18.4602559 26.482086,20.4124051 23.2157452,20.9888786 C22.786306,21.054387 22.3178268,21.0805903 21.8363343,21.0805903 Z" id="Shape"></path>
                            <path d="M7.39156013,27.7755448 C5.82996292,27.7755448 4.2553524,27.7755448 2.68074188,27.7755448 C1.71775693,27.7755448 1.37941087,27.4217996 1.37941087,26.4129709 C1.37941087,23.2554679 1.37941087,20.0848633 1.37941087,16.9273603 C1.37941087,15.8923282 1.71775693,15.5647864 2.74580843,15.5647864 C5.86900285,15.5647864 8.97918396,15.5647864 12.1023784,15.5647864 C13.1954964,15.5647864 13.4687759,15.8530232 13.4687759,16.979767 C13.4687759,18.0934091 13.4687759,19.2070512 13.4687759,20.3206934 L13.4687759,21.6832673 L13.4687759,23.0720445 C13.4687759,24.1856866 13.4687759,25.2862271 13.4687759,26.3998692 C13.4687759,27.5397147 12.9482435,27.7755448 12.1674449,27.7755448 C10.5928344,27.7755448 8.99219727,27.7755448 7.39156013,27.7755448 Z M2.3293825,26.8191227 C2.35540912,26.8322244 2.4465023,26.8453261 2.68074188,26.8453261 C5.86900285,26.8584277 9.07027713,26.8584277 12.1674449,26.8453261 C12.4146978,26.8453261 12.4927777,26.8191227 12.5188043,26.806021 C12.5318176,26.7798177 12.5578442,26.688106 12.5578442,26.3867675 C12.5578442,25.2731254 12.5578442,24.172585 12.5578442,23.0589428 L12.5578442,21.6701656 L13.0133101,21.6701656 L12.5578442,21.6701656 L12.5578442,20.3075917 C12.5578442,19.1939496 12.5578442,18.0803074 12.5578442,16.9666653 C12.5578442,16.7308352 12.5448309,16.5605135 12.5318176,16.4950051 C12.4797644,16.4819035 12.3496313,16.4688018 12.1023784,16.4688018 C8.97918396,16.4688018 5.86900285,16.4688018 2.74580843,16.4688018 C2.47252892,16.4688018 2.35540912,16.4950051 2.31636919,16.5081068 C2.30335588,16.5474118 2.29034257,16.6522252 2.29034257,16.9142586 C2.29034257,20.0717616 2.29034257,23.2423662 2.29034257,26.3998692 C2.29034257,26.688106 2.31636919,26.7798177 2.3293825,26.8191227 Z" id="Shape"></path>
                            <path d="M16.5529304,21.2378104 C16.5529304,21.2378104 16.5529304,21.2378104 16.5529304,21.2378104 C16.2926642,21.2378104 16.0974646,21.0281837 16.0974646,20.7792519 C16.1234912,18.4471543 16.1104779,16.0757516 16.1104779,13.782959 L16.1104779,13.062367 C16.1104779,12.983757 16.0974646,12.944452 16.0974646,12.944452 C16.0974646,12.944452 16.0584246,12.9313503 15.9803448,12.9313503 C15.9803448,12.9313503 15.9673315,12.9313503 15.9673315,12.9313503 C15.5769322,12.9313503 15.1735196,12.9313503 14.7961336,12.9313503 C14.184508,12.9313503 13.5728824,12.9313503 12.9612568,12.9313503 C11.4777395,12.9313503 9.9421689,12.9313503 8.43262493,12.9575537 C8.18537204,12.9706553 7.97715908,12.7610286 7.96414577,12.5120968 C7.95113246,12.2631651 8.15934542,12.0535383 8.40659831,12.0404366 C9.92915559,12.0142333 11.4647262,12.0142333 12.9612568,12.0142333 C13.5728824,12.0142333 14.184508,12.0142333 14.7961336,12.0142333 C15.1735196,12.0142333 15.5639189,12.0142333 15.9543182,12.0142333 C16.2796509,12.0142333 16.5529304,12.105945 16.7351168,12.2893684 C16.9303164,12.4727918 17.0214096,12.7348252 17.0214096,13.062367 L17.0214096,13.782959 C17.0214096,16.0757516 17.0344229,18.4471543 17.0083963,20.7923536 C17.0083963,21.0412853 16.8001833,21.2378104 16.5529304,21.2378104 Z" id="Shape"></path>
                            <path d="M19.3117522,16.0888533 C19.3117522,16.0888533 19.3117522,16.0888533 19.3117522,16.0888533 C19.051486,16.0888533 18.8562863,15.8792265 18.8562863,15.6171931 C18.8823129,14.1105008 18.8823129,12.5776052 18.8823129,11.0971162 L18.8823129,10.2586092 C18.8823129,10.1013892 18.8562863,10.0489825 18.843273,10.0489825 C18.843273,10.0489825 18.8042331,10.0358808 18.7261532,10.0358808 C18.7261532,10.0358808 18.7261532,10.0358808 18.7261532,10.0358808 C18.2316474,10.0358808 17.750155,10.0358808 17.2556492,10.0358808 C15.9282915,10.0358808 14.5488807,10.0358808 13.2085097,10.0620841 C13.2085097,10.0620841 13.2085097,10.0620841 13.1954964,10.0620841 C12.9482435,10.0620841 12.7400306,9.86555906 12.7400306,9.61662729 C12.7400306,9.36769552 12.9352302,9.15806877 13.1824831,9.1449671 C14.5358674,9.11876376 15.9152782,9.11876376 17.2556492,9.11876376 C17.750155,9.11876376 18.2316474,9.11876376 18.7261532,9.11876376 C18.7261532,9.11876376 18.7261532,9.11876376 18.7261532,9.11876376 C19.389832,9.11876376 19.7802313,9.53801726 19.7802313,10.2586092 L19.7802313,11.0971162 C19.7802313,12.5907069 19.7932446,14.1236025 19.7542047,15.6302948 C19.767218,15.8792265 19.5590051,16.0888533 19.3117522,16.0888533 Z" id="Shape"></path>
                        </g>
                    </g>
                </g>
            </g>
        </g>
    </g>
</svg>