<?xml version="1.0" encoding="UTF-8"?>
<svg width="88px" height="88px" viewBox="0 0 88 88" version="1.1" xmlns="http://www.w3.org/2000/svg" xmlns:xlink="http://www.w3.org/1999/xlink">
    <!-- Generator: sketchtool 50.2 (55047) - http://www.bohemiancoding.com/sketch -->
    <title>59C784E7-DBA2-4098-93AB-A889569B84D1</title>
    <desc>Created with sketchtool.</desc>
    <defs>
        <rect id="path-1" x="0" y="0" width="80" height="80"></rect>
        <filter x="-6.9%" y="-6.9%" width="116.2%" height="116.2%" filterUnits="objectBoundingBox" id="filter-2">
            <feOffset dx="1" dy="1" in="SourceAlpha" result="shadowOffsetOuter1"></feOffset>
            <feGaussianBlur stdDeviation="2" in="shadowOffsetOuter1" result="shadowBlurOuter1"></feGaussianBlur>
            <feComposite in="shadowBlurOuter1" in2="SourceAlpha" operator="out" result="shadowBlurOuter1"></feComposite>
            <feColorMatrix values="0 0 0 0 0   0 0 0 0 0   0 0 0 0 0  0 0 0 0.15 0" type="matrix" in="shadowBlurOuter1"></feColorMatrix>
        </filter>
        <path d="M17.4045821,35.8999554 C20.6767562,35.216254 26.477398,36.6888159 29.5559451,29.6390275 C31.1611416,25.9631716 34.6350459,22.2765109 34.6350459,17.9499777 C34.6350459,13.2175367 33.2082752,9.17343348 29.5559451,6.88536697 C25.5967744,4.4050747 22.3779605,0 17.4045821,0 C12.4199738,0 9.02111313,4.26259052 5.60166776,6.27522714 C1.97418272,8.41031295 1.16799873,13.8919183 0.17411826,17.9499777 C-0.9180367,22.4092964 3.36631656,26.4242781 6.37222868,31.0666984 C8.60013002,34.5075357 14.636675,36.4782932 17.4045821,35.8999554 Z" id="path-3"></path>
    </defs>
    <g id="Paketo-Website-Design" stroke="none" stroke-width="1" fill="none" fill-rule="evenodd">
        <g id="Landing-page-Hercules-Mobile" transform="translate(-59.000000, -3057.000000)">
            <g id="Group-15-Copy-2" transform="translate(62.000000, 3060.000000)">
                <g id="Rectangle-7-Copy-8">
                    <use fill="black" fill-opacity="1" filter="url(#filter-2)" xlink:href="#path-1"></use>
                    <rect stroke="#E0E0E0" stroke-width="1" stroke-linejoin="square" fill="#FFFFFF" fill-rule="evenodd" x="0.5" y="0.5" width="79" height="79"></rect>
                </g>
                <g id="Group-13" transform="translate(5.000000, 9.000000)">
                    <text id="Cloud-Migration-and" font-family="Roboto-Medium, Roboto" font-size="6" font-weight="400" line-spacing="11" fill="#393939">
                        <tspan x="8.71120347" y="6.17479675">Cloud Migration and </tspan>
                        <tspan x="23.6672582" y="17.1747967">Adoption</tspan>
                    </text>
                    <g id="Group-53-Copy" transform="translate(15.223577, 27.674797)">
                        <g id="pattern/circle" transform="translate(2.988636, 0.000000)">
                            <g id="color/light-sky">
                                <mask id="mask-4" fill="white">
                                    <use xlink:href="#path-3"></use>
                                </mask>
                                <use id="Mask" fill="#A5D5FA" xlink:href="#path-3"></use>
                                <g mask="url(#mask-4)" fill="#A5D5FA" id="Rectangle">
                                    <g transform="translate(-1.329114, -0.923077)">
                                        <rect x="0" y="0" width="39" height="39"></rect>
                                    </g>
                                </g>
                            </g>
                        </g>
                        <g id="Group-35" transform="translate(0.000000, 2.706882)" fill="#000000" fill-rule="nonzero">
                            <g id="Group">
                                <path d="M35.0666661,7.81612043 L17.0850376,7.81612043 C16.7695705,7.81612043 16.5039139,7.54543227 16.5039139,7.22399009 L16.5039139,0.592130335 C16.5039139,0.270688153 16.7695705,0 17.0850376,0 L35.0666661,0 C35.3821333,0 35.6477899,0.270688153 35.6477899,0.592130335 L35.6477899,7.22399009 C35.6477899,7.56235028 35.3987368,7.81612043 35.0666661,7.81612043 Z M17.6661614,6.63185976 L34.4855424,6.63185976 L34.4855424,1.18426067 L17.6661614,1.18426067 L17.6661614,6.63185976 Z" id="Shape"></path>
                                <path d="M35.0666661,18.9650887 L17.0850376,18.9650887 C16.7695705,18.9650887 16.5039139,18.6944006 16.5039139,18.3729584 L16.5039139,11.7410986 C16.5039139,11.4196565 16.7695705,11.1489683 17.0850376,11.1489683 L35.0666661,11.1489683 C35.3821333,11.1489683 35.6477899,11.4196565 35.6477899,11.7410986 L35.6477899,18.3729584 C35.6477899,18.6944006 35.3987368,18.9650887 35.0666661,18.9650887 Z M17.6661614,17.7808281 L34.4855424,17.7808281 L34.4855424,12.333229 L17.6661614,12.333229 L17.6661614,17.7808281 Z" id="Shape"></path>
                                <path d="M35.0666661,30.1140571 L17.0850376,30.1140571 C16.7695705,30.1140571 16.5039139,29.8433689 16.5039139,29.5219267 L16.5039139,22.890067 C16.5039139,22.5686248 16.7695705,22.2979366 17.0850376,22.2979366 L35.0666661,22.2979366 C35.3821333,22.2979366 35.6477899,22.5686248 35.6477899,22.890067 L35.6477899,29.5219267 C35.6477899,29.8433689 35.3987368,30.1140571 35.0666661,30.1140571 Z M17.6661614,28.9297964 L34.4855424,28.9297964 L34.4855424,23.4821973 L17.6661614,23.4821973 L17.6661614,28.9297964 Z" id="Shape"></path>
                                <path d="M40.429608,15.3615527 L36.4779666,15.3615527 C36.1624995,15.3615527 35.8968429,15.0908645 35.8968429,14.7694224 C35.8968429,14.4479802 36.1624995,14.177292 36.4779666,14.177292 L39.8484843,14.177292 L39.8484843,3.26517585 L36.4779666,3.26517585 C36.1624995,3.26517585 35.8968429,2.9944877 35.8968429,2.67304551 C35.8968429,2.35160333 36.1624995,2.08091518 36.4779666,2.08091518 L40.429608,2.08091518 C40.7450751,2.08091518 41.0107317,2.35160333 41.0107317,2.67304551 L41.0107317,14.7694224 C41.0107317,15.0908645 40.7450751,15.3615527 40.429608,15.3615527 Z" id="Shape"></path>
                                <path d="M15.607323,30.2324831 L5.21351002,30.2324831 C5.19690649,30.2324831 5.19690649,30.2324831 5.18030295,30.2324831 C3.28749995,30.1309751 0.0830176755,29.0651405 0.0830176755,25.7999646 C0.0830176755,23.2960992 1.46111109,22.3486907 2.57354794,21.5873802 C2.62335855,21.5535442 2.67316915,21.5197082 2.70637622,21.4858722 C2.70637622,21.4858722 2.70637622,21.4689542 2.68977269,21.4689542 C2.65656562,21.4182001 2.63996208,21.3505281 2.60675501,21.2997741 C2.1750631,20.2846935 2.25808077,19.2188589 2.8392045,18.3222044 C3.48674237,17.3071238 4.63238629,16.6980755 5.82784082,16.6980755 C5.87765143,16.6980755 5.9606691,16.6980755 6.06029031,16.7149935 C6.14330799,15.2600446 6.65801758,14.4141442 7.95309331,13.4836536 C9.0821337,12.6715892 11.107765,11.8933607 13.1167927,12.333229 C14.5779038,12.6546712 15.7401513,13.5513257 16.5869316,15.0062745 C16.7529669,15.2938807 16.6533457,15.6491589 16.3876891,15.818339 C16.1054291,15.9875191 15.7567548,15.886011 15.5907195,15.6153228 C14.9099745,14.4479802 13.9967801,13.7374238 12.8677397,13.4836536 C11.3402145,13.1452934 9.63005036,13.7205058 8.61723472,14.4479802 C7.50479787,15.2431266 7.20593424,15.818339 7.20593424,17.1717797 C7.20593424,17.3747958 7.12291656,17.5439759 6.99008828,17.67932 C6.70782818,17.9330902 6.32594687,17.9161721 5.97727264,17.8823361 C5.92746203,17.8823361 5.87765143,17.8654181 5.82784082,17.8654181 C5.03087114,17.8654181 4.23390145,18.2883684 3.80220954,18.9650887 C3.55315651,19.371121 3.32070702,20.0140053 3.66938126,20.8260698 C3.68598479,20.8768238 3.71919186,20.9275779 3.7357954,20.9783319 C3.81881307,21.16443 3.91843428,21.3674461 3.96824489,21.6212162 C4.0180555,21.8411504 3.91843428,22.0780025 3.7357954,22.2133466 C3.56976005,22.3486907 3.38712116,22.4671167 3.20448228,22.5855428 C2.14185603,23.3130172 1.2286616,23.9389836 1.2286616,25.8168826 C1.2286616,28.7267803 4.7320075,29.0313044 5.21351002,29.0651405 L15.607323,29.0651405 C15.9227902,29.0651405 16.1884467,29.3358286 16.1884467,29.6572708 C16.1884467,29.978713 15.9227902,30.2324831 15.607323,30.2324831 Z" id="Shape"></path>
                            </g>
                        </g>
                    </g>
                </g>
            </g>
        </g>
    </g>
</svg>