<?xml version="1.0" encoding="UTF-8"?>
<svg width="88px" height="88px" viewBox="0 0 88 88" version="1.1" xmlns="http://www.w3.org/2000/svg" xmlns:xlink="http://www.w3.org/1999/xlink">
    <!-- Generator: sketchtool 50.2 (55047) - http://www.bohemiancoding.com/sketch -->
    <title>FD2BE3B2-3352-4C2A-9BBE-B057AB20E80D</title>
    <desc>Created with sketchtool.</desc>
    <defs>
        <rect id="path-1" x="0" y="0" width="80" height="80"></rect>
        <filter x="-6.9%" y="-6.9%" width="116.2%" height="116.2%" filterUnits="objectBoundingBox" id="filter-2">
            <feOffset dx="1" dy="1" in="SourceAlpha" result="shadowOffsetOuter1"></feOffset>
            <feGaussianBlur stdDeviation="2" in="shadowOffsetOuter1" result="shadowBlurOuter1"></feGaussianBlur>
            <feComposite in="shadowBlurOuter1" in2="SourceAlpha" operator="out" result="shadowBlurOuter1"></feComposite>
            <feColorMatrix values="0 0 0 0 0   0 0 0 0 0   0 0 0 0 0  0 0 0 0.15 0" type="matrix" in="shadowBlurOuter1"></feColorMatrix>
        </filter>
        <path d="M1.99269442,3.69979348 C1.04128211,-3.79080962 28.5206999,2.15489301 30.1205375,3.69979348 C31.7203752,5.24469395 33.5566093,9.92517637 32.6126884,15.4305491 C31.6687675,20.9359218 32.6126884,29.1898189 30.1205375,31.8276366 C27.6283867,34.4654543 6.91872944,31.8276366 1.99269442,31.8276366 C-2.93334061,31.8276366 2.94410672,11.1903966 1.99269442,3.69979348 Z" id="path-3"></path>
    </defs>
    <g id="Paketo-Website-Design" stroke="none" stroke-width="1" fill="none" fill-rule="evenodd">
        <g id="Landing-page-Hercules-Mobile" transform="translate(-60.000000, -2745.000000)">
            <g id="Group-8-Copy-2" transform="translate(63.000000, 2748.000000)">
                <g id="Rectangle-7-Copy-15">
                    <use fill="black" fill-opacity="1" filter="url(#filter-2)" xlink:href="#path-1"></use>
                    <rect stroke="#E0E0E0" stroke-width="1" stroke-linejoin="square" fill="#FFFFFF" fill-rule="evenodd" x="0.5" y="0.5" width="79" height="79"></rect>
                </g>
                <g id="Group-4" transform="translate(5.000000, 9.000000)">
                    <text id="DevSecOps-and-Contin" font-family="Roboto-Medium, Roboto" font-size="6" font-weight="400" line-spacing="11" fill="#393939">
                        <tspan x="14.4150391" y="6">DevSecOps and </tspan>
                        <tspan x="8.45898438" y="17">Continuous Security</tspan>
                    </text>
                    <g id="Group-56-Copy" transform="translate(15.000000, 30.000000)">
                        <g id="pattern/cube" transform="translate(2.000000, 0.000000)">
                            <g id="color/light-Purple">
                                <mask id="mask-4" fill="white">
                                    <use xlink:href="#path-3"></use>
                                </mask>
                                <use id="Mask" fill="#CCBFF6" xlink:href="#path-3"></use>
                                <g mask="url(#mask-4)" fill="#CCBFF6" id="Rectangle">
                                    <g transform="translate(-0.846154, -0.846154)">
                                        <rect x="0" y="0" width="36" height="36"></rect>
                                    </g>
                                </g>
                            </g>
                        </g>
                        <g id="Group-40" transform="translate(0.000000, 5.000000)" fill="#000000" fill-rule="nonzero">
                            <g id="Group">
                                <path d="M10.9393013,21.2209863 C4.95938865,21.2209863 0.107423581,16.4681869 0.107423581,10.6104931 C0.107423581,4.75279941 4.95938865,0 10.9393013,0 C16.919214,0 21.771179,4.75279941 21.771179,10.6104931 C21.771179,10.9437152 21.4847162,11.2243233 21.1445415,11.2243233 C20.8043668,11.2243233 20.5179039,10.9437152 20.5179039,10.6104931 C20.5179039,5.43678161 16.2209607,1.22766036 10.9393013,1.22766036 C5.65764192,1.22766036 1.36069869,5.43678161 1.36069869,10.6104931 C1.36069869,15.7842047 5.65764192,19.9933259 10.9393013,19.9933259 C12.6043668,19.9933259 14.2515284,19.5724138 15.7017467,18.7481275 C16.0061135,18.5727475 16.3820961,18.6779755 16.5611354,18.9761216 C16.7401747,19.2742677 16.6327511,19.6425658 16.3283843,19.8179459 C14.6991266,20.7299221 12.8371179,21.2209863 10.9393013,21.2209863 Z" id="Shape"></path>
                                <path d="M22.9349345,21.2209863 C16.9550218,21.2209863 12.1030568,16.4681869 12.1030568,10.6104931 C12.1030568,10.277271 12.3895197,9.99666296 12.7296943,9.99666296 C13.069869,9.99666296 13.3563319,10.277271 13.3563319,10.6104931 C13.3563319,15.7842047 17.6532751,19.9933259 22.9349345,19.9933259 C28.2165939,19.9933259 32.5135371,15.7842047 32.5135371,10.6104931 C32.5135371,5.43678161 28.2165939,1.22766036 22.9349345,1.22766036 C21.2161572,1.22766036 19.5510917,1.66611049 18.0829694,2.52547275 C17.7786026,2.7008528 17.4026201,2.59562477 17.2235808,2.31501669 C17.0445415,2.0168706 17.1519651,1.64857249 17.4384279,1.47319244 C19.1034934,0.508602151 21.00131,0.0175380052 22.9349345,0.0175380052 C28.9148472,0.0175380052 33.7668122,4.77033741 33.7668122,10.6280311 C33.7668122,16.4857249 28.9148472,21.2209863 22.9349345,21.2209863 Z" id="Shape"></path>
                                <path d="M36.2196507,21.6243604 C36.0585153,21.6243604 35.8973799,21.5892844 35.7541485,21.5015944 C34.7336245,20.9403782 33.8742358,20.168706 33.1938865,19.2567297 C32.6746725,18.5552095 32.280786,17.7835373 31.9764192,16.924175 C31.8689956,16.6084909 32.0480349,16.2577308 32.3703057,16.1525028 C32.6925764,16.0472747 33.050655,16.2226548 33.1580786,16.5383389 C33.4087336,17.2749351 33.7489083,17.9413793 34.1965066,18.5376715 C34.7336245,19.2742677 35.4139738,19.8880979 36.2017467,20.344086 C37.0074236,19.8530219 37.669869,19.2567297 38.2069869,18.5376715 C39.2275109,17.1521691 39.7467249,15.3282165 39.7467249,13.1184279 C39.1737991,13.0307379 38.6187773,12.8728958 38.0816594,12.6799778 C37.4729258,12.4695217 36.8462882,12.1713756 36.1838428,11.8206155 C35.5393013,12.1713756 34.8947598,12.4695217 34.3039301,12.6799778 C33.9816594,12.8027438 33.6235808,12.6273637 33.4982533,12.3116796 C33.3729258,11.9959956 33.5519651,11.6452354 33.8742358,11.5224694 C34.4650655,11.3120133 35.0917031,11.0138673 35.7541485,10.6631072 C36.0406114,10.5052651 36.3628821,10.5052651 36.631441,10.6631072 C37.2938865,11.0314053 37.920524,11.3120133 38.5113537,11.5224694 C39.0484716,11.7153875 39.6213974,11.8556915 40.2122271,11.9433815 C40.6419214,11.9959956 40.9820961,12.3642937 40.9820961,12.8027438 C41.0358079,15.4159066 40.4449782,17.5906192 39.209607,19.2567297 C38.5292576,20.168706 37.669869,20.9228402 36.649345,21.5191324 C36.5240175,21.5892844 36.380786,21.6243604 36.2196507,21.6243604 Z" id="Shape"></path>
                                <path d="M21.0550218,11.8381535 C20.8938865,11.8381535 20.7327511,11.7855395 20.6074236,11.6627735 L18.7275109,9.82128291 C18.4768559,9.57575083 18.4768559,9.18991472 18.7275109,8.96192065 C18.9781659,8.71638858 19.3720524,8.71638858 19.6227074,8.96192065 L21.0550218,10.3649611 L22.4873362,8.96192065 C22.7379913,8.71638858 23.1318777,8.71638858 23.3825328,8.96192065 C23.6331878,9.20745273 23.6331878,9.59328884 23.3825328,9.82128291 L21.5026201,11.6627735 C21.3772926,11.7680015 21.2161572,11.8381535 21.0550218,11.8381535 Z" id="Shape"></path>
                                <path d="M14.5200873,12.0135336 C14.358952,12.0135336 14.1978166,11.9609195 14.0724891,11.8381535 L12.6401747,10.4351131 L11.2078603,11.8381535 C10.9572052,12.0836856 10.5633188,12.0836856 10.3126638,11.8381535 C10.0620087,11.5926214 10.0620087,11.2067853 10.3126638,10.9787912 L12.1925764,9.1373007 C12.4432314,8.89176863 12.8371179,8.89176863 13.0877729,9.1373007 L14.9676856,10.9787912 C15.2183406,11.2243233 15.2183406,11.6101594 14.9676856,11.8381535 C14.8423581,11.9433815 14.6812227,12.0135336 14.5200873,12.0135336 Z" id="Shape"></path>
                            </g>
                        </g>
                    </g>
                </g>
            </g>
        </g>
    </g>
</svg>