<?xml version="1.0" encoding="UTF-8"?>
<svg width="88px" height="88px" viewBox="0 0 88 88" version="1.1" xmlns="http://www.w3.org/2000/svg" xmlns:xlink="http://www.w3.org/1999/xlink">
    <!-- Generator: sketchtool 50.2 (55047) - http://www.bohemiancoding.com/sketch -->
    <title>D769321F-CDF4-4BF2-8312-95768D2C667C</title>
    <desc>Created with sketchtool.</desc>
    <defs>
        <rect id="path-1" x="0" y="0" width="80" height="80"></rect>
        <filter x="-6.9%" y="-6.9%" width="116.2%" height="116.2%" filterUnits="objectBoundingBox" id="filter-2">
            <feOffset dx="1" dy="1" in="SourceAlpha" result="shadowOffsetOuter1"></feOffset>
            <feGaussianBlur stdDeviation="2" in="shadowOffsetOuter1" result="shadowBlurOuter1"></feGaussianBlur>
            <feComposite in="shadowBlurOuter1" in2="SourceAlpha" operator="out" result="shadowBlurOuter1"></feComposite>
            <feColorMatrix values="0 0 0 0 0   0 0 0 0 0   0 0 0 0 0  0 0 0 0.15 0" type="matrix" in="shadowBlurOuter1"></feColorMatrix>
        </filter>
        <path d="M1.87192506,3.47556357 C0.978174104,-3.56106359 26.7921726,2.02429343 28.2950504,3.47556357 C29.7979282,4.92683371 31.5228754,9.32365053 30.6361618,14.4953643 C29.7494483,19.667078 30.6361618,27.420739 28.2950504,29.8986889 C25.953939,32.3766389 6.49941251,29.8986889 1.87192506,29.8986889 C-2.75556239,29.8986889 2.76567601,10.5121907 1.87192506,3.47556357 Z" id="path-3"></path>
    </defs>
    <g id="Paketo-Website-Design" stroke="none" stroke-width="1" fill="none" fill-rule="evenodd">
        <g id="Landing-page-Hercules-Mobile" transform="translate(-58.000000, -2953.000000)">
            <g id="Group-16-Copy-2" transform="translate(61.000000, 2956.000000)">
                <g id="Rectangle-7-Copy-9">
                    <use fill="black" fill-opacity="1" filter="url(#filter-2)" xlink:href="#path-1"></use>
                    <rect stroke="#E0E0E0" stroke-width="1" stroke-linejoin="square" fill="#FFFFFF" fill-rule="evenodd" x="0.5" y="0.5" width="79" height="79"></rect>
                </g>
                <g id="Group-8" transform="translate(4.000000, 9.000000)">
                    <text id="Docker-and-Container" font-family="Roboto-Medium, Roboto" font-size="6" font-weight="400" line-spacing="11" fill="#393939">
                        <tspan x="7.89186754" y="6.17479675">Docker and Container </tspan>
                        <tspan x="23.6052464" y="17.1747967">Platforms</tspan>
                    </text>
                    <g id="Group-50-Copy" transform="translate(18.862676, 30.674797)">
                        <g id="pattern/cube" transform="translate(2.628092, 0.000000)">
                            <g id="color/light-Purple">
                                <mask id="mask-4" fill="white">
                                    <use xlink:href="#path-3"></use>
                                </mask>
                                <use id="Mask" fill="#CCBFF6" xlink:href="#path-3"></use>
                                <g mask="url(#mask-4)" fill="#CCBFF6" id="Rectangle">
                                    <g transform="translate(-0.794872, -0.794872)">
                                        <rect x="0" y="0" width="34" height="34"></rect>
                                    </g>
                                </g>
                            </g>
                        </g>
                        <g id="Group" transform="translate(0.000000, 2.508866)" fill="#000000" fill-rule="nonzero">
                            <path d="M5.51899387,12.1458614 L2.99310514,12.1458614 C2.7156954,12.1458614 2.48208719,11.9097329 2.48208719,11.6293302 L2.48208719,9.07619048 C2.48208719,8.79578784 2.7156954,8.55965931 2.99310514,8.55965931 L5.51899387,8.55965931 C5.79640361,8.55965931 6.03001182,8.79578784 6.03001182,9.07619048 L6.03001182,11.6293302 C6.03001182,11.9244909 5.81100413,12.1458614 5.51899387,12.1458614 Z M3.50412309,11.1127991 L5.00797592,11.1127991 L5.00797592,9.59272164 L3.50412309,9.59272164 L3.50412309,11.1127991 Z" id="Shape"></path>
                            <path d="M9.7531426,12.1458614 L7.22725388,12.1458614 C6.94984413,12.1458614 6.71623592,11.9097329 6.71623592,11.6293302 L6.71623592,9.07619048 C6.71623592,8.79578784 6.94984413,8.55965931 7.22725388,8.55965931 L9.7531426,8.55965931 C10.0305523,8.55965931 10.2641606,8.79578784 10.2641606,9.07619048 L10.2641606,11.6293302 C10.2641606,11.9244909 10.0305523,12.1458614 9.7531426,12.1458614 Z M7.73827183,11.1127991 L9.24212465,11.1127991 L9.24212465,9.59272164 L7.73827183,9.59272164 L7.73827183,11.1127991 Z" id="Shape"></path>
                            <path d="M13.9872913,12.1458614 L11.4614026,12.1458614 C11.1839929,12.1458614 10.9503847,11.9097329 10.9503847,11.6293302 L10.9503847,9.07619048 C10.9503847,8.79578784 11.1839929,8.55965931 11.4614026,8.55965931 L13.9872913,8.55965931 C14.2647011,8.55965931 14.4983093,8.79578784 14.4983093,9.07619048 L14.4983093,11.6293302 C14.4983093,11.9244909 14.2647011,12.1458614 13.9872913,12.1458614 Z M11.95782,11.1127991 L13.4616729,11.1127991 L13.4616729,9.59272164 L11.95782,9.59272164 L11.95782,11.1127991 Z" id="Shape"></path>
                            <path d="M18.2214401,12.1458614 L15.6955513,12.1458614 C15.4181416,12.1458614 15.1845334,11.9097329 15.1845334,11.6293302 L15.1845334,9.07619048 C15.1845334,8.79578784 15.4181416,8.55965931 15.6955513,8.55965931 L18.2214401,8.55965931 C18.4988498,8.55965931 18.732458,8.79578784 18.732458,9.07619048 L18.732458,11.6293302 C18.732458,11.9244909 18.4988498,12.1458614 18.2214401,12.1458614 Z M16.1919688,11.1127991 L17.6958216,11.1127991 L17.6958216,9.59272164 L16.1919688,9.59272164 L16.1919688,11.1127991 Z" id="Shape"></path>
                            <path d="M22.4555888,12.1458614 L19.9297001,12.1458614 C19.6522903,12.1458614 19.4186821,11.9097329 19.4186821,11.6293302 L19.4186821,9.07619048 C19.4186821,8.79578784 19.6522903,8.55965931 19.9297001,8.55965931 L22.4555888,8.55965931 C22.7329986,8.55965931 22.9666068,8.79578784 22.9666068,9.07619048 L22.9666068,11.6293302 C22.9666068,11.9244909 22.7329986,12.1458614 22.4555888,12.1458614 Z M20.4261175,11.1127991 L21.9299703,11.1127991 L21.9299703,9.59272164 L20.4261175,9.59272164 L20.4261175,11.1127991 Z" id="Shape"></path>
                            <path d="M11.9432195,8.02837011 L9.41733081,8.02837011 C9.13992106,8.02837011 8.90631286,7.79224158 8.90631286,7.51183895 L8.90631286,4.95869919 C8.90631286,4.67829655 9.13992106,4.44216802 9.41733081,4.44216802 L11.9432195,4.44216802 C12.2206293,4.44216802 12.4542375,4.67829655 12.4542375,4.95869919 L12.4542375,7.51183895 C12.4542375,7.79224158 12.2352298,8.02837011 11.9432195,8.02837011 Z M9.92834876,6.99530778 L11.4322016,6.99530778 L11.4322016,5.47523035 L9.92834876,5.47523035 L9.92834876,6.99530778 Z" id="Shape"></path>
                            <path d="M16.1773683,8.02837011 L13.6514795,8.02837011 C13.3740698,8.02837011 13.1404616,7.79224158 13.1404616,7.51183895 L13.1404616,4.95869919 C13.1404616,4.67829655 13.3740698,4.44216802 13.6514795,4.44216802 L16.1773683,4.44216802 C16.454778,4.44216802 16.6883862,4.67829655 16.6883862,4.95869919 L16.6883862,7.51183895 C16.6883862,7.79224158 16.454778,8.02837011 16.1773683,8.02837011 Z M14.1624975,6.99530778 L15.6663503,6.99530778 L15.6663503,5.47523035 L14.1624975,5.47523035 L14.1624975,6.99530778 Z" id="Shape"></path>
                            <path d="M20.411517,8.02837011 L17.8856283,8.02837011 C17.6082185,8.02837011 17.3746103,7.79224158 17.3746103,7.51183895 L17.3746103,4.95869919 C17.3746103,4.67829655 17.6082185,4.44216802 17.8856283,4.44216802 L20.411517,4.44216802 C20.6889268,4.44216802 20.922535,4.67829655 20.922535,4.95869919 L20.922535,7.51183895 C20.922535,7.79224158 20.6889268,8.02837011 20.411517,8.02837011 Z M18.3820457,6.99530778 L19.8858985,6.99530778 L19.8858985,5.47523035 L18.3820457,5.47523035 L18.3820457,6.99530778 Z" id="Shape"></path>
                            <path d="M20.411517,3.70426636 L17.8856283,3.70426636 C17.6082185,3.70426636 17.3746103,3.46813782 17.3746103,3.18773519 L17.3746103,0.634595432 C17.3746103,0.354192799 17.6082185,0.118064266 17.8856283,0.118064266 L20.411517,0.118064266 C20.6889268,0.118064266 20.922535,0.354192799 20.922535,0.634595432 L20.922535,3.18773519 C20.922535,3.46813782 20.6889268,3.70426636 20.411517,3.70426636 Z M18.3820457,2.67120403 L19.8858985,2.67120403 L19.8858985,1.1511266 L18.3820457,1.1511266 L18.3820457,2.67120403 Z" id="Shape"></path>
                            <path d="M13.2718662,25.9151065 C13.2134642,25.9151065 13.1550621,25.9151065 13.0966601,25.9151065 C8.46829747,25.8855904 4.99337541,24.5721254 2.75949693,22.0189857 C-0.408814361,18.4180256 0.0876030773,13.6954549 0.116804103,13.5036005 C0.146005129,13.2379559 0.365012822,13.0461014 0.627822054,13.0461014 L26.076516,13.0461014 C26.2663227,13.0018273 27.215356,12.7656988 27.8285775,12.0130391 C27.156954,11.1127991 25.6969027,8.54490128 28.3687965,5.82942315 C28.5440027,5.65232675 28.8214124,5.62281069 29.0258196,5.77039102 C29.1280232,5.84418118 31.3765022,7.46756485 31.3911027,9.72554394 C32.3255355,9.54844754 34.0045945,9.43038328 35.698254,10.183043 C35.9318622,10.2863492 36.0486663,10.5519938 35.9902643,10.7881223 C35.9610632,10.9209446 35.099633,13.8725513 30.7340796,13.8135192 C30.5588735,14.8170654 29.9602524,17.2521409 28.1205878,19.6724584 C24.2514519,24.823012 17.9440303,25.9151065 13.2718662,25.9151065 Z M1.09503847,14.0791638 C1.06583744,15.3040805 1.21184257,18.7131862 3.5187236,21.3401161 C5.56279541,23.6571274 8.78950875,24.8525281 13.0966601,24.8672861 C13.1550621,24.8672861 13.2134642,24.8672861 13.2718662,24.8672861 C19.5792878,24.8672861 24.4120575,22.8601936 27.2883586,19.052621 C29.463835,16.1600465 29.7558453,13.2674719 29.7558453,13.2379559 C29.7850463,12.9575532 30.0186545,12.7509408 30.2960642,12.7656988 C33.2453678,12.9427952 34.3842078,11.6440883 34.7930222,10.9357027 C32.8365535,10.2715912 30.9676878,10.8766705 30.9530873,10.8766705 C30.7778812,10.9357027 30.5880745,10.8914286 30.4566699,10.7733643 C30.3252653,10.6553 30.2668632,10.4634456 30.2960642,10.2715912 C30.631876,8.75151374 29.3908324,7.43804878 28.7630104,6.87724352 C27.9161806,7.88078978 27.6387709,8.92861014 27.9453817,10.0207046 C28.2081909,10.9652187 28.8068119,11.5850561 28.8214124,11.5998142 C28.9820181,11.7621525 29.0112191,12.0277971 28.894415,12.2344096 C28.0037837,13.739729 26.2663227,14.0496477 26.1933201,14.0496477 C26.1641191,14.0496477 26.1349181,14.0496477 26.105717,14.0496477 L1.09503847,14.0496477 L1.09503847,14.0791638 Z" id="Shape"></path>
                        </g>
                    </g>
                </g>
            </g>
        </g>
    </g>
</svg>