<?xml version="1.0" encoding="UTF-8"?>
<svg width="88px" height="88px" viewBox="0 0 88 88" version="1.1" xmlns="http://www.w3.org/2000/svg" xmlns:xlink="http://www.w3.org/1999/xlink">
    <!-- Generator: sketchtool 50.2 (55047) - http://www.bohemiancoding.com/sketch -->
    <title>1C64CD73-4082-4E2A-86FF-E8759539658E</title>
    <desc>Created with sketchtool.</desc>
    <defs>
        <rect id="path-1" x="0" y="0" width="80" height="80"></rect>
        <filter x="-6.9%" y="-6.9%" width="116.2%" height="116.2%" filterUnits="objectBoundingBox" id="filter-2">
            <feOffset dx="1" dy="1" in="SourceAlpha" result="shadowOffsetOuter1"></feOffset>
            <feGaussianBlur stdDeviation="2" in="shadowOffsetOuter1" result="shadowBlurOuter1"></feGaussianBlur>
            <feComposite in="shadowBlurOuter1" in2="SourceAlpha" operator="out" result="shadowBlurOuter1"></feComposite>
            <feColorMatrix values="0 0 0 0 0   0 0 0 0 0   0 0 0 0 0  0 0 0 0.15 0" type="matrix" in="shadowBlurOuter1"></feColorMatrix>
        </filter>
        <path d="M16.9073083,34.9027344 C20.0859917,34.2380248 25.7209009,35.6696821 28.7114895,28.8157212 C30.2708233,25.2419724 33.6454732,21.6577189 33.6454732,17.4513672 C33.6454732,12.8503829 32.2594673,8.91861589 28.7114895,6.69410677 C24.865438,4.28271152 21.7385902,0 16.9073083,0 C12.0651174,0 8.76336704,4.14418523 5.44162011,6.10091528 C1.9177775,8.17669314 1.13462734,13.5060317 0.169143453,17.4513672 C-0.89180708,21.7868159 3.27013609,25.6902703 6.190165,30.2037345 C8.35441202,33.548993 14.2184843,35.4650073 16.9073083,34.9027344 Z" id="path-3"></path>
    </defs>
    <g id="Paketo-Website-Design" stroke="none" stroke-width="1" fill="none" fill-rule="evenodd">
        <g id="Landing-page-Hercules-Mobile" transform="translate(-176.000000, -2745.000000)">
            <g id="Group-10-Copy-2" transform="translate(179.000000, 2748.000000)">
                <g id="Rectangle-7-Copy">
                    <use fill="black" fill-opacity="1" filter="url(#filter-2)" xlink:href="#path-1"></use>
                    <rect stroke="#E0E0E0" stroke-width="1" stroke-linejoin="square" fill="#FFFFFF" fill-rule="evenodd" x="0.5" y="0.5" width="79" height="79"></rect>
                </g>
                <g id="Group-3" transform="translate(1.000000, 5.000000)">
                    <text id="Enterprise-DevOps-an" font-family="Roboto-Medium, Roboto" font-size="6" font-weight="400" line-spacing="11" fill="#393939">
                        <tspan x="7.35817613" y="6.67479675">Enterprise DevOps and </tspan>
                        <tspan x="11.0788793" y="17.6747967">Continuous Delivery</tspan>
                    </text>
                    <g id="Group-51-Copy" transform="translate(13.963415, 30.674797)">
                        <g id="pattern/circle" transform="translate(6.352435, 0.000000)">
                            <g id="color/light-sky">
                                <mask id="mask-4" fill="white">
                                    <use xlink:href="#path-3"></use>
                                </mask>
                                <use id="Mask" fill="#A5D5FA" xlink:href="#path-3"></use>
                                <g mask="url(#mask-4)" fill="#A5D5FA" id="Rectangle">
                                    <g transform="translate(-1.291139, -0.897436)">
                                        <rect x="0" y="0" width="38" height="38"></rect>
                                    </g>
                                </g>
                            </g>
                        </g>
                        <g id="Group" transform="translate(0.000000, 5.753388)">
                            <path d="M14.7895046,3.2868316 C12.2889512,0.517973224 8.61166682,-0.0994073598 5.24695161,1.60306637 C2.13964631,3.17458059 0.374549811,6.242775 0.687118983,9.8722245 C0.999688155,13.464257 3.04058099,15.8028198 6.27659124,17.074998 C9.32873727,18.2723421 12.6566796,17.3182085 14.9733688,14.8299777 C17.1061937,12.5475404 19.2206323,10.227686 21.5005486,8.13233376" id="Shape"></path>
                            <path d="M8.98587418,18.2464576 C7.99172059,18.2464576 6.997567,18.0594475 6.04023391,17.6854271 C2.43182458,16.282851 0.351466141,13.5899047 0.0384918622,9.92450562 C-0.292892668,6.07209638 1.52972225,2.74331559 4.95402906,1.02282214 C8.6360794,-0.828578412 12.5758733,-0.136640831 15.26377,2.85552168 C15.5031033,3.1173359 15.484693,3.52875825 15.2269495,3.77187145 C14.969206,4.01498466 14.5641804,3.99628364 14.3248472,3.73446942 C12.041976,1.19113128 8.6728999,0.611399798 5.54315712,2.18228512 C2.6159271,3.65966536 1.0510557,6.50221974 1.32720948,9.79359851 C1.60336326,12.9727712 3.35233717,15.198192 6.5004902,16.4511601 C9.2436177,17.517118 12.3181297,16.7316753 14.5089497,14.3753474 L15.190129,13.6273067 C17.0679747,11.607597 19.0194613,9.53178429 21.0814095,7.62428069 C21.3391531,7.38116748 21.7441786,7.3998685 21.9835119,7.66168272 C22.2228451,7.92349694 22.2044349,8.33491928 21.9466914,8.57803249 C19.9215637,10.4481341 17.9884873,12.5052458 16.1290518,14.5062545 L15.4478725,15.2542951 C13.6436679,17.2179017 11.3239761,18.2464576 8.98587418,18.2464576 Z" id="Shape" fill="#000000" fill-rule="nonzero"></path>
                            <path d="M26.8817815,18.0820751 C24.3609459,18.0820751 21.9698592,17.0252554 20.3572658,15.1526451 C20.1163035,14.8745347 20.1533747,14.4666394 20.431408,14.244151 C20.7094413,14.0031219 21.1172236,14.0402033 21.3396503,14.3183138 C22.9893147,16.2280055 25.6213637,17.1364996 28.2163416,16.6729822 C30.9781394,16.1909241 33.1467995,14.3553952 34.1847907,11.6299128 C35.0930329,9.25670372 34.6852507,6.58684347 33.1097284,4.47320411 C31.4785995,2.30394266 28.9392283,1.1173381 26.3257149,1.30274506 C24.5463015,1.43252994 22.9893147,2.21123918 21.3952569,3.76865765 C21.1357591,4.0282274 20.7279769,4.00968671 20.4870147,3.75011696 C20.2460524,3.49054721 20.2460524,3.0826519 20.5055502,2.84162285 C22.3220347,1.06171601 24.1385192,0.171762596 26.2515726,0.0234370264 C29.3284749,-0.199051328 32.2941639,1.17296019 34.1847907,3.69449487 C36.0198107,6.16040746 36.5017352,9.31232581 35.4452085,12.0934302 C34.2589329,15.2082672 31.663955,17.3960693 28.4943749,17.9522902 C27.9197727,18.0449937 27.4007771,18.0820751 26.8817815,18.0820751 Z" id="Shape" fill="#000000" fill-rule="nonzero"></path>
                            <path d="M22.2847452,10.8492451 C21.9346574,10.8492451 21.6398467,10.5677682 21.6398467,10.1924657 L21.621421,8.07200646 L19.53932,8.09077159 C19.1892322,8.09077159 18.8944215,7.8092947 18.8944215,7.43399219 C18.8944215,7.0774548 19.1708066,6.77721279 19.53932,6.77721279 L22.2663195,6.73968254 C22.4321506,6.73968254 22.5979816,6.79597792 22.7269613,6.9273338 C22.855941,7.03992455 22.911218,7.20881068 22.9296437,7.39646194 L22.9664951,10.1737005 C22.9296437,10.5490031 22.6532586,10.8492451 22.2847452,10.8492451 C22.2847452,10.8492451 22.2847452,10.8492451 22.2847452,10.8492451 Z" id="Shape" fill="#000000" fill-rule="nonzero"></path>
                            <path d="M20.2628954,17.5889276 C19.927221,17.5889276 19.6474924,17.3288314 19.6101952,16.994422 L19.3864123,14.2448335 C19.3491152,13.8918458 19.6288438,13.5760147 19.9831667,13.5388581 L22.743156,13.3159185 C23.0974789,13.2973402 23.4145047,13.5574364 23.4518019,13.9104241 C23.489099,14.2634118 23.2093704,14.5792429 22.8550474,14.6163995 L20.7477584,14.7836042 L20.9155955,16.8829522 C20.9528927,17.2359399 20.6731641,17.551771 20.3188411,17.5889276 C20.3001925,17.5889276 20.281544,17.5889276 20.2628954,17.5889276 Z" id="Shape" fill="#000000" fill-rule="nonzero"></path>
                            <path d="M39.0506198,17.0957801 C38.9581941,17.0957801 38.8472832,17.077161 38.7548575,17.0213037 L34.7250969,15.0104411 C34.4108495,14.8428692 34.2814536,14.4518682 34.4293347,14.1353435 C34.5957009,13.8188188 34.9838889,13.6884851 35.2981363,13.8374379 L39.0321346,15.6993477 L45.002835,12.6830538 L39.0136495,9.61090264 L36.4627001,10.8397631 C36.1484527,10.9887159 35.7602648,10.8583822 35.5938985,10.5418575 C35.4460174,10.2253329 35.5754134,9.83433181 35.8896608,9.66675993 L38.7363724,8.28894667 C38.9212238,8.19585118 39.1245604,8.19585118 39.3094118,8.28894667 L46.7219531,12.0872427 C46.9437747,12.1989573 47.0731707,12.4223865 47.0731707,12.6644347 C47.0731707,12.906483 46.9252896,13.1299122 46.7219531,13.2416268 L39.3094118,16.9840655 C39.2539563,17.077161 39.1430455,17.0957801 39.0506198,17.0957801 Z" id="Shape" fill="#000000" fill-rule="nonzero"></path>
                            <path d="M31.41831,22.6847851 C31.41831,22.6847851 31.41831,22.6847851 31.41831,22.6847851 C31.0563479,22.6847851 30.7848764,22.3868751 30.7848764,22.0331069 L30.8210726,17.5830758 C30.8210726,17.2293076 31.1106422,16.9313976 31.4545062,16.9313976 C31.7983702,16.9313976 32.0879399,17.2293076 32.0879399,17.5830758 L32.0517437,22.0331069 C32.0517437,22.3868751 31.762174,22.6847851 31.41831,22.6847851 Z" id="Shape" fill="#000000" fill-rule="nonzero"></path>
                            <path d="M38.9473731,26.4655827 C38.8542581,26.4655827 38.74252,26.4469028 38.649405,26.3908633 L31.1443332,22.6548974 C30.8277421,22.4867789 30.6973811,22.0945025 30.8463651,21.7769454 C31.0139722,21.4593883 31.4050553,21.3286295 31.7216464,21.4780681 L38.2769448,24.7470383 L38.2769448,16.4345141 C38.2769448,16.0795974 38.574913,15.7807201 38.9287501,15.7807201 C39.2825872,15.7807201 39.5805553,16.0795974 39.5805553,16.4345141 L39.5805553,25.8117886 C39.5805553,26.0359466 39.4688173,26.2414247 39.2639642,26.3721835 C39.1894722,26.4469028 39.0591111,26.4655827 38.9473731,26.4655827 Z" id="Shape" fill="#000000" fill-rule="nonzero"></path>
                            <path d="M38.9227974,26.3012002 C38.6825369,26.3012002 38.4607581,26.1715254 38.3498686,25.9492257 C38.1835345,25.6343012 38.3129055,25.2452768 38.6455738,25.0785521 L45.7055344,21.5402826 L45.7794607,12.6482966 C45.7794607,12.2963221 46.0751658,11.9999226 46.4263157,11.9999226 C46.4263157,11.9999226 46.4263157,11.9999226 46.4263157,11.9999226 C46.7774656,11.9999226 47.0731707,12.2963221 47.0731707,12.6482966 L46.9992444,21.929307 C46.9992444,22.1701316 46.8513919,22.3924313 46.6480946,22.5035811 L39.2369841,26.2085753 C39.1260947,26.2826752 39.0152052,26.3012002 38.9227974,26.3012002 Z" id="Shape" fill="#000000" fill-rule="nonzero"></path>
                            <path d="M42.5133136,17.0957801 C42.1600947,17.0957801 41.8626472,16.7951398 41.8626472,16.4381294 L41.8626472,14.8033977 L37.3265724,12.4170651 C37.0105344,12.247955 36.8804012,11.8533645 37.0477154,11.5339342 C37.2150296,11.2145039 37.6054295,11.0829737 37.9214675,11.2520839 L42.8107611,13.8075266 C43.0338468,13.9202667 43.1639801,14.145747 43.1639801,14.3900172 L43.1639801,16.4381294 C43.1639801,16.7951398 42.8665326,17.0957801 42.5133136,17.0957801 Z" id="Shape" fill="#000000" fill-rule="nonzero"></path>
                        </g>
                    </g>
                </g>
            </g>
        </g>
    </g>
</svg>