<?xml version="1.0" encoding="UTF-8"?>
<svg width="88px" height="88px" viewBox="0 0 88 88" version="1.1" xmlns="http://www.w3.org/2000/svg" xmlns:xlink="http://www.w3.org/1999/xlink">
    <!-- Generator: sketchtool 50.2 (55047) - http://www.bohemiancoding.com/sketch -->
    <title>F820DDC9-C2B5-4442-8E6A-BCB450916D9C</title>
    <desc>Created with sketchtool.</desc>
    <defs>
        <rect id="path-1" x="0" y="0" width="80" height="80"></rect>
        <filter x="-6.9%" y="-6.9%" width="116.2%" height="116.2%" filterUnits="objectBoundingBox" id="filter-2">
            <feOffset dx="1" dy="1" in="SourceAlpha" result="shadowOffsetOuter1"></feOffset>
            <feGaussianBlur stdDeviation="2" in="shadowOffsetOuter1" result="shadowBlurOuter1"></feGaussianBlur>
            <feComposite in="shadowBlurOuter1" in2="SourceAlpha" operator="out" result="shadowBlurOuter1"></feComposite>
            <feColorMatrix values="0 0 0 0 0   0 0 0 0 0   0 0 0 0 0  0 0 0 0.15 0" type="matrix" in="shadowBlurOuter1"></feColorMatrix>
        </filter>
        <path d="M16.4100346,32.9082925 C19.4952273,32.2815662 24.9644038,33.6314145 27.867034,27.1691086 C29.380505,23.799574 32.6559005,20.420135 32.6559005,16.4541462 C32.6559005,12.1160753 31.3106594,8.40898069 27.867034,6.31158639 C24.1341016,4.03798514 21.0992199,0 16.4100346,0 C11.710261,0 8.50562095,3.90737465 5.28157246,5.75229155 C1.86137228,7.70945353 1.10125594,12.7342584 0.164168645,16.4541462 C-0.86557746,20.541855 3.17395562,24.2222549 6.00810132,28.4778068 C8.10869402,31.6319077 13.8002935,33.4384355 16.4100346,32.9082925 Z" id="path-3"></path>
    </defs>
    <g id="Paketo-Website-Design" stroke="none" stroke-width="1" fill="none" fill-rule="evenodd">
        <g id="Landing-page-Hercules-Mobile" transform="translate(-174.000000, -2849.000000)">
            <g id="Group-17-Copy-2" transform="translate(177.000000, 2852.000000)">
                <g id="Rectangle-7-Copy-14">
                    <use fill="black" fill-opacity="1" filter="url(#filter-2)" xlink:href="#path-1"></use>
                    <rect stroke="#E0E0E0" stroke-width="1" stroke-linejoin="square" fill="#FFFFFF" fill-rule="evenodd" x="0.5" y="0.5" width="79" height="79"></rect>
                </g>
                <g id="Group-6" transform="translate(9.000000, 8.000000)">
                    <text id="Infrastructure-Autom" font-family="Roboto-Medium, Roboto" font-size="6" font-weight="400" line-spacing="11" fill="#393939">
                        <tspan x="13.4709691" y="6.67479675">Infrastructure </tspan>
                        <tspan x="16.1516332" y="17.6747967">Automation</tspan>
                    </text>
                    <g id="Group-55-Copy" transform="translate(14.592979, 30.674797)">
                        <g id="pattern/circle" transform="translate(1.252789, 0.000000)">
                            <g id="color/light-sky">
                                <mask id="mask-4" fill="white">
                                    <use xlink:href="#path-3"></use>
                                </mask>
                                <use id="Mask" fill="#A5D5FA" xlink:href="#path-3"></use>
                                <g mask="url(#mask-4)" fill="#A5D5FA" id="Rectangle">
                                    <g transform="translate(-1.253165, -0.846154)">
                                        <rect x="0" y="0" width="37" height="36"></rect>
                                    </g>
                                </g>
                            </g>
                        </g>
                        <g id="Group-47" transform="translate(0.000000, 1.099729)" fill="#000000" fill-rule="nonzero">
                            <g id="Group-46">
                                <path d="M25.557066,30.7924119 C25.5414061,30.7924119 25.5257463,30.7924119 25.5100864,30.7924119 C20.1857348,30.7767015 15.8322943,26.4092063 15.8166344,21.0833759 C15.8009746,18.4911576 16.8188653,16.0403329 18.6667285,14.1865041 C20.5145918,12.3326752 22.9575296,11.3114983 25.557066,11.3114983 C25.557066,11.3114983 25.5727258,11.3114983 25.5727258,11.3114983 C30.8970775,11.3114983 35.250518,15.6789934 35.250518,21.0205343 C35.250518,23.6441734 34.2326272,26.1107085 32.384764,27.9645374 C30.5369008,29.771235 28.1252827,30.7924119 25.557066,30.7924119 Z M25.557066,12.3955168 C23.2550669,12.3955168 21.0783466,13.3067209 19.4340616,14.9563144 C17.8054364,16.6059079 16.8971646,18.773945 16.9128245,21.0833759 C16.9284843,25.8122106 20.7808093,29.6769725 25.5100864,29.7083933 C27.7964256,29.7083933 29.957486,28.8128997 31.6017711,27.1790166 C33.2460562,25.5294232 34.1543279,23.3456756 34.1543279,21.0205343 C34.1386681,16.2602787 30.286343,12.3955168 25.557066,12.3955168 C25.557066,12.3955168 25.557066,12.3955168 25.557066,12.3955168 Z M22.1745367,26.5506001 L19.7472587,26.5506001 C19.4497214,26.5506001 19.1991637,26.2992334 19.1991637,26.0007356 L19.1991637,21.0205343 C19.1991637,20.7220364 19.4497214,20.4706698 19.7472587,20.4706698 L22.1745367,20.4706698 C22.472074,20.4706698 22.7226317,20.7220364 22.7226317,21.0205343 L22.7226317,26.0007356 C22.7226317,26.2992334 22.472074,26.5506001 22.1745367,26.5506001 Z M20.2796939,25.4508711 L21.6107818,25.4508711 L21.6107818,21.5703988 L20.2796939,21.5703988 L20.2796939,25.4508711 Z M26.4653377,26.5034688 L23.9910802,26.5034688 C23.6935429,26.5034688 23.4429852,26.2521022 23.4429852,25.9536043 L23.4429852,19.150995 C23.4429852,18.8524971 23.6935429,18.6011305 23.9910802,18.6011305 L26.4653377,18.6011305 C26.762875,18.6011305 27.0134328,18.8524971 27.0134328,19.150995 L27.0134328,25.9536043 C27.0134328,26.2678126 26.762875,26.5034688 26.4653377,26.5034688 Z M24.5391752,25.4037398 L25.9172427,25.4037398 L25.9172427,19.7008595 L24.5391752,19.7008595 L24.5391752,25.4037398 Z M30.5995402,26.4877584 L27.9686841,26.4877584 C27.6711468,26.4877584 27.4205891,26.2363918 27.4205891,25.9378939 C27.4205891,25.3094774 27.4205891,24.6182191 27.4205891,23.9112505 C27.4205891,21.6803717 27.4362489,19.1352846 27.3892693,17.2029036 C27.3892693,17.0615099 27.4362489,16.9201161 27.5458679,16.8101432 C27.6554869,16.7001703 27.7964256,16.6530391 27.9373644,16.6530391 L30.5838803,16.6530391 C30.7248191,16.6530391 30.8657578,16.7158808 30.9753768,16.8258537 C31.0849958,16.9358266 31.1319754,17.0772203 31.1319754,17.218614 C31.1006556,18.8839179 31.1006556,21.1933488 31.1163155,23.2199923 C31.1163155,24.1940379 31.1319754,25.1366628 31.1319754,25.9536043 C31.1476352,26.2363918 30.8970775,26.4877584 30.5995402,26.4877584 Z M28.5167791,25.3880294 L30.0357853,25.3880294 C30.0357853,24.7124816 30.0357853,23.9740921 30.0201255,23.2042818 C30.0044656,21.3818738 30.0044656,19.3395199 30.0201255,17.7370577 L28.4854594,17.7370577 C28.5167791,19.606597 28.5011192,21.884607 28.5011192,23.9112505 C28.5167791,24.4139837 28.5167791,24.916717 28.5167791,25.3880294 Z" id="Shape"></path>
                                <path d="M24.9838266,11.1888043 C24.9525069,11.1888043 24.936847,11.1888043 24.9055273,11.1888043 C24.60799,11.141673 24.388752,10.874596 24.4357316,10.5760981 C24.5453506,9.72773573 24.5610104,8.91079419 24.4670513,8.15669431 C24.4357316,7.85819644 24.6549696,7.57540898 24.9525069,7.54398815 C25.2500442,7.51256732 25.5319216,7.73251312 25.5632413,8.031011 C25.6572005,8.89508378 25.6572005,9.79057739 25.5319216,10.7332022 C25.4849421,10.9845689 25.2500442,11.1888043 24.9838266,11.1888043 Z" id="Shape"></path>
                                <path d="M8.46909827,26.3306543 C6.16709917,26.3306543 4.13131766,25.5765544 2.65929102,24.084065 C-1.24001357,20.1250407 0.200693348,12.4740689 5.9322013,6.66121564 C9.36171016,3.18921409 13.7151506,1.11543941 17.5674757,1.099729 C17.5674757,1.099729 17.5674757,1.099729 17.5831355,1.099729 C19.947774,1.099729 21.9678957,1.8695393 23.4242625,3.34631823 C23.8783983,3.80192025 24.2698948,4.32036392 24.583092,4.88593883 C24.7240307,5.15301587 24.6457314,5.48293457 24.3795138,5.64003871 C24.1132962,5.79714286 23.7844392,5.70288037 23.6278406,5.43580333 C23.361623,4.9644909 23.032766,4.5245993 22.6412696,4.13183895 C21.388481,2.87500581 19.6502367,2.21516841 17.5831355,2.21516841 C17.5831355,2.21516841 17.5831355,2.21516841 17.5674757,2.21516841 C13.9970281,2.21516841 9.9411249,4.17897019 6.71519419,7.44673635 C4.13131766,10.0546651 2.39307344,13.1496167 1.79799884,16.1660163 C1.21858411,19.1038637 1.79799884,21.6489508 3.44228391,23.3142547 C5.86956187,25.7807898 10.0977235,25.8907627 14.4824837,23.6127526 C14.7487012,23.4713589 15.0775583,23.5813318 15.218497,23.8484088 C15.3594357,24.1154859 15.2498167,24.4454046 14.9835991,24.5867983 C12.7285796,25.7336585 10.4892199,26.3306543 8.46909827,26.3306543 Z" id="Shape"></path>
                                <path d="M22.8454227,11.5186278 C22.6575044,11.5186278 22.4695861,11.4243653 22.3756269,11.2358403 C21.5143348,9.72764057 19.9326891,7.6695763 18.6016012,6.33419109 C13.9349636,1.66819806 7.84327889,-0.154209994 4.11623274,2.01382717 C3.85001515,2.17093132 3.52115814,2.07666883 3.36455956,1.80959179 C3.20796098,1.54251475 3.30192013,1.21259605 3.56813771,1.0554919 C5.58825937,-0.122789165 8.29741477,-0.32702455 11.1788286,0.505627405 C14.0289227,1.32256895 16.9416563,3.11355617 19.3845941,5.54867038 C20.7939813,6.96260766 22.4226065,9.06780317 23.3465381,10.6702654 C23.5031367,10.9373425 23.4091776,11.2672612 23.14296,11.4243653 C23.033341,11.487207 22.9393818,11.5186278 22.8454227,11.5186278 Z" id="Shape"></path>
                                <path d="M14.7215452,24.8686775 C14.6902255,24.8686775 14.6589058,24.8686775 14.6275861,24.8529671 C11.5582539,24.3031026 8.69249996,22.6220883 5.60750797,19.5585575 C0.64333305,14.6254874 -1.29848932,8.1842176 0.893890775,3.91098493 C1.0348295,3.64390789 1.36368651,3.53393499 1.62990409,3.67532872 C1.89612167,3.81672244 2.00574068,4.14664114 1.86480196,4.41371819 C-0.0770204089,8.19992802 1.81782239,14.2484375 6.37484101,18.7730368 C9.28757456,21.6794634 11.9810701,23.2662153 14.8155044,23.7689485 C15.1130417,23.8160798 15.3166198,24.1145777 15.2539804,24.4130755 C15.2070008,24.6801526 14.9877628,24.8686775 14.7215452,24.8686775 Z" id="Shape"></path>
                                <path d="M2.56821668,4.83880759 C1.4093872,4.83880759 0.469795734,3.89618273 0.469795734,2.73361208 C0.469795734,1.57104142 1.4093872,0.62841657 2.56821668,0.62841657 C3.72704616,0.62841657 4.66663763,1.57104142 4.66663763,2.73361208 C4.66663763,3.89618273 3.72704616,4.83880759 2.56821668,4.83880759 Z M2.56821668,1.72814557 C2.02012166,1.72814557 1.56598578,2.18374758 1.56598578,2.73361208 C1.56598578,3.28347658 2.02012166,3.73907859 2.56821668,3.73907859 C3.1163117,3.73907859 3.57044758,3.28347658 3.57044758,2.73361208 C3.57044758,2.18374758 3.1163117,1.72814557 2.56821668,1.72814557 Z" id="Shape"></path>
                                <path d="M24.9618133,8.60930701 C23.8029839,8.60930701 22.8633924,7.66668215 22.8633924,6.5041115 C22.8633924,5.34154084 23.8029839,4.39891599 24.9618133,4.39891599 C26.1206428,4.39891599 27.0602343,5.34154084 27.0602343,6.5041115 C27.0602343,7.66668215 26.1206428,8.60930701 24.9618133,8.60930701 Z M24.9618133,5.49864499 C24.4137183,5.49864499 23.9595824,5.954247 23.9595824,6.5041115 C23.9595824,7.053976 24.4137183,7.50957801 24.9618133,7.50957801 C25.5099084,7.50957801 25.9640442,7.053976 25.9640442,6.5041115 C25.9640442,5.954247 25.5099084,5.49864499 24.9618133,5.49864499 Z" id="Shape"></path>
                            </g>
                        </g>
                    </g>
                </g>
            </g>
        </g>
    </g>
</svg>