<svg xmlns="http://www.w3.org/2000/svg" width="36" height="35" viewBox="0 0 36 35">
    <path fill="#F38082" fill-rule="nonzero" stroke="#F38082" stroke-width="1.2" d="M1.531 1.144c-.293 0-.531.255-.531.568V26.36c0 .313.238.568.531.568h15.932v5.925h-6.044c-.718-.01-.718 1.147 0 1.137h13.175c.718.01.718-1.148 0-1.137h-6.069v-5.925h15.932c.293 0 .531-.255.531-.568V1.712c0-.313-.238-.568-.53-.568H1.53zm.531 1.137h31.864v23.51c-10.63-.009-21.235 0-31.864 0V2.28zM13.09 6.46a.528.528 0 0 0-.489.314l-3.115 6.692h-2.96c-.718-.01-.718 1.148 0 1.137h3.287a.529.529 0 0 0 .476-.316l2.622-5.63 2.918 12.444c.043.636.882.727 1.042.112l.001-.006a.507.507 0 0 0 .006-.024l.001-.005.006-.026L19.627 9.37l2.77 11.81c.12.512.77.588.99.116l3.117-6.693h2.96c.717.01.717-1.147 0-1.137h-3.288a.529.529 0 0 0-.476.316l-2.622 5.63L20.14 6.89a.54.54 0 0 0-.502-.43.538.538 0 0 0-.528.43L16.36 18.7 13.59 6.89a.54.54 0 0 0-.501-.43z"/>
</svg>
