<svg xmlns="http://www.w3.org/2000/svg" xmlns:xlink="http://www.w3.org/1999/xlink" width="79" height="60" viewBox="0 0 79 60">
    <defs>
        <path id="a" d="M3.623 6.727c-1.73-13.62 48.233-2.809 51.142 0 2.908 2.809 6.247 11.319 4.53 21.329-1.715 10.01 0 25.016-4.53 29.812-4.532 4.796-42.185 0-51.142 0-8.956 0 1.73-37.522 0-51.141z"/>
    </defs>
    <g fill="none" fill-rule="evenodd">
        <g transform="translate(9)">
            <mask id="b" fill="#fff">
                <use xlink:href="#a"/>
            </mask>
            <use fill="#CCBFF6" xlink:href="#a"/>
            <g fill="#CCBFF6" mask="url(#b)">
                <path d="M-1.538-1.538h65v66h-65z"/>
            </g>
        </g>
        <g fill="#000" fill-rule="nonzero" transform="translate(0 4)">
            <path d="M6.902 35.84c-3.708 0-6.76-3.032-6.76-6.78 0-3.746 3.024-6.778 6.76-6.778 3.736 0 6.759 3.032 6.759 6.779s-3.023 6.779-6.76 6.779zm0-11.527c-2.624 0-4.763 2.145-4.763 4.776 0 2.632 2.139 4.777 4.763 4.777s4.763-2.145 4.763-4.777c0-2.631-2.14-4.776-4.763-4.776z"/>
            <ellipse cx="14.288" cy="6.407" rx="1.426" ry="1.43"/>
            <ellipse cx="19.308" cy="6.407" rx="1.426" ry="1.43"/>
            <ellipse cx="24.356" cy="6.407" rx="1.426" ry="1.43"/>
            <path d="M23.671 29.862H13.404c-.542 0-.998-.458-.998-1.001 0-.544.456-1.002.998-1.002h10.267c.542 0 .999.458.999 1.002 0 .543-.457 1-.999 1zM39.443 35.84c-3.708 0-6.76-3.032-6.76-6.78 0-3.746 3.024-6.778 6.76-6.778 3.736 0 6.76 3.032 6.76 6.779s-3.024 6.779-6.76 6.779zm0-11.527c-2.624 0-4.763 2.145-4.763 4.776 0 2.632 2.14 4.777 4.763 4.777 2.624 0 4.763-2.145 4.763-4.777 0-2.631-2.14-4.776-4.763-4.776z"/>
            <path d="M55.5 29.862h-9.697c-.542 0-.998-.458-.998-1.001 0-.544.456-1.002.998-1.002H55.5c.542 0 .998.458.998 1.002 0 .543-.456 1-.998 1z"/>
            <path d="M51.535 34.524a.959.959 0 0 1-.741-.343c-.37-.4-.342-1.059.085-1.402l4.193-3.775-3.936-3.604a.996.996 0 0 1-.057-1.402.989.989 0 0 1 1.398-.057l4.734 4.348c.2.2.314.457.314.743a.964.964 0 0 1-.343.744l-5.02 4.52c-.142.142-.37.228-.627.228zM20.449 34.524a.959.959 0 0 1-.742-.343c-.37-.4-.342-1.059.086-1.402l4.192-3.775L20.05 25.4a.996.996 0 0 1-.057-1.402.989.989 0 0 1 1.398-.057l4.734 4.348c.2.2.314.457.314.743a.964.964 0 0 1-.342.744l-5.02 4.52c-.142.142-.37.228-.627.228zM72.184 35.84c-3.708 0-6.76-3.032-6.76-6.78a6.74 6.74 0 0 1 6.76-6.75c3.736 0 6.759 3.032 6.759 6.78 0 3.746-3.052 6.75-6.76 6.75zm0-11.527c-2.624 0-4.763 2.145-4.763 4.776 0 2.632 2.139 4.777 4.763 4.777s4.763-2.145 4.763-4.777c0-2.631-2.168-4.776-4.763-4.776z"/>
            <path d="M66.423 50.8h-53.36c-3.88 0-7.045-3.176-7.045-7.066V7.265C6.018 3.375 9.183.2 13.062.2h53.36c3.88 0 7.045 3.175 7.045 7.065v36.47c0 3.89-3.166 7.064-7.044 7.064zM13.063 2.201a5.046 5.046 0 0 0-5.049 5.063v36.47a5.046 5.046 0 0 0 5.048 5.062h53.36a5.046 5.046 0 0 0 5.049-5.063V7.265a5.046 5.046 0 0 0-5.048-5.063h-53.36z"/>
            <path d="M72.469 12.042H7.044c-.541 0-.998-.458-.998-1.001 0-.544.457-1.001.998-1.001H72.47c.542 0 .998.457.998 1 0 .544-.456 1.002-.998 1.002z"/>
        </g>
    </g>
</svg>
