<svg xmlns="http://www.w3.org/2000/svg" xmlns:xlink="http://www.w3.org/1999/xlink" width="202" height="154" viewBox="0 0 202 154">
    <defs>
        <path id="a" d="M9.239 17.266c-4.411-34.956 122.993-7.21 130.41 0 7.418 7.21 15.932 29.051 11.555 54.743-4.376 25.692 0 64.21-11.554 76.52-11.555 12.31-107.572 0-130.411 0s4.41-96.307 0-131.263z"/>
    </defs>
    <g fill="none" fill-rule="evenodd">
        <g transform="translate(24)">
            <mask id="b" fill="#fff">
                <use xlink:href="#a"/>
            </mask>
            <use fill="#CCBFF6" xlink:href="#a"/>
            <g fill="#523D93" mask="url(#b)">
                <path d="M-3.923-3.949h167v170h-167z"/>
            </g>
        </g>
        <g fill="#FFF" fill-rule="nonzero" transform="translate(0 12)">
            <path d="M17.648 92.059c-9.48 0-17.283-7.788-17.283-17.413 0-9.624 7.73-17.412 17.283-17.412S34.93 65.022 34.93 74.646c0 9.625-7.73 17.413-17.283 17.413zm0-29.609c-6.71 0-12.179 5.51-12.179 12.27s5.47 12.27 12.179 12.27c6.709 0 12.178-5.51 12.178-12.27s-5.47-12.27-12.178-12.27z"/>
            <ellipse cx="36.535" cy="16.457" rx="3.646" ry="3.674"/>
            <ellipse cx="49.37" cy="16.457" rx="3.646" ry="3.674"/>
            <ellipse cx="62.277" cy="16.457" rx="3.646" ry="3.674"/>
            <path d="M60.527 76.704H34.274c-1.385 0-2.552-1.176-2.552-2.572 0-1.396 1.167-2.571 2.552-2.571h26.253c1.386 0 2.552 1.175 2.552 2.571 0 1.396-1.166 2.572-2.552 2.572zM100.854 92.059c-9.48 0-17.283-7.788-17.283-17.413 0-9.624 7.73-17.412 17.283-17.412s17.283 7.788 17.283 17.412c0 9.625-7.73 17.413-17.283 17.413zm0-29.609c-6.709 0-12.178 5.51-12.178 12.27s5.47 12.27 12.178 12.27c6.71 0 12.178-5.51 12.178-12.27s-5.469-12.27-12.178-12.27z"/>
            <path d="M141.91 76.704h-24.794c-1.385 0-2.552-1.176-2.552-2.572 0-1.396 1.167-2.571 2.552-2.571h24.794c1.386 0 2.553 1.175 2.553 2.571 0 1.396-1.167 2.572-2.553 2.572z"/>
            <path d="M131.774 88.68c-.73 0-1.386-.295-1.896-.882-.948-1.029-.875-2.719.219-3.6l10.72-9.699-10.064-9.257c-1.02-.955-1.094-2.571-.146-3.6.948-1.029 2.553-1.102 3.574-.147l12.105 11.168c.51.514.802 1.175.802 1.91 0 .735-.292 1.396-.875 1.91l-12.835 11.609c-.364.367-.948.587-1.604.587zM52.287 88.68c-.73 0-1.386-.295-1.896-.882-.948-1.029-.875-2.719.218-3.6l10.72-9.699-10.063-9.257c-1.021-.955-1.094-2.571-.146-3.6.948-1.029 2.552-1.102 3.573-.147L66.8 72.663c.51.514.802 1.175.802 1.91 0 .735-.292 1.396-.875 1.91L53.89 88.092c-.365.367-.948.587-1.604.587zM184.571 92.059c-9.48 0-17.283-7.788-17.283-17.413 0-9.624 7.73-17.339 17.283-17.339s17.283 7.788 17.283 17.413-7.803 17.339-17.283 17.339zm0-29.609c-6.709 0-12.178 5.51-12.178 12.27s5.47 12.27 12.178 12.27c6.71 0 12.178-5.51 12.178-12.27s-5.542-12.27-12.178-12.27z"/>
            <path d="M169.84 130.484H33.4c-9.918 0-18.013-8.155-18.013-18.147V18.662C15.387 8.67 23.482.514 33.399.514H169.84c9.918 0 18.013 8.156 18.013 18.148v93.675c0 9.992-8.095 18.147-18.013 18.147zM33.4 5.657c-7.147 0-12.908 5.804-12.908 13.005v93.675c0 7.2 5.76 13.004 12.907 13.004H169.84c7.147 0 12.908-5.804 12.908-13.004V18.662c0-7.2-5.761-13.005-12.908-13.005H33.4z"/>
            <path d="M185.3 30.931H18.012c-1.385 0-2.552-1.175-2.552-2.571 0-1.396 1.167-2.572 2.552-2.572H185.3c1.386 0 2.553 1.176 2.553 2.572 0 1.396-1.167 2.571-2.553 2.571z"/>
        </g>
    </g>
</svg>
