<svg xmlns="http://www.w3.org/2000/svg" width="38" height="70" viewBox="0 0 38 70">
    <g fill="#41A1FA" fill-rule="nonzero">
        <path d="M30.676 2.48H9.514A2.5 2.5 0 0 0 8.849.728 2.269 2.269 0 0 0 7.192 0h-4.85A2.266 2.266 0 0 0 .687.706 2.497 2.497 0 0 0 0 2.436v5.088c0 .65.247 1.273.687 1.73.44.458 1.036.712 1.655.706h4.85c.616 0 1.207-.257 1.642-.713.435-.457.68-1.077.68-1.723h21.162a2.342 2.342 0 0 1 1.74.693c.467.466.737 1.11.748 1.786v24.791c0 1.393-1.077 2.523-2.405 2.523H19.028a2.503 2.503 0 0 0-.657-1.787 2.268 2.268 0 0 0-1.685-.736h-4.83c-1.282 0-2.321 1.09-2.321 2.436v5.089c0 1.345 1.039 2.435 2.321 2.435h4.83c.615 0 1.206-.257 1.641-.713.435-.457.68-1.077.68-1.722h11.67c3.964 0 7.18-3.366 7.192-7.525v-24.79c-.012-4.16-3.228-7.525-7.193-7.525z"/>
        <path d="M35.546 60.145h-4.853c-1.283 0-2.322 1.08-2.322 2.41H7.196c-1.312 0-2.383-1.091-2.405-2.453V28.215c0-1.378 1.077-2.496 2.405-2.496h11.655c0 1.331 1.04 2.41 2.323 2.41h4.853c1.283 0 2.323-1.079 2.323-2.41v-4.992c-.023-1.314-1.056-2.367-2.323-2.366h-4.853c-1.267 0-2.3 1.052-2.323 2.366H7.196c-1.912 0-3.745.79-5.096 2.195A7.612 7.612 0 0 0 0 28.215v31.887c0 4.124 3.222 7.467 7.196 7.467H28.35c-.006.646.24 1.268.68 1.725a2.28 2.28 0 0 0 1.663.706h4.853c1.283 0 2.323-1.079 2.323-2.41v-5.035c0-1.33-1.04-2.41-2.323-2.41z"/>
    </g>
</svg>
