<svg xmlns="http://www.w3.org/2000/svg" width="31" height="30" viewBox="0 0 31 30">
    <path fill="#F38082" fill-rule="nonzero" stroke="#F38082" stroke-width=".8" d="M1.453 1C1.203 1 1 1.217 1 1.484v21.011c0 .268.203.485.453.485h13.594v5.051H9.89c-.613-.01-.613.978 0 .969h11.241c.613.01.613-.978 0-.969h-5.178V22.98h13.594c.25 0 .453-.217.453-.485V1.485c0-.268-.203-.485-.453-.485H1.453zm.453.969h27.188V22.01c-9.07-.007-18.12 0-27.188 0V1.969zm9.408 3.563a.45.45 0 0 0-.416.269l-2.659 5.705H5.714c-.613-.01-.613.977 0 .968H8.52c.172 0 .33-.104.406-.268l2.237-4.801 2.49 10.609c.036.542.752.62.889.096v-.005a.432.432 0 0 0 .006-.02v-.005l.005-.023 2.342-10.045 2.363 10.07c.103.435.657.5.845.098l2.659-5.707h2.525c.613.01.613-.978 0-.968H22.48a.451.451 0 0 0-.406.268l-2.237 4.801L17.33 5.898a.46.46 0 0 0-.428-.367.46.46 0 0 0-.45.367l-2.347 10.068-2.363-10.068a.46.46 0 0 0-.429-.367z"/>
</svg>
