<svg xmlns="http://www.w3.org/2000/svg" width="32" height="35" viewBox="0 0 32 35">
    <g fill="#37B8AE" fill-rule="nonzero">
        <path d="M0 26.092C0 29.46 5.588 32 13 32c.707 0 1.413-.022 2.098-.072a.89.89 0 0 0 .822-.943.886.886 0 0 0-.944-.82c-.65.043-1.313.072-1.976.072-6.619 0-11.233-2.188-11.233-4.145v-3.67C3.98 24.157 8.09 25.272 13 25.272c.447 0 .894-.007 1.341-.029a.88.88 0 0 0 .844-.921.88.88 0 0 0-.923-.842c-.418.022-.844.029-1.262.029-6.619 0-11.233-2.188-11.233-4.145v-3.663C3.98 17.436 8.09 18.551 13 18.551c7.412 0 13-2.54 13-5.908V5.908C26 2.54 20.412 0 13 0S0 2.54 0 5.908v20.184zm13-9.311c-6.619 0-11.233-2.188-11.233-4.145v-3.67C3.98 10.7 8.09 11.816 13 11.816s9.02-1.116 11.234-2.85v3.67C24.24 14.6 19.625 16.78 13 16.78zm0-15.025c6.619 0 11.233 2.187 11.233 4.145 0 1.957-4.614 4.144-11.233 4.144-6.619 0-11.233-2.18-11.233-4.137C1.767 3.95 6.38 1.756 13 1.756z"/>
        <path d="M16 27c0 4.41 3.59 8 8 8s8-3.59 8-8-3.59-8-8-8-8 3.583-8 8zm14.325 0A6.332 6.332 0 0 1 24 33.325 6.332 6.332 0 0 1 17.675 27 6.332 6.332 0 0 1 24 20.675 6.328 6.328 0 0 1 30.325 27z"/>
        <path d="M23.326 26.171a.738.738 0 0 0-1.098 0 .868.868 0 0 0 0 1.174l1.313 1.41a.748.748 0 0 0 .552.245.745.745 0 0 0 .545-.244l3.134-3.338a.868.868 0 0 0 0-1.174.738.738 0 0 0-1.098 0l-2.581 2.748-.767-.821z"/>
    </g>
</svg>
