<svg xmlns="http://www.w3.org/2000/svg" width="33" height="36" viewBox="0 0 33 36">
    <g fill="#41A1FA" fill-rule="nonzero" stroke="#41A1FA">
        <path stroke-width=".5" d="M31.532 26.267l-.834-.16a1.116 1.116 0 0 1-.843-.701 1.115 1.115 0 0 1 .141-1.088l.524-.713a.577.577 0 0 0-.058-.75l-1.13-1.129a.578.578 0 0 0-.732-.07l-.702.476c-.329.224-.728.26-1.093.1a1.117 1.117 0 0 1-.67-.87l-.134-.873a.576.576 0 0 0-.57-.489h-1.597a.577.577 0 0 0-.567.468l-.206 1.076a1.119 1.119 0 0 1-.682.836c-.36.15-.75.109-1.073-.11l-.907-.613a.578.578 0 0 0-.731.07l-1.13 1.13a.577.577 0 0 0-.058.749l.523.713c.235.32.287.717.141 1.087a1.116 1.116 0 0 1-.843.702l-.833.16a.577.577 0 0 0-.468.566v1.598c0 .285.208.527.49.57l.873.135c.394.06.711.304.87.669.16.365.123.763-.1 1.093l-.476.702a.577.577 0 0 0 .07.732l1.13 1.13c.2.201.518.225.749.058l.713-.524c.32-.235.718-.286 1.087-.14.371.145.627.452.702.843l.16.833c.052.27.29.467.566.467h1.598a.577.577 0 0 0 .57-.49l.095-.614c.06-.397.318-.724.688-.878a1.13 1.13 0 0 1 1.108.134l.502.368c.23.17.548.144.75-.058l1.129-1.13a.577.577 0 0 0 .07-.731l-.476-.702a1.118 1.118 0 0 1-.1-1.094c.158-.364.475-.608.87-.669l.873-.134a.577.577 0 0 0 .489-.57v-1.598a.578.578 0 0 0-.468-.567zm-.686 1.67l-.385.06a2.278 2.278 0 0 0-1.751 1.348 2.279 2.279 0 0 0 .203 2.201l.208.307-.443.444-.102-.075a2.277 2.277 0 0 0-2.232-.27c-.747.31-1.265.97-1.388 1.768l-.019.126h-.626l-.07-.365a2.28 2.28 0 0 0-1.413-1.7 2.287 2.287 0 0 0-2.192.285l-.314.23-.443-.443.208-.308a2.28 2.28 0 0 0 .203-2.2 2.28 2.28 0 0 0-1.751-1.349l-.385-.059v-.626l.365-.07a2.28 2.28 0 0 0 1.7-1.413 2.282 2.282 0 0 0-.285-2.192l-.23-.314.443-.443.513.347a2.284 2.284 0 0 0 2.162.22 2.286 2.286 0 0 0 1.373-1.684l.116-.608h.626l.06.385c.12.78.624 1.436 1.348 1.751a2.28 2.28 0 0 0 2.201-.203l.307-.208.444.443-.23.314a2.28 2.28 0 0 0-.286 2.192 2.28 2.28 0 0 0 1.7 1.413l.365.07v.626z"/>
        <path stroke-width=".5" d="M24.5 25a2.503 2.503 0 0 0-2.5 2.5c0 1.378 1.122 2.5 2.5 2.5s2.5-1.122 2.5-2.5-1.122-2.5-2.5-2.5zm0 4c-.827 0-1.5-.673-1.5-1.5s.673-1.5 1.5-1.5 1.5.673 1.5 1.5-.673 1.5-1.5 1.5z"/>
        <path d="M14.5 23.44c-.447 0-.884-.01-1.313-.025-.263-.01-.516-.027-.772-.042-.158-.01-.321-.015-.477-.027a30.28 30.28 0 0 1-.997-.091c-.062-.007-.126-.011-.187-.018-.374-.041-.739-.089-1.094-.142-.01 0-.018-.002-.028-.003-1.827-.274-3.396-.692-4.622-1.188a11.395 11.395 0 0 1-.66-.292l-.072-.033a8.551 8.551 0 0 1-.51-.272c-.038-.022-.078-.043-.114-.066a6.224 6.224 0 0 1-.39-.253l-.139-.099a4.458 4.458 0 0 1-.284-.233c-.048-.043-.096-.086-.14-.129a2.952 2.952 0 0 1-.314-.366 1.94 1.94 0 0 1-.202-.365 1.353 1.353 0 0 1-.062-.198c-.02-.087-.043-.175-.043-.264v-4.491c.015.014.034.028.05.042.118.104.237.209.372.31 2.034 1.56 6.102 2.771 11.998 2.771 5.871 0 9.928-1.202 11.971-2.752.163-.12.31-.244.448-.37l.001 2.028c0 .302.241.547.54.547.299 0 .54-.245.54-.547V5.926c0-.1-.033-.188-.079-.269C27.296 3.31 22.641 1 14.5 1 6.358 1 1.704 3.31 1.079 5.657A.541.541 0 0 0 1 5.926v20.25c0 .088.023.17.062.245.615 2.645 5.773 4.203 10.697 4.577a.542.542 0 0 0 .579-.505.545.545 0 0 0-.498-.586c-6.001-.456-9.499-2.308-9.743-3.82a.533.533 0 0 0-.017-.072V21.41c.015.015.034.028.05.042.118.105.237.21.372.31 2.034 1.56 6.102 2.772 11.998 2.772.299 0 .54-.245.54-.548a.543.543 0 0 0-.54-.547zM2.405 8.55c.162.13.337.257.526.381.04.026.084.05.125.077a9.21 9.21 0 0 0 .702.4c.197.101.404.2.621.296.036.016.068.033.104.048.253.109.522.213.802.313.078.028.159.054.238.081.223.077.453.15.69.22.087.025.17.051.259.076.316.089.642.173.984.25.047.012.098.02.146.031a23.36 23.36 0 0 0 1.267.243c.307.051.622.098.945.141.084.01.164.023.247.034.402.05.817.091 1.245.127.105.01.215.016.322.023.342.026.69.046 1.048.063a41.723 41.723 0 0 0 1.824.044c.491 0 .966-.012 1.431-.028.132-.004.262-.01.393-.016.357-.017.706-.037 1.048-.063.107-.008.217-.014.322-.023.427-.035.843-.078 1.245-.127.084-.01.163-.023.247-.034a28.745 28.745 0 0 0 1.276-.198c.321-.057.635-.119.936-.186l.146-.03c.342-.078.668-.162.984-.251l.258-.076c.238-.07.468-.143.691-.22.08-.027.16-.053.238-.081.28-.1.549-.205.802-.313.036-.015.069-.032.104-.048a11.474 11.474 0 0 0 .82-.402c.177-.096.344-.194.503-.294.041-.026.086-.051.125-.077.19-.124.364-.251.526-.381.041-.033.077-.066.116-.098.07-.06.144-.118.209-.178v4.492c0 .088-.022.177-.043.265a1.333 1.333 0 0 1-.14.361 1.94 1.94 0 0 1-.242.354c-.06.071-.124.143-.196.214-.044.043-.092.086-.14.13-.089.077-.181.155-.284.232-.045.034-.092.066-.14.099-.121.085-.249.17-.389.253-.036.023-.076.044-.114.066-.16.092-.329.183-.51.272l-.072.034c-.202.097-.414.192-.64.284l-.02.008c-1.226.496-2.795.914-4.622 1.187-.01 0-.019.002-.028.004-.355.053-.72.1-1.094.141-.061.007-.125.011-.187.018-.327.034-.658.066-.997.091-.156.012-.319.018-.477.027-.256.015-.51.032-.772.042a36.774 36.774 0 0 1-2.627-.002c-.262-.01-.515-.026-.77-.042-.16-.009-.322-.015-.478-.026a30.28 30.28 0 0 1-.997-.092c-.062-.006-.126-.01-.187-.017-.374-.042-.739-.09-1.094-.142l-.028-.004c-1.827-.274-3.396-.691-4.622-1.187l-.02-.008a11.395 11.395 0 0 1-.64-.284l-.072-.034a8.551 8.551 0 0 1-.51-.272c-.038-.022-.078-.043-.114-.065a6.224 6.224 0 0 1-.39-.254c-.046-.033-.094-.065-.139-.098a4.458 4.458 0 0 1-.284-.233c-.048-.044-.096-.086-.14-.13a2.952 2.952 0 0 1-.314-.366 1.94 1.94 0 0 1-.202-.364 1.353 1.353 0 0 1-.062-.198c-.02-.087-.043-.176-.043-.264V8.275c.065.06.139.118.209.178.039.032.075.065.116.098zM14.5 2.095c7.32 0 12.42 2.163 12.42 4.104 0 1.942-5.1 4.105-12.42 4.105S2.08 8.141 2.08 6.199c0-1.941 5.1-4.104 12.42-4.104z"/>
    </g>
</svg>
