<svg xmlns="http://www.w3.org/2000/svg" width="73" height="141" viewBox="0 0 73 141">
    <g fill="#523D93" fill-rule="nonzero">
        <path d="M59.135 4.97H18.34c.021-1.31-.44-2.574-1.282-3.509C16.216.526 15.066 0 13.865.001h-9.35c-1.194-.012-2.342.497-3.19 1.414C.477 2.332 0 3.58 0 4.883v10.203c0 1.302.477 2.55 1.325 3.468.848.917 1.996 1.426 3.19 1.415h9.35c1.187 0 2.325-.515 3.164-1.43.84-.916 1.31-2.158 1.31-3.453h40.796c1.243-.047 2.451.453 3.353 1.387.902.935 1.421 2.226 1.442 3.583v49.703c0 2.793-2.075 5.057-4.635 5.057H36.68c.044-1.332-.414-2.626-1.267-3.582-.853-.955-2.026-1.488-3.248-1.475h-9.31c-2.472 0-4.475 2.186-4.475 4.883v10.202c0 2.697 2.003 4.883 4.475 4.883h9.31c1.187 0 2.325-.514 3.164-1.43.84-.916 1.31-2.158 1.31-3.453h22.496c7.642 0 13.843-6.747 13.865-15.085V20.056C72.978 11.717 66.777 4.97 59.135 4.97z"/>
        <path d="M68.522 120.887h-9.354c-2.473 0-4.478 2.202-4.478 4.919H13.872c-2.53 0-4.593-2.228-4.637-5.007V55.72c0-2.814 2.076-5.094 4.637-5.094H36.34c0 2.716 2.005 4.918 4.478 4.918h9.355c2.472 0 4.477-2.202 4.477-4.918V40.437c-.044-2.682-2.035-4.831-4.477-4.83h-9.355c-2.442-.001-4.434 2.148-4.478 4.83H13.872c-3.686 0-7.22 1.611-9.823 4.478C1.446 47.782-.011 51.67 0 55.72v65.08c0 8.416 6.21 15.239 13.872 15.239H54.65c-.01 1.32.462 2.588 1.311 3.521.85.934 2.005 1.453 3.207 1.44h9.354c2.473 0 4.478-2.201 4.478-4.918v-10.275c0-2.717-2.005-4.919-4.478-4.919z"/>
    </g>
</svg>
