<svg xmlns="http://www.w3.org/2000/svg" width="241" height="83" viewBox="0 0 241 83">
    <g fill="#523D93" fill-rule="nonzero" transform="translate(2 2)">
        <path stroke="#523D93" stroke-width="4" d="M236.884 1.548a2.245 2.245 0 0 0-2.847-1.43c-7.096 2.378-22.72 20.11-26.755 24.795-7.865-.902-15.845-1.93-23.572-2.926-22.845-2.947-46.378-5.946-69.917-6.044-.817-3.012 4.062-8.722 7.854-11.821a2.266 2.266 0 0 0 .681-2.57c-.351-.914-1.213-1.506-2.22-1.447-16.096.869-24.233 12.742-26.142 15.939-2.991 1.237-6.706 3.34-10.621 5.557-4.823 2.73-9.809 5.554-12.893 6.38-4.79 1.284-57.608 5.91-68.201 5.91A2.255 2.255 0 0 0 0 36.153a2.255 2.255 0 0 0 2.251 2.263c3.96 0 63.132-4.394 69.361-6.064 3.634-.975 8.875-3.94 13.942-6.808.582-.33 1.164-.656 1.747-.985l4.173-2.295c1.808-.956 3.481-1.774 4.845-2.287a2.271 2.271 0 0 0 1.204-1.07c.242-.46 5.186-9.65 16.028-13.064-2.415 2.917-4.615 6.635-4.282 10.134-1.197.015 3.683-.004 2.485.027a2.26 2.26 0 0 0-2.191 2.322c.033 1.25 1.167 2.227 2.31 2.203 25.876-.696 45.961 2.685 71.266 5.946 8.13 1.05 16.54 2.134 24.822 3.068.739.08 1.477-.21 1.961-.78a260.774 260.774 0 0 1 10.774-11.85c-3.88 7.843-5.5 17.04-.535 23.86 1.152 1.585 2.51 2.864 3.823 4.102.512.481 1.025.963 1.52 1.462a2.245 2.245 0 0 0 3.185.002c.879-.883.879-2.315.002-3.201a77.887 77.887 0 0 0-1.627-1.567c-1.216-1.144-2.363-2.224-3.269-3.468-4.85-6.66-.903-17.256 3.95-24.306l.574-.846c4.43-6.555 6.327-8.263 7.138-8.54a2.265 2.265 0 0 0 1.427-2.863zM235.205 72.503c-4.29-.974-19.548-17.027-25.113-23.66-2.229-2.657-7.235-1.95-12.614-.911-.68.13-1.248.242-1.64.293-7.638 1.043-15.137 2.526-22.785 4.08-2.27.462-4.528.932-6.777 1.401-14.48 3.014-28.155 5.861-42.847 6.058-2.402.033-4.883.134-7.404.24-7.725.31-15.71.648-22.754-1.012-7.154-1.683-25.005-8.978-25.184-9.05-1.161-.48-2.482.135-2.934 1.375-.452 1.237.129 2.629 1.299 3.108.744.305 18.35 7.499 25.835 9.262 2.742.645 5.57 1.006 8.439 1.199 1.578 1.808 10.881 12.221 17.288 14.032.198.056.393.082.587.082 1.002 0 1.919-.709 2.19-1.784.323-1.284-.397-2.6-1.607-2.941-3.26-.922-8.323-5.528-11.92-9.207 2.985-.017 5.98-.14 8.938-.262 2.48-.103 4.92-.204 7.284-.234 9.671-.131 18.838-1.367 28.037-3.038 1.473 1.332 9.21 8.282 15.657 13.102.397.296.853.44 1.305.44a2.23 2.23 0 0 0 1.856-1.02c.723-1.084.477-2.584-.547-3.349-4.29-3.207-9.304-7.507-12.458-10.28 3.247-.642 6.509-1.317 9.815-2.005 2.242-.467 4.493-.934 6.757-1.394 7.577-1.543 14.998-3.01 22.508-4.033a40.08 40.08 0 0 0 1.875-.336c4.836-.932 7.687-1.117 8.411-.624.195.235 20.19 23.496 27.555 25.167.16.038.32.054.477.054 1.047 0 1.987-.772 2.215-1.901.264-1.298-.519-2.575-1.744-2.852z"/>
        <ellipse cx="99.5" cy="36.5" rx="6.5" ry="4.5"/>
    </g>
</svg>
