<svg xmlns="http://www.w3.org/2000/svg" width="122" height="161" viewBox="0 0 122 161">
    <path fill="#523D93" fill-rule="nonzero" d="M81.27 160.995c-1.782 0-3.486-.997-4.291-2.686-.763-1.6-4.5-11.781-3.32-55.406.069-2.515 2.14-4.53 4.69-4.553.182-.003 18.965-.38 18.965-10.628-.015-.314-.57-8.281-19.098-8.281-4.192 0-7.825 3.727-8.097 8.309l-1.14 19.192a4.885 4.885 0 0 1-.113.783c-.865 3.683-4.145 6.26-7.974 6.26-3.881 0-7.17-2.614-8-6.358a4.872 4.872 0 0 1-.103-.765l-.972-19.044c-.237-4.62-3.87-8.377-8.099-8.377-15.188 0-18.456 7.088-19.022 8.805.635 9.645 18.761 10.101 18.949 10.104 2.55.025 4.62 2.038 4.689 4.553 1.18 43.625-2.56 53.805-3.32 55.406-1.087 2.286-3.808 3.31-6.163 2.305C-1.748 143.336-.06 113.97.031 112.73a4.656 4.656 0 0 1 1.053-2.616C13.647 94.89.504 62.514.37 62.19A4.62 4.62 0 0 1 .02 60.42C.02 27.334 27.181.304 60.639.002 60.69 0 60.743 0 60.795 0h.408c.056 0 .113 0 .17.002 33.47.33 60.607 27.349 60.607 60.418 0 .606-.12 1.21-.35 1.77-.136.327-13.28 32.701-.714 47.924a4.64 4.64 0 0 1 1.052 2.616c.093 1.24 1.78 30.606-38.82 47.884a4.868 4.868 0 0 1-1.878.381zM9.484 114.663c.208 4.825 2.765 22.28 27.955 34.965.903-5.855 2.016-18.172 1.519-42.235-8.699-1.055-20.093-4.977-23.039-14.652-.156 7.785-1.848 15.61-6.435 21.922zm73.549-7.268c-.496 23.998.609 36.315 1.53 42.228 25.143-12.666 27.728-30.088 27.939-34.965-4.57-6.291-6.265-14.086-6.43-21.842-2.939 9.612-14.339 13.524-23.04 14.58zM9.5 59.552c1.232 3.178 5.085 13.885 6.154 25.921 1.35-4.123 6.976-15.391 28.064-15.391 8.497 0 15.641 6.256 17.25 14.659 1.618-8.393 8.784-14.66 17.25-14.66 11.01 0 19.084 2.52 23.99 7.49 2.55 2.581 3.686 5.289 4.19 7.282 1.142-11.786 4.884-22.18 6.095-25.3-.472-27.658-23.4-50.095-51.513-50.194C32.897 9.455 9.97 31.892 9.5 59.552z"/>
</svg>
