<svg xmlns="http://www.w3.org/2000/svg" width="34" height="35" viewBox="0 0 34 35">
    <g fill="#523D93" fill-rule="nonzero" stroke="#523D93">
        <path d="M25.492 18.682l.073-.873c.327-3.275-.508-6.621-2.288-9.387l-4.07-6.258A2.546 2.546 0 0 0 17.062 1a2.546 2.546 0 0 0-2.144 1.164l-3.997 6.039a14.521 14.521 0 0 0-2.363 9.46l.11 1.019-6.179 6.548A5.566 5.566 0 0 0 1 29.014c0 .946.763 1.71 1.708 1.71h7.086c.185.915.992 1.571 1.926 1.564h.363l-.327.874a.937.937 0 0 0 .11.873c.18.254.472.4.762.4h8.903c.29 0 .581-.146.763-.4a.935.935 0 0 0 .11-.873l-.328-.874h.364c.944 0 1.744-.655 1.925-1.564h7.087c.945 0 1.708-.764 1.708-1.71a5.566 5.566 0 0 0-1.49-3.784l-6.178-6.548zM2.708 29.305a.249.249 0 0 1-.254-.253c0-1.056.4-2.038 1.09-2.802l5.27-5.64.835 8.696H2.71zm10.684 3.677l.254-.692h6.795l.255.692h-7.304zm10.756-15.318l-1.235 12.734a.522.522 0 0 1-.545.473H11.72a.55.55 0 0 1-.545-.473L9.94 17.52a13.11 13.11 0 0 1 2.144-8.514l3.997-6.04c.255-.364.581-.545.981-.545s.727.182.945.509l4.07 6.258c1.599 2.51 2.362 5.493 2.071 8.477zm7.268 11.643h-6.904l.8-8.696 5.232 5.64c.728.764 1.09 1.746 1.09 2.801.037.11-.072.255-.217.255h-.001z"/>
        <path d="M19.814 12h-5.088a.73.73 0 0 0-.726.727.73.73 0 0 0 .726.728h5.088a.73.73 0 0 0 .726-.728.73.73 0 0 0-.726-.727z"/>
    </g>
</svg>
