<svg xmlns="http://www.w3.org/2000/svg" width="167" height="58" viewBox="0 0 167 58">
    <g fill="#4B65BC" fill-rule="nonzero" transform="translate(1 1)">
        <path stroke="#4B65BC" stroke-width="2" d="M164.217 1.129c-.273-.864-1.156-1.334-1.973-1.043-4.919 1.734-15.748 14.663-18.545 18.079-5.452-.658-10.983-1.407-16.339-2.133-15.835-2.149-32.147-4.336-48.463-4.408-.566-2.196 2.816-6.359 5.444-8.618a1.707 1.707 0 0 0 .472-1.874C84.57.465 83.973.033 83.274.077c-11.156.633-16.797 9.29-18.12 11.621-2.073.902-4.649 2.436-7.362 4.052-3.343 1.99-6.8 4.05-8.937 4.652-3.32.936-39.93 4.309-47.273 4.309-.863 0-1.56.738-1.56 1.65 0 .911.697 1.649 1.56 1.649 2.744 0 43.76-3.203 48.078-4.421 2.518-.71 6.15-2.873 9.663-4.964l1.211-.718 2.892-1.674c1.254-.697 2.414-1.293 3.359-1.667.358-.142.656-.422.835-.78.167-.335 3.594-7.037 11.11-9.526-1.675 2.127-3.2 4.838-2.968 7.39-.83.01 2.552-.004 1.722.02-.86.023-1.542.782-1.52 1.692.024.912.81 1.624 1.602 1.606 17.936-.507 31.858 1.958 49.398 4.335 5.636.766 11.464 1.557 17.206 2.238a1.527 1.527 0 0 0 1.359-.569 187.1 187.1 0 0 1 7.468-8.64c-2.69 5.718-3.813 12.425-.37 17.398.798 1.155 1.74 2.087 2.649 2.99.355.35.71.702 1.053 1.066.305.322.705.483 1.105.483.399 0 .798-.16 1.103-.481a1.72 1.72 0 0 0 .001-2.335 55.321 55.321 0 0 0-1.127-1.142c-.843-.834-1.638-1.622-2.266-2.53-3.361-4.854-.626-12.58 2.738-17.721l.398-.617c3.07-4.78 4.385-6.025 4.947-6.226.822-.29 1.262-1.225.99-2.088zM163.045 51.339c-2.995-.652-13.646-11.397-17.53-15.836-1.556-1.779-5.05-1.306-8.806-.61-.474.086-.87.162-1.144.196-5.332.698-10.567 1.69-15.905 2.73-1.585.31-3.16.625-4.73.939-10.108 2.017-19.654 3.923-29.91 4.055-1.676.022-3.408.09-5.168.16-5.393.207-10.966.434-15.884-.677-4.993-1.127-17.454-6.01-17.58-6.058a1.577 1.577 0 0 0-2.047.92c-.315.828.09 1.76.906 2.08.52.205 12.81 5.02 18.035 6.2 1.913.432 3.888.674 5.89.802 1.102 1.21 7.596 8.18 12.069 9.393.137.037.273.054.41.054.698 0 1.339-.474 1.527-1.194.226-.859-.277-1.74-1.121-1.968-2.276-.617-5.81-3.7-8.32-6.162 2.083-.012 4.174-.094 6.239-.176 1.73-.069 3.434-.136 5.084-.157 6.751-.087 13.15-.914 19.57-2.033 1.03.892 6.43 5.544 10.93 8.77.277.198.596.294.911.294.498 0 .987-.238 1.296-.682a1.625 1.625 0 0 0-.382-2.242c-2.995-2.147-6.494-5.025-8.696-6.88 2.266-.43 4.543-.882 6.851-1.343 1.565-.313 3.137-.625 4.717-.933 5.289-1.032 10.47-2.014 15.712-2.7.312-.04.765-.123 1.308-.224 3.376-.624 5.366-.748 5.872-.418.136.157 14.092 15.726 19.234 16.845.112.025.223.036.333.036.731 0 1.387-.517 1.546-1.272a1.607 1.607 0 0 0-1.217-1.91z"/>
        <ellipse cx="67.404" cy="27.844" rx="4.213" ry="4.284"/>
    </g>
</svg>
