<svg xmlns="http://www.w3.org/2000/svg" xmlns:xlink="http://www.w3.org/1999/xlink" width="202" height="173" viewBox="0 0 202 173">
    <defs>
        <path id="a" d="M85.531 172.52c16.08-3.286 44.586 3.79 59.715-30.088 7.889-17.665 24.96-35.381 24.96-56.172 0-22.742-7.011-42.177-24.96-53.172C125.79 21.168 109.972 0 85.531 0 61.035 0 44.332 20.484 27.528 30.156 9.702 40.416 5.74 66.758.856 86.26c-5.367 21.43 15.687 40.723 30.459 63.033 10.948 16.535 40.614 26.005 54.216 23.226z"/>
    </defs>
    <g fill="none" fill-rule="evenodd">
        <g transform="translate(15)">
            <mask id="b" fill="#fff">
                <use xlink:href="#a"/>
            </mask>
            <use fill="#A5D5FA" xlink:href="#a"/>
            <g fill="#41A1FA" mask="url(#b)">
                <path d="M-6.532-4.436h192v189h-192z"/>
            </g>
        </g>
        <g fill="#FFF" fill-rule="nonzero">
            <path d="M30.913 81.68H16.765c-1.554 0-2.862-1.315-2.862-2.878V64.575c0-1.562 1.308-2.878 2.862-2.878h14.148c1.554 0 2.863 1.316 2.863 2.878v14.227c0 1.645-1.227 2.879-2.863 2.879zm-11.285-5.756h8.423v-8.47h-8.423v8.47zM54.63 81.68H40.482c-1.554 0-2.863-1.315-2.863-2.878V64.575c0-1.562 1.309-2.878 2.863-2.878H54.63c1.554 0 2.862 1.316 2.862 2.878v14.227a2.852 2.852 0 0 1-2.862 2.879zm-11.286-5.756h8.424v-8.47h-8.424v8.47zM78.347 81.68H64.198c-1.553 0-2.862-1.315-2.862-2.878V64.575c0-1.562 1.309-2.878 2.862-2.878h14.149c1.553 0 2.862 1.316 2.862 2.878v14.227a2.852 2.852 0 0 1-2.862 2.879zm-11.368-5.756h8.423v-8.47H66.98v8.47zM102.063 81.68H87.915c-1.554 0-2.862-1.315-2.862-2.878V64.575c0-1.562 1.308-2.878 2.862-2.878h14.148c1.554 0 2.863 1.316 2.863 2.878v14.227a2.852 2.852 0 0 1-2.863 2.879zm-11.367-5.756h8.423v-8.47h-8.423v8.47zM125.78 81.68h-14.148c-1.554 0-2.863-1.315-2.863-2.878V64.575c0-1.562 1.309-2.878 2.863-2.878h14.148c1.554 0 2.862 1.316 2.862 2.878v14.227a2.852 2.852 0 0 1-2.862 2.879zm-11.368-5.756h8.424v-8.47h-8.424v8.47zM66.897 58.737H52.75c-1.554 0-2.862-1.316-2.862-2.879V41.631c0-1.562 1.308-2.878 2.862-2.878h14.148c1.554 0 2.863 1.316 2.863 2.878v14.227c0 1.563-1.227 2.879-2.863 2.879zM55.611 52.98h8.424v-8.47H55.61v8.47zM90.614 58.737H76.466c-1.554 0-2.863-1.316-2.863-2.879V41.631c0-1.562 1.309-2.878 2.863-2.878h14.148c1.554 0 2.862 1.316 2.862 2.878v14.227c0 1.563-1.308 2.879-2.862 2.879zM79.328 52.98h8.423v-8.47h-8.423v8.47zM114.33 58.737h-14.148c-1.554 0-2.862-1.316-2.862-2.879V41.631c0-1.562 1.308-2.878 2.862-2.878h14.148c1.554 0 2.863 1.316 2.863 2.878v14.227c0 1.563-1.309 2.879-2.863 2.879zm-11.367-5.757h8.423v-8.47h-8.423v8.47zM114.33 34.641h-14.148c-1.554 0-2.862-1.315-2.862-2.878V17.536c0-1.562 1.308-2.878 2.862-2.878h14.148c1.554 0 2.863 1.316 2.863 2.878v14.227c0 1.563-1.309 2.878-2.863 2.878zm-11.367-5.756h8.423v-8.47h-8.423v8.47z"/>
            <path d="M74.34 158.407h-.982c-25.925-.164-45.389-7.483-57.901-21.71C-2.29 116.63.49 90.315.654 89.247c.164-1.48 1.39-2.55 2.863-2.55h142.545c1.063-.247 6.378-1.562 9.813-5.756-3.762-5.017-11.94-19.326 3.026-34.458.982-.986 2.535-1.15 3.68-.329.573.412 13.167 9.458 13.249 22.04 5.234-.987 14.639-1.645 24.125 2.55 1.309.575 1.963 2.055 1.636 3.37-.163.741-4.989 17.188-29.441 16.86-.982 5.591-4.335 19.16-14.64 32.647-21.671 28.7-57 34.786-83.17 34.786zM6.133 92.454c-.164 6.825.654 25.822 13.575 40.46 11.45 12.911 29.523 19.572 53.649 19.654h.981c35.33 0 62.4-11.184 78.51-32.4 12.186-16.119 13.821-32.237 13.821-32.402.164-1.562 1.473-2.714 3.026-2.631 16.52.986 22.9-6.25 25.189-10.198-10.959-3.7-21.427-.329-21.508-.329a2.835 2.835 0 0 1-2.781-.575c-.736-.658-1.063-1.727-.9-2.796 1.881-8.47-5.07-15.79-8.587-18.915-4.743 5.592-6.297 11.431-4.58 17.517 1.473 5.263 4.826 8.717 4.907 8.799.9.904 1.064 2.385.41 3.536-4.99 8.388-14.721 10.115-15.13 10.115H6.134v.165z"/>
        </g>
    </g>
</svg>
