<svg xmlns="http://www.w3.org/2000/svg" xmlns:xlink="http://www.w3.org/1999/xlink" width="75" height="64" viewBox="0 0 75 64">
    <defs>
        <path id="a" d="M31.826 63.822c5.983-1.215 16.59 1.403 22.22-11.13 2.934-6.535 9.287-13.09 9.287-20.78 0-8.414-2.61-15.604-9.288-19.671C46.805 7.83 40.92 0 31.825 0c-9.114 0-15.33 7.578-21.582 11.156C3.61 14.952 2.136 24.696.318 31.911-1.679 39.84 6.156 46.976 11.652 55.23c4.074 6.117 15.112 9.62 20.174 8.592z"/>
    </defs>
    <g fill="none" fill-rule="evenodd">
        <g transform="translate(5)">
            <mask id="b" fill="#fff">
                <use xlink:href="#a"/>
            </mask>
            <use fill="#A5D5FA" xlink:href="#a"/>
            <g fill="#A5D5FA" mask="url(#b)">
                <path d="M-2.43-1.641h71v70h-71z"/>
            </g>
        </g>
        <g fill="#000" fill-rule="nonzero">
            <path d="M11.478 30.205H6.225a1.08 1.08 0 0 1-1.063-1.072v-5.298a1.08 1.08 0 0 1 1.063-1.072h5.253c.577 0 1.062.49 1.062 1.072v5.298c0 .613-.455 1.072-1.062 1.072zm-4.19-2.144h3.127v-3.154H7.287v3.154zM20.283 30.205H15.03a1.08 1.08 0 0 1-1.062-1.072v-5.298a1.08 1.08 0 0 1 1.062-1.072h5.253c.577 0 1.063.49 1.063 1.072v5.298a1.06 1.06 0 0 1-1.063 1.072zm-4.19-2.144h3.128v-3.154h-3.128v3.154zM29.09 30.205h-5.254a1.08 1.08 0 0 1-1.063-1.072v-5.298a1.08 1.08 0 0 1 1.063-1.072h5.253c.577 0 1.063.49 1.063 1.072v5.298a1.06 1.06 0 0 1-1.063 1.072zm-4.222-2.144h3.128v-3.154h-3.128v3.154zM37.895 30.205h-5.253a1.08 1.08 0 0 1-1.063-1.072v-5.298a1.08 1.08 0 0 1 1.063-1.072h5.253c.577 0 1.062.49 1.062 1.072v5.298a1.06 1.06 0 0 1-1.062 1.072zm-4.22-2.144h3.127v-3.154h-3.128v3.154zM46.7 30.205h-5.253a1.08 1.08 0 0 1-1.062-1.072v-5.298a1.08 1.08 0 0 1 1.062-1.072H46.7c.577 0 1.063.49 1.063 1.072v5.298a1.06 1.06 0 0 1-1.063 1.072zm-4.22-2.144h3.127v-3.154H42.48v3.154zM24.838 21.66h-5.253a1.08 1.08 0 0 1-1.063-1.071V15.29a1.08 1.08 0 0 1 1.063-1.072h5.253c.577 0 1.063.49 1.063 1.072v5.299a1.06 1.06 0 0 1-1.063 1.072zm-4.19-2.143h3.127v-3.155h-3.127v3.155zM33.644 21.66H28.39a1.08 1.08 0 0 1-1.063-1.071V15.29a1.08 1.08 0 0 1 1.063-1.072h5.253c.577 0 1.062.49 1.062 1.072v5.299a1.08 1.08 0 0 1-1.062 1.072zm-4.19-2.143h3.127v-3.155h-3.128v3.155zM42.45 21.66h-5.254a1.08 1.08 0 0 1-1.062-1.071V15.29a1.08 1.08 0 0 1 1.062-1.072h5.253c.577 0 1.063.49 1.063 1.072v5.299a1.08 1.08 0 0 1-1.063 1.072zm-4.221-2.143h3.127v-3.155H38.23v3.155zM42.45 12.687h-5.254a1.08 1.08 0 0 1-1.062-1.072V6.317a1.08 1.08 0 0 1 1.062-1.072h5.253c.577 0 1.063.49 1.063 1.072v5.298a1.08 1.08 0 0 1-1.063 1.072zm-4.221-2.144h3.127V7.39H38.23v3.154z"/>
            <path d="M27.601 58.78h-.364c-9.626-.062-16.852-2.788-21.498-8.086C-.851 43.221.182 33.421.243 33.023c.06-.551.516-.95 1.063-.95H54.23c.395-.091 2.368-.582 3.643-2.143-1.396-1.869-4.433-7.198 1.124-12.833a1.054 1.054 0 0 1 1.366-.122c.213.153 4.889 3.522 4.92 8.208 1.943-.368 5.435-.613 8.957.949.486.214.729.766.607 1.256-.06.275-1.852 6.4-10.931 6.278-.364 2.083-1.61 7.136-5.435 12.158-8.047 10.689-21.164 12.955-30.88 12.955zM2.277 34.216c-.06 2.542.243 9.617 5.04 15.068 4.252 4.808 10.962 7.29 19.92 7.32h.364c13.118 0 23.168-4.165 29.15-12.067 4.524-6.003 5.132-12.005 5.132-12.066.06-.582.546-1.011 1.123-.98 6.134.367 8.502-2.328 9.352-3.798-4.069-1.378-7.955-.123-7.986-.123a1.05 1.05 0 0 1-1.032-.214c-.273-.245-.395-.643-.334-1.041.698-3.155-1.883-5.88-3.188-7.044-1.761 2.082-2.338 4.257-1.7 6.523.546 1.96 1.79 3.246 1.821 3.277.334.337.395.888.152 1.317-1.852 3.124-5.465 3.767-5.617 3.767H2.277v.061z"/>
        </g>
    </g>
</svg>
