<svg xmlns="http://www.w3.org/2000/svg" xmlns:xlink="http://www.w3.org/1999/xlink" width="81" height="59" viewBox="0 0 81 59">
    <defs>
        <path id="a" d="M29.34 58.836c5.515-1.12 15.293 1.293 20.483-10.26 2.706-6.025 8.562-12.067 8.562-19.158 0-7.756-2.405-14.384-8.562-18.134C43.149 7.22 37.723 0 29.339 0 20.937 0 15.207 6.986 9.443 10.284c-6.115 3.5-7.474 12.483-9.15 19.134-1.84 7.308 5.382 13.888 10.449 21.497 3.755 5.639 13.931 8.869 18.597 7.921z"/>
    </defs>
    <g fill="none" fill-rule="evenodd">
        <g transform="translate(11)">
            <mask id="b" fill="#fff">
                <use xlink:href="#a"/>
            </mask>
            <use fill="#A5D5FA" xlink:href="#a"/>
            <g fill="#A5D5FA" mask="url(#b)">
                <path d="M-2.24-1.513h66v64h-66z"/>
            </g>
        </g>
        <path d="M25.449 15.662c-4.303-4.77-10.63-5.833-16.42-2.9-5.347 2.706-8.385 7.992-7.847 14.244.538 6.187 4.05 10.215 9.618 12.407 5.252 2.062 10.979.419 14.965-3.867 3.67-3.932 7.308-7.928 11.232-11.538"/>
        <path fill="#000" fill-rule="nonzero" d="M15.462 41.43c-1.71 0-3.421-.321-5.068-.966C4.184 38.048.604 33.41.066 27.096c-.57-6.636 2.566-12.37 8.459-15.334 6.335-3.19 13.115-1.997 17.74 3.157.412.45.38 1.16-.064 1.578a1.088 1.088 0 0 1-1.552-.064c-3.928-4.381-9.725-5.38-15.11-2.674C4.5 16.304 1.808 21.2 2.283 26.87c.475 5.476 3.484 9.31 8.902 11.468 4.72 1.836 10.01.483 13.78-3.576l1.172-1.288c3.231-3.48 6.59-7.055 10.137-10.34a1.088 1.088 0 0 1 1.553.064c.411.45.38 1.16-.064 1.578-3.484 3.222-6.81 6.765-10.01 10.212l-1.172 1.288c-3.105 3.383-7.097 5.155-11.12 5.155z"/>
        <path fill="#000" fill-rule="nonzero" d="M46.256 41.148c-4.338 0-8.452-1.82-11.227-5.047a1.084 1.084 0 0 1 .128-1.565 1.08 1.08 0 0 1 1.563.128c2.838 3.29 7.367 4.855 11.833 4.056 4.752-.83 8.484-3.992 10.27-8.687 1.562-4.088.86-8.687-1.85-12.328-2.807-3.736-7.177-5.78-11.674-5.46-3.062.223-5.74 1.564-8.484 4.247a1.078 1.078 0 0 1-1.562-.032c-.415-.447-.415-1.15.031-1.565 3.126-3.066 6.252-4.6 9.888-4.855 5.294-.383 10.397 1.98 13.65 6.324 3.158 4.248 3.987 9.677 2.17 14.468-2.042 5.365-6.507 9.134-11.961 10.092-.989.16-1.882.224-2.775.224z"/>
        <path fill="#000" fill-rule="nonzero" d="M38.346 28.689c-.602 0-1.11-.485-1.11-1.132l-.031-3.652-3.583.032c-.603 0-1.11-.485-1.11-1.131 0-.615.476-1.132 1.11-1.132l4.692-.064c.286 0 .57.096.793.323.222.194.317.485.349.808l.063 4.784c-.063.646-.539 1.164-1.173 1.164zM34.867 40.298a1.143 1.143 0 0 1-1.123-1.024l-.385-4.736c-.064-.608.417-1.152 1.027-1.216l4.749-.384a1.163 1.163 0 0 1 1.22 1.024c.063.608-.418 1.152-1.028 1.216l-3.626.288.289 3.616c.064.608-.417 1.152-1.027 1.216h-.096zM67.195 39.449a1 1 0 0 1-.509-.129l-6.934-3.464a1.167 1.167 0 0 1-.509-1.507c.287-.545.955-.77 1.495-.513l6.426 3.207 10.274-5.196-10.306-5.292-4.39 2.117a1.148 1.148 0 0 1-1.495-.513 1.167 1.167 0 0 1 .51-1.507l4.898-2.374c.318-.16.668-.16.986 0l12.755 6.543c.381.192.604.577.604.994 0 .417-.254.802-.604.995L67.64 39.256c-.096.16-.287.193-.446.193zM54.062 49.076c-.623 0-1.09-.513-1.09-1.123l.063-7.665c0-.61.498-1.123 1.09-1.123.591 0 1.09.514 1.09 1.123l-.063 7.665c0 .61-.498 1.123-1.09 1.123z"/>
        <path fill="#000" fill-rule="nonzero" d="M67.018 55.589c-.16 0-.353-.033-.513-.13l-12.914-6.435a1.168 1.168 0 0 1-.513-1.512 1.159 1.159 0 0 1 1.506-.515l11.28 5.631V38.31c0-.61.513-1.126 1.122-1.126.609 0 1.121.515 1.121 1.126v16.153c0 .387-.192.74-.544.966-.129.128-.353.16-.545.16z"/>
        <path fill="#000" fill-rule="nonzero" d="M66.975 55.305c-.413 0-.795-.223-.985-.606-.287-.542-.064-1.212.508-1.5l12.149-6.095.127-15.317c0-.606.509-1.116 1.113-1.116S81 31.18 81 31.787l-.127 15.988c0 .414-.255.797-.604.989l-12.753 6.382a.948.948 0 0 1-.54.16zM73.154 39.449a1.14 1.14 0 0 1-1.12-1.133V35.5l-7.805-4.11a1.137 1.137 0 0 1-.48-1.522c.288-.55.96-.777 1.503-.486l8.414 4.402c.383.195.607.583.607 1.004v3.528a1.14 1.14 0 0 1-1.12 1.133z"/>
    </g>
</svg>
