<svg xmlns="http://www.w3.org/2000/svg" xmlns:xlink="http://www.w3.org/1999/xlink" width="202" height="148" viewBox="0 0 202 148">
    <defs>
        <path id="a" d="M73.1 147.589c13.742-2.811 38.105 3.243 51.035-25.74 6.742-15.112 21.332-30.268 21.332-48.055 0-19.455-5.992-36.081-21.332-45.487C107.506 18.11 93.987 0 73.099 0 52.164 0 37.89 17.524 23.527 25.798 8.292 34.576 4.906 57.111.731 73.794c-4.587 18.333 13.408 34.84 26.032 53.925 9.358 14.145 34.711 22.247 46.336 19.87z"/>
    </defs>
    <g fill="none" fill-rule="evenodd">
        <g transform="translate(27)">
            <mask id="b" fill="#fff">
                <use xlink:href="#a"/>
            </mask>
            <use fill="#A5D5FA" xlink:href="#a"/>
            <g fill="#41A1FA" mask="url(#b)">
                <path d="M-5.582-3.795h164v161h-164z"/>
            </g>
        </g>
        <path d="M63.465 39.031c-10.73-11.82-26.51-14.455-40.95-7.188C9.183 38.553 1.608 51.65 2.95 67.144c1.34 15.334 10.099 25.318 23.985 30.748 13.097 5.112 27.378 1.039 37.32-9.583 9.152-9.744 18.225-19.647 28.009-28.592"/>
        <path fill="#FFF" fill-rule="nonzero" d="M38.56 102.893c-4.266 0-8.532-.798-12.64-2.395C10.435 94.511 1.508 83.015.165 67.368c-1.422-16.446 6.4-30.657 21.094-38.002 15.8-7.903 32.706-4.95 44.24 7.824 1.028 1.118.949 2.874-.157 3.912-1.106 1.038-2.844.958-3.871-.16-9.797-10.857-24.254-13.332-37.684-6.626C11.225 40.623 4.51 52.758 5.695 66.808c1.185 13.572 8.69 23.072 22.2 28.421 11.771 4.55 24.964 1.198 34.366-8.861l2.923-3.194c8.058-8.622 16.432-17.483 25.28-25.626 1.106-1.038 2.844-.958 3.871.16 1.027 1.117.948 2.873-.158 3.911-8.69 7.984-16.985 16.765-24.964 25.308L66.29 90.12c-7.742 8.383-17.697 12.773-27.73 12.773z"/>
        <path fill="#FFF" fill-rule="nonzero" d="M115.355 102.192c-10.818 0-21.078-4.512-27.998-12.506-1.034-1.187-.875-2.929.318-3.878 1.193-1.03 2.943-.87 3.898.316 7.079 8.153 18.373 12.031 29.509 10.052 11.851-2.058 21.157-9.893 25.611-21.528 3.898-10.132 2.148-21.529-4.613-30.552-7-9.26-17.896-14.326-29.111-13.535-7.636.554-14.317 3.879-21.158 10.527a2.7 2.7 0 0 1-3.897-.079c-1.034-1.108-1.034-2.85.08-3.878 7.794-7.599 15.589-11.398 24.657-12.03 13.203-.95 25.93 4.906 34.042 15.67 7.875 10.528 9.943 23.983 5.41 35.855-5.091 13.297-16.227 22.637-29.828 25.012a42.822 42.822 0 0 1-6.92.554z"/>
        <path fill="#FFF" fill-rule="nonzero" d="M95.628 71.315a2.768 2.768 0 0 1-2.767-2.804l-.08-9.052-8.934.08a2.768 2.768 0 0 1-2.767-2.804c0-1.522 1.186-2.803 2.767-2.803l11.702-.16c.712 0 1.423.24 1.977.8.553.481.79 1.202.87 2.003l.158 11.856c-.159 1.602-1.345 2.884-2.926 2.884zM86.952 100.086c-1.44 0-2.64-1.11-2.8-2.538l-.961-11.737c-.16-1.507 1.04-2.856 2.56-3.014l11.844-.952c1.52-.08 2.881 1.031 3.041 2.538.16 1.507-1.04 2.855-2.56 3.014l-9.043.714.72 8.962c.16 1.507-1.04 2.855-2.561 3.013h-.24zM167.574 97.981c-.397 0-.873-.08-1.27-.318l-17.292-8.584c-1.348-.715-1.904-2.385-1.27-3.736.715-1.351 2.38-1.907 3.73-1.272l16.022 7.949 25.622-12.877-25.701-13.114-10.947 5.246c-1.348.635-3.014.079-3.728-1.272-.634-1.351-.08-3.02 1.27-3.736l12.215-5.882a2.685 2.685 0 0 1 2.46 0L200.492 76.6A2.73 2.73 0 0 1 202 79.064c0 1.033-.635 1.987-1.507 2.464l-31.809 15.976c-.238.398-.714.477-1.11.477zM134.822 121.84c-1.553 0-2.718-1.271-2.718-2.782l.155-18.997c0-1.51 1.243-2.782 2.718-2.782 1.476 0 2.719 1.272 2.719 2.782l-.156 18.997c0 1.51-1.242 2.782-2.718 2.782z"/>
        <path fill="#FFF" fill-rule="nonzero" d="M167.13 137.98c-.399 0-.878-.08-1.278-.318l-32.206-15.95c-1.358-.717-1.918-2.391-1.278-3.747.719-1.356 2.397-1.914 3.756-1.276l28.13 13.955V95.158c0-1.515 1.278-2.79 2.797-2.79 1.518 0 2.797 1.275 2.797 2.79v40.031c0 .957-.48 1.835-1.359 2.393-.32.319-.879.398-1.358.398z"/>
        <path fill="#FFF" fill-rule="nonzero" d="M167.025 137.279a2.724 2.724 0 0 1-2.458-1.503c-.714-1.344-.159-3.005 1.269-3.717l30.295-15.104.317-37.96c0-1.503 1.27-2.768 2.776-2.768 1.507 0 2.776 1.265 2.776 2.768l-.317 39.62c0 1.028-.635 1.977-1.507 2.452l-31.803 15.816a2.375 2.375 0 0 1-1.348.396zM182.433 97.981c-1.516 0-2.792-1.283-2.792-2.807v-6.979l-19.466-10.187c-1.356-.722-1.914-2.406-1.196-3.77.718-1.364 2.393-1.925 3.75-1.203l20.98 10.909a2.756 2.756 0 0 1 1.516 2.486v8.744c0 1.524-1.276 2.807-2.792 2.807z"/>
    </g>
</svg>
