<svg xmlns="http://www.w3.org/2000/svg" xmlns:xlink="http://www.w3.org/1999/xlink" width="73" height="67" viewBox="0 0 73 67">
    <defs>
        <path id="a" d="M3.985 7.287c-1.902-14.754 53.056-3.043 56.256 0 3.2 3.043 6.872 12.263 4.984 23.107-1.887 10.843 0 27.101-4.984 32.297-4.984 5.196-46.404 0-56.256 0-9.852 0 1.903-40.65 0-55.404z"/>
    </defs>
    <g fill="none" fill-rule="evenodd">
        <g transform="translate(7 2)">
            <mask id="b" fill="#fff">
                <use xlink:href="#a"/>
            </mask>
            <use fill="#CCBFF6" xlink:href="#a"/>
            <g fill="#CCBFF6" mask="url(#b)">
                <path d="M-1.692-1.667h72v72h-72z"/>
            </g>
        </g>
        <g fill="#000" fill-rule="nonzero">
            <path d="M52.3 50.092c-.904 0-1.808-.032-2.712-.063-.374-.03-.748-.03-1.122-.03a1.126 1.126 0 0 1-1.06-1.122 1.126 1.126 0 0 1 1.122-1.058c.374 0 .748.031 1.122.031 1.901.093 3.834.156 5.641-.156 7.044-1.245 11.595-5.23 13.527-11.83 1.964-6.756.405-12.67-4.706-17.558-3.397-3.238-7.667-4.764-12.716-4.452-1.559.093-2.587-.467-3.429-1.9-4.395-7.315-10.846-10.522-19.2-9.588-8.446.934-15.957 8.5-16.736 16.874-.125 1.494-.748 2.366-2.12 3.05-4.457 2.21-6.919 5.822-7.573 11.052-.063.592-.624 1.028-1.216.966-.592-.063-1.028-.623-.966-1.215.717-5.946 3.678-10.21 8.758-12.733.686-.342.841-.56.904-1.307.873-9.34 9.257-17.777 18.67-18.835C37.743-.81 44.912 2.77 49.774 10.865c.467.778.748.903 1.433.872 5.673-.343 10.504 1.37 14.369 5.043 5.641 5.417 7.48 12.235 5.267 19.738-2.15 7.347-7.418 11.986-15.24 13.356-1.03.155-2.151.218-3.305.218z"/>
            <path d="M17.703 66H6.421c-2.307 0-3.117-.84-3.117-3.238v-22.54c0-2.459.81-3.237 3.272-3.237h22.41c2.618 0 3.273.685 3.273 3.362v22.384c0 2.709-1.247 3.269-3.117 3.269H17.703zM5.58 63.727c.062.031.28.063.842.063 7.636.03 15.303.03 22.72 0 .593 0 .78-.063.842-.094.031-.062.094-.28.094-.996V51.492h1.09-1.09v-3.237-7.939c0-.56-.031-.965-.063-1.12-.124-.032-.436-.063-1.028-.063H6.576c-.654 0-.935.062-1.028.093-.031.094-.062.343-.062.966v22.54c0 .684.062.902.093.995z"/>
            <path d="M39.645 50.465c-.623 0-1.09-.498-1.09-1.09.062-5.541.03-11.176.03-16.624v-1.712a.976.976 0 0 0-.03-.28s-.094-.032-.281-.032h-7.231c-3.553 0-7.23 0-10.846.063-.593.03-1.091-.467-1.122-1.059-.032-.591.467-1.09 1.06-1.12 3.646-.063 7.324-.063 10.908-.063h7.169c.779 0 1.433.218 1.87.654.467.436.685 1.058.685 1.837v1.712c0 5.448.031 11.083-.03 16.656 0 .591-.5 1.058-1.092 1.058z"/>
            <path d="M46.253 38.23c-.624 0-1.091-.498-1.091-1.12.062-3.58.062-7.223.062-10.741v-1.993c0-.373-.062-.498-.093-.498 0 0-.094-.03-.28-.03h-3.523c-3.179 0-6.483 0-9.693.061h-.031c-.592 0-1.09-.467-1.09-1.058 0-.592.467-1.09 1.059-1.12 3.241-.063 6.545-.063 9.755-.063h3.522c1.59 0 2.525.996 2.525 2.708v1.993c0 3.549.031 7.191-.062 10.772.03.591-.468 1.09-1.06 1.09z"/>
        </g>
    </g>
</svg>
