<svg xmlns="http://www.w3.org/2000/svg" xmlns:xlink="http://www.w3.org/1999/xlink" width="146" height="134" viewBox="0 0 146 134">
    <defs>
        <path id="a" d="M7.91 14.575c-3.776-29.508 105.309-6.086 111.66 0 6.35 6.086 13.64 24.524 9.892 46.212-3.747 21.688 0 54.203-9.893 64.595-9.893 10.391-92.104 0-111.659 0-19.554 0 3.777-81.299 0-110.807z"/>
    </defs>
    <g fill="none" fill-rule="evenodd">
        <g transform="translate(15 4)">
            <mask id="b" fill="#fff">
                <use xlink:href="#a"/>
            </mask>
            <use fill="#CCBFF6" xlink:href="#a"/>
            <g fill="#523D93" mask="url(#b)">
                <path d="M-3.359-3.333h143v143h-143z"/>
            </g>
        </g>
        <g fill="#FFF" fill-rule="nonzero">
            <path d="M105.163 100.145c-1.817 0-3.635-.062-5.452-.125-.752-.062-1.505-.062-2.257-.062a2.256 2.256 0 0 1-2.13-2.24c.062-1.183 1.065-2.117 2.256-2.117.752 0 1.504.063 2.256.063 3.823.186 7.709.31 11.344-.312 14.163-2.49 23.313-10.456 27.199-23.651 3.948-13.506.815-25.332-9.463-35.104-6.832-6.473-15.418-9.522-25.57-8.9-3.134.187-5.202-.934-6.894-3.797C87.615 9.274 74.642 2.863 57.846 4.73 40.862 6.597 25.758 21.722 24.19 38.465c-.25 2.987-1.504 4.73-4.261 6.1C10.968 48.982 6.016 56.202 4.7 66.66c-.125 1.182-1.253 2.053-2.444 1.929-1.19-.125-2.068-1.245-1.943-2.427C1.755 54.274 7.71 45.747 17.924 40.705c1.379-.684 1.692-1.12 1.818-2.614C21.496 19.42 38.355 2.551 57.282.436c18.613-2.054 33.028 5.103 42.805 21.286.94 1.556 1.504 1.805 2.883 1.743 11.406-.685 21.12 2.738 28.891 10.083 11.344 10.83 15.041 24.46 10.592 39.46-4.325 14.689-14.916 23.963-30.647 26.701-2.068.311-4.324.436-6.643.436z"/>
            <path d="M35.598 131.95H12.91c-4.637 0-6.267-1.68-6.267-6.473V80.415c0-4.917 1.63-6.473 6.58-6.473h45.062c5.264 0 6.58 1.369 6.58 6.722V125.415c0 5.414-2.507 6.535-6.267 6.535h-23zm-24.38-4.544c.126.062.564.125 1.692.125 15.355.062 30.772.062 45.688 0 1.19 0 1.567-.125 1.692-.187.063-.125.188-.56.188-1.992v-22.406h2.194-2.194v-6.473V80.6c0-1.12-.063-1.93-.125-2.24-.25-.063-.878-.125-2.068-.125H13.224c-1.316 0-1.88.125-2.068.187-.063.187-.126.685-.126 1.93v45.061c0 1.37.126 1.805.188 1.992z"/>
            <path d="M79.718 100.892a2.172 2.172 0 0 1-2.193-2.179c.125-11.078.063-22.344.063-33.236v-3.423c0-.374-.063-.56-.063-.56s-.188-.063-.564-.063H62.42c-7.145 0-14.54 0-21.81.125-1.19.062-2.193-.934-2.256-2.116-.063-1.183.94-2.179 2.13-2.241 7.333-.125 14.729-.125 21.936-.125h14.414c1.567 0 2.883.436 3.76 1.308.94.87 1.38 2.116 1.38 3.672v3.423c0 10.892.062 22.158-.063 33.299 0 1.182-1.003 2.116-2.194 2.116z"/>
            <path d="M93.005 76.431c-1.254 0-2.194-.996-2.194-2.24.126-7.158.126-14.44.126-21.473v-3.984c0-.747-.126-.996-.188-.996 0 0-.188-.062-.564-.062h-7.082c-6.393 0-13.036 0-19.491.125h-.063c-1.19 0-2.193-.934-2.193-2.117 0-1.182.94-2.178 2.13-2.24 6.518-.125 13.161-.125 19.617-.125h7.082c3.196 0 5.076 1.992 5.076 5.415v3.984c0 7.095.063 14.377-.125 21.535.062 1.182-.94 2.178-2.131 2.178z"/>
        </g>
    </g>
</svg>
