<svg xmlns="http://www.w3.org/2000/svg" xmlns:xlink="http://www.w3.org/1999/xlink" width="202" height="165" viewBox="0 0 202 165">
    <defs>
        <path id="a" d="M9.903 18.499c-4.728-37.453 131.836-7.725 139.787 0 7.95 7.724 17.076 31.127 12.385 58.654-4.69 27.527 0 68.796-12.385 81.985-12.385 13.19-115.306 0-139.787 0-24.48 0 4.728-103.186 0-140.639z"/>
    </defs>
    <g fill="none" fill-rule="evenodd">
        <g transform="translate(12)">
            <mask id="b" fill="#fff">
                <use xlink:href="#a"/>
            </mask>
            <use fill="#CCBFF6" xlink:href="#a"/>
            <g fill="#523D93" mask="url(#b)">
                <path d="M-4.205-4.23h179v182h-179z"/>
            </g>
        </g>
        <g fill="#FFF" fill-rule="nonzero">
            <path d="M53.896 135.806C24.434 135.806.53 111.661.53 81.903S24.434 28 53.896 28c29.462 0 53.367 24.145 53.367 53.903 0 1.693-1.411 3.118-3.087 3.118-1.676 0-3.088-1.425-3.088-3.118 0-26.283-21.17-47.666-47.192-47.666S6.704 55.62 6.704 81.903c0 26.283 21.17 47.666 47.192 47.666 8.204 0 16.319-2.138 23.464-6.326 1.5-.89 3.352-.356 4.234 1.159.882 1.514.353 3.385-1.147 4.276a53.195 53.195 0 0 1-26.55 7.128z"/>
            <path d="M112.997 135.806c-29.463 0-53.367-24.145-53.367-53.903 0-1.693 1.411-3.118 3.087-3.118 1.676 0 3.087 1.425 3.087 3.118 0 26.283 21.17 47.666 47.193 47.666 26.021 0 47.192-21.383 47.192-47.666 0-26.283-21.17-47.666-47.192-47.666-8.469 0-16.672 2.227-23.905 6.593-1.5.89-3.352.356-4.234-1.07-.882-1.514-.353-3.385 1.058-4.276 8.204-4.9 17.554-7.395 27.08-7.395 29.463 0 53.367 24.145 53.367 53.903s-23.904 53.814-53.366 53.814zM178.448 137.855c-.794 0-1.588-.178-2.293-.623-5.028-2.852-9.262-6.772-12.614-11.405-2.558-3.564-4.5-7.484-5.999-11.85-.529-1.603.353-3.385 1.941-3.92 1.588-.534 3.352.357 3.881 1.96 1.235 3.742 2.911 7.128 5.116 10.157 2.647 3.742 5.999 6.86 9.88 9.177 3.97-2.494 7.233-5.524 9.88-9.177 5.027-7.038 7.585-16.304 7.585-27.53-2.822-.446-5.557-1.248-8.203-2.228-3-1.069-6.087-2.583-9.35-4.365-3.176 1.782-6.351 3.296-9.262 4.365-1.588.624-3.352-.267-3.97-1.87-.617-1.604.265-3.386 1.853-4.01 2.91-1.07 5.998-2.584 9.262-4.366 1.41-.802 2.999-.802 4.322 0 3.264 1.871 6.35 3.297 9.262 4.366 2.646.98 5.469 1.693 8.38 2.138 2.117.268 3.793 2.139 3.793 4.366.264 13.275-2.646 24.323-8.733 32.787-3.352 4.633-7.586 8.464-12.614 11.494-.617.356-1.323.534-2.117.534z"/>
            <path d="M103.734 88.14c-.793 0-1.587-.268-2.205-.891l-9.262-9.355c-1.235-1.248-1.235-3.208 0-4.366a3.067 3.067 0 0 1 4.41 0l7.057 7.128 7.057-7.128a3.067 3.067 0 0 1 4.41 0c1.236 1.247 1.236 3.207 0 4.366l-9.261 9.355c-.618.534-1.412.89-2.206.89zM71.538 89.03c-.794 0-1.588-.267-2.205-.89l-7.057-7.128-7.057 7.128a3.067 3.067 0 0 1-4.41 0c-1.235-1.248-1.235-3.208 0-4.366l9.262-9.355a3.067 3.067 0 0 1 4.41 0l9.262 9.355c1.235 1.247 1.235 3.207 0 4.366-.617.534-1.411.89-2.205.89z"/>
        </g>
    </g>
</svg>
