<svg xmlns="http://www.w3.org/2000/svg" xmlns:xlink="http://www.w3.org/1999/xlink" width="67" height="54" viewBox="0 0 67 54">
    <defs>
        <path id="a" d="M3.26 6.054c-1.556-12.257 43.41-2.528 46.028 0 2.618 2.528 5.623 10.187 4.078 19.196-1.544 9.009 0 22.515-4.078 26.832-4.078 4.316-37.966 0-46.027 0s1.557-33.77 0-46.028z"/>
    </defs>
    <g fill="none" fill-rule="evenodd">
        <g transform="translate(4)">
            <mask id="b" fill="#fff">
                <use xlink:href="#a"/>
            </mask>
            <use fill="#CCBFF6" xlink:href="#a"/>
            <g fill="#CCBFF6" mask="url(#b)">
                <path d="M-1.385-1.385h59v60h-59z"/>
            </g>
        </g>
        <g fill="#000" fill-rule="nonzero">
            <path d="M17.876 43.964c-9.772 0-17.7-7.83-17.7-17.482C.176 16.831 8.104 9 17.876 9c9.772 0 17.701 7.83 17.701 17.482a1.03 1.03 0 0 1-1.024 1.011 1.03 1.03 0 0 1-1.024-1.01c0-8.525-7.022-15.46-15.653-15.46-8.63 0-15.652 6.935-15.652 15.46 0 8.523 7.021 15.458 15.652 15.458 2.721 0 5.413-.693 7.783-2.051a1.025 1.025 0 0 1 1.404.375c.293.492.117 1.098-.38 1.387a17.953 17.953 0 0 1-8.807 2.312z"/>
            <path d="M37.479 43.964c-9.772 0-17.7-7.83-17.7-17.482a1.03 1.03 0 0 1 1.023-1.011 1.03 1.03 0 0 1 1.024 1.011c0 8.524 7.022 15.46 15.653 15.46s15.653-6.936 15.653-15.46c0-8.524-7.022-15.46-15.653-15.46-2.809 0-5.53.723-7.929 2.139a1.042 1.042 0 0 1-1.404-.347 1.015 1.015 0 0 1 .35-1.387C31.219 9.838 34.32 9.03 37.48 9.03c9.772 0 17.7 7.83 17.7 17.482 0 9.651-7.928 17.453-17.7 17.453z"/>
            <path d="M59.188 44.629c-.263 0-.526-.058-.76-.203a13.125 13.125 0 0 1-4.184-3.698c-.849-1.156-1.492-2.428-1.99-3.843a1.011 1.011 0 0 1 .644-1.272 1.03 1.03 0 0 1 1.287.636c.41 1.214.966 2.312 1.697 3.294a10.692 10.692 0 0 0 3.277 2.976c1.317-.809 2.4-1.791 3.277-2.976 1.667-2.283 2.516-5.288 2.516-8.929a14.503 14.503 0 0 1-2.721-.722c-.995-.347-2.019-.838-3.101-1.416-1.054.578-2.107 1.069-3.072 1.416-.527.202-1.112-.087-1.317-.607-.205-.52.088-1.098.614-1.3.966-.347 1.99-.838 3.073-1.416.468-.26.994-.26 1.433 0a20.364 20.364 0 0 0 3.072 1.416c.878.317 1.814.549 2.78.693a1.44 1.44 0 0 1 1.258 1.416c.088 4.306-.878 7.889-2.897 10.634-1.112 1.502-2.516 2.745-4.184 3.727a1.404 1.404 0 0 1-.702.174zM34.407 28.505c-.263 0-.527-.087-.731-.29l-3.073-3.033c-.41-.405-.41-1.04 0-1.416a1.033 1.033 0 0 1 1.463 0l2.341 2.312 2.34-2.312a1.033 1.033 0 0 1 1.463 0c.41.404.41 1.04 0 1.416l-3.072 3.034a1.162 1.162 0 0 1-.731.289zM23.728 28.794c-.263 0-.527-.087-.731-.29l-2.341-2.31-2.34 2.31a1.033 1.033 0 0 1-1.464 0c-.41-.404-.41-1.04 0-1.415l3.072-3.034a1.033 1.033 0 0 1 1.463 0l3.072 3.034c.41.404.41 1.04 0 1.416a1.162 1.162 0 0 1-.731.289z"/>
        </g>
    </g>
</svg>
