<svg xmlns="http://www.w3.org/2000/svg" xmlns:xlink="http://www.w3.org/1999/xlink" width="70" height="65" viewBox="0 0 70 65">
    <defs>
        <path id="a" d="M32.323 64.82c6.077-1.235 16.85 1.424 22.567-11.305 2.98-6.637 9.432-13.294 9.432-21.105 0-8.545-2.65-15.847-9.432-19.978C47.537 7.954 41.56 0 32.323 0c-9.257 0-15.57 7.696-21.92 11.33C3.666 15.185 2.17 25.083.323 32.41c-2.028 8.051 5.929 15.3 11.511 23.683 4.138 6.212 15.348 9.77 20.489 8.726z"/>
    </defs>
    <g fill="none" fill-rule="evenodd">
        <g transform="translate(2)">
            <mask id="b" fill="#fff">
                <use xlink:href="#a"/>
            </mask>
            <use fill="#A5D5FA" xlink:href="#a"/>
            <g fill="#A5D5FA" mask="url(#b)">
                <path d="M-2.468-1.667h72v71h-72z"/>
            </g>
        </g>
        <g fill="#000" fill-rule="nonzero">
            <path d="M50.549 62.959h-.093c-10.53-.031-19.141-8.677-19.172-19.22-.031-5.133 1.982-9.984 5.637-13.654 3.655-3.67 8.486-5.692 13.628-5.692h.031c10.531 0 19.142 8.646 19.142 19.22 0 5.195-2.014 10.078-5.669 13.748-3.654 3.576-8.424 5.598-13.504 5.598zm0-36.42c-4.553 0-8.858 1.804-12.11 5.07-3.222 3.265-5.018 7.557-4.987 12.13.03 9.36 7.65 17.012 17.004 17.074 4.522 0 8.797-1.773 12.049-5.007 3.252-3.266 5.048-7.59 5.048-12.192-.03-9.424-7.65-17.075-17.004-17.075zm-6.69 28.023h-4.801a1.1 1.1 0 0 1-1.084-1.089v-9.86a1.1 1.1 0 0 1 1.084-1.088h4.8a1.1 1.1 0 0 1 1.085 1.089v9.859a1.1 1.1 0 0 1-1.084 1.089zm-3.748-2.178h2.633v-7.682H40.11v7.682zm12.234 2.084h-4.893a1.1 1.1 0 0 1-1.084-1.088V39.913a1.1 1.1 0 0 1 1.084-1.089h4.893a1.1 1.1 0 0 1 1.085 1.089V53.38a1.08 1.08 0 0 1-1.085 1.088zm-3.81-2.177h2.726v-11.29h-2.725v11.29zm11.987 2.146H55.32a1.1 1.1 0 0 1-1.084-1.088v-4.013c0-4.416.03-9.454-.062-13.28 0-.28.093-.56.31-.777.216-.218.495-.311.774-.311h5.235c.278 0 .557.124.774.342.217.217.31.497.31.777-.062 3.297-.062 7.869-.031 11.881 0 1.928.03 3.794.03 5.412.032.56-.464 1.057-1.053 1.057zm-4.119-2.177h3.004c0-1.337 0-2.8-.03-4.323a629.786 629.786 0 0 1 0-10.823H56.34c.062 3.7.031 8.21.031 12.222.031.996.031 1.991.031 2.924zM49.415 24.15h-.155c-.588-.093-1.022-.622-.929-1.213.217-1.68.248-3.297.062-4.79-.062-.59.372-1.15.96-1.212.589-.063 1.146.373 1.208.964.186 1.71.186 3.483-.062 5.35a1.128 1.128 0 0 1-1.084.901z"/>
            <path d="M16.75 54.126c-4.552 0-8.579-1.493-11.49-4.447-7.713-7.838-4.863-22.984 6.473-34.492 6.783-6.873 15.394-10.979 23.014-11.01h.03c4.677 0 8.673 1.524 11.554 4.448a13.774 13.774 0 0 1 2.292 3.048c.278.528.124 1.181-.403 1.492-.527.311-1.177.125-1.487-.404a12.03 12.03 0 0 0-1.951-2.581c-2.478-2.488-5.916-3.795-10.005-3.795h-.03c-7.062 0-15.085 3.888-21.465 10.357-5.11 5.163-8.549 11.29-9.726 17.261-1.146 5.816 0 10.855 3.252 14.152 4.801 4.883 13.164 5.1 21.837.59.526-.28 1.177-.062 1.455.467a1.088 1.088 0 0 1-.464 1.462c-4.46 2.27-8.89 3.452-12.885 3.452z"/>
            <path d="M45.186 24.803c-.372 0-.744-.186-.93-.56-1.703-2.985-4.831-7.06-7.464-9.703-9.23-9.238-21.279-12.845-28.65-8.553-.527.31-1.178.124-1.487-.405-.31-.528-.124-1.181.402-1.492C11.053 1.757 16.411 1.353 22.11 3c5.638 1.617 11.399 5.163 16.23 9.984 2.788 2.799 6.01 6.966 7.837 10.139.31.528.124 1.181-.403 1.493-.217.124-.402.186-.588.186zM29.118 51.232c-.062 0-.124 0-.186-.031-6.071-1.089-11.74-4.417-17.841-10.481-9.819-9.766-13.66-22.518-9.323-30.978.279-.528.93-.746 1.456-.466.526.28.743.933.464 1.462-3.84 7.495-.093 19.47 8.92 28.426 5.762 5.754 11.09 8.896 16.695 9.89.589.094.992.685.868 1.276a1.066 1.066 0 0 1-1.053.902z"/>
            <path d="M5.08 11.58C2.788 11.58.93 9.712.93 7.411c0-2.302 1.858-4.168 4.15-4.168 2.292 0 4.15 1.866 4.15 4.168 0 2.301-1.858 4.167-4.15 4.167zm0-6.159a2 2 0 0 0-1.983 1.99A2 2 0 0 0 5.08 9.403a2 2 0 0 0 1.982-1.99 2 2 0 0 0-1.982-1.99zM49.372 19.044c-2.292 0-4.15-1.866-4.15-4.168 0-2.301 1.858-4.168 4.15-4.168 2.292 0 4.15 1.867 4.15 4.168 0 2.302-1.858 4.168-4.15 4.168zm0-6.158a2 2 0 0 0-1.983 1.99 2 2 0 0 0 1.983 1.99 2 2 0 0 0 1.982-1.99 2 2 0 0 0-1.982-1.99z"/>
        </g>
    </g>
</svg>
