<svg xmlns="http://www.w3.org/2000/svg" xmlns:xlink="http://www.w3.org/1999/xlink" width="202" height="188" viewBox="0 0 202 188">
    <defs>
        <path id="a" d="M93.487 187.478c17.577-3.57 48.734 4.12 65.27-32.696 8.623-19.197 27.283-38.45 27.283-61.043 0-24.714-7.664-45.833-27.282-57.782C137.49 23.004 120.202 0 93.488 0 66.712 0 48.455 22.26 30.088 32.77 10.604 43.92 6.274 72.548.935 93.74c-5.866 23.287 17.147 44.254 33.293 68.498 11.967 17.969 44.392 28.26 59.26 25.24z"/>
    </defs>
    <g fill="none" fill-rule="evenodd">
        <g transform="translate(7)">
            <mask id="b" fill="#fff">
                <use xlink:href="#a"/>
            </mask>
            <use fill="#A5D5FA" xlink:href="#a"/>
            <g fill="#41A1FA" mask="url(#b)">
                <path d="M-7.14-4.82h209v205h-209z"/>
            </g>
        </g>
        <g fill="#FFF" fill-rule="nonzero">
            <path d="M145.87 181.881h-.268c-30.39-.09-55.237-25.036-55.327-55.456-.089-14.806 5.72-28.805 16.268-39.394 10.547-10.589 24.49-16.421 39.327-16.421h.09c30.389 0 55.237 24.946 55.237 55.456 0 14.986-5.81 29.074-16.357 39.663-10.547 10.32-24.312 16.152-38.97 16.152zm0-105.08c-13.139 0-25.563 5.205-34.948 14.627-9.295 9.422-14.48 21.806-14.39 34.997.09 27.01 22.077 49.085 49.07 49.265 13.05 0 25.384-5.115 34.769-14.448 9.385-9.422 14.569-21.895 14.569-35.176-.09-27.19-22.077-49.265-49.07-49.265zm-19.306 80.852H112.71c-1.698 0-3.128-1.436-3.128-3.14v-28.447c0-1.705 1.43-3.14 3.128-3.14h13.854c1.698 0 3.128 1.435 3.128 3.14v28.446c0 1.705-1.43 3.14-3.128 3.14zm-10.815-6.282h7.597v-22.164h-7.597v22.164zm35.305 6.013h-14.122c-1.698 0-3.128-1.436-3.128-3.141v-38.855c0-1.705 1.43-3.141 3.128-3.141h14.122c1.698 0 3.128 1.436 3.128 3.14v38.856c0 1.795-1.43 3.14-3.128 3.14zm-10.994-6.282h7.866v-32.574h-7.866v32.574zm34.59 6.192h-15.015c-1.699 0-3.129-1.436-3.129-3.14v-11.577c0-12.742.09-27.28-.178-38.317 0-.807.268-1.615.893-2.243.626-.628 1.43-.897 2.235-.897h15.105c.805 0 1.609.359 2.235.987.625.628.894 1.435.894 2.243-.18 9.512-.18 22.703-.09 34.279 0 5.564.09 10.948.09 15.614.089 1.615-1.341 3.051-3.04 3.051zm-11.887-6.282h8.67c0-3.858 0-8.076-.09-12.473-.089-10.41-.089-22.075 0-31.228h-8.759c.179 10.679.09 23.69.09 35.266.089 2.872.089 5.743.089 8.435zM142.598 69.909h-.447c-1.698-.27-2.95-1.795-2.681-3.5.626-4.846.715-9.512.179-13.82-.18-1.704 1.072-3.32 2.77-3.499 1.699-.18 3.308 1.077 3.486 2.782a63.938 63.938 0 0 1-.178 15.434c-.269 1.436-1.61 2.603-3.129 2.603z"/>
            <path d="M48.338 156.397c-13.139 0-24.758-4.308-33.16-12.833-22.256-22.613-14.033-66.314 18.68-99.516 19.575-19.832 44.423-31.677 66.41-31.767h.09c13.496 0 25.026 4.398 33.339 12.833a39.743 39.743 0 0 1 6.614 8.794c.804 1.525.357 3.41-1.162 4.307-1.52.897-3.396.359-4.29-1.167a34.712 34.712 0 0 0-5.631-7.448c-7.15-7.178-17.072-10.947-28.87-10.947h-.09c-20.378 0-43.528 11.217-61.94 29.882C23.58 63.43 13.658 81.109 10.262 98.338c-3.307 16.78 0 31.317 9.385 40.83 13.854 14.088 37.987 14.716 63.014 1.704 1.519-.807 3.396-.18 4.2 1.346.805 1.526.18 3.41-1.34 4.218-12.871 6.55-25.653 9.96-37.183 9.96z"/>
            <path d="M130.393 71.793c-1.073 0-2.145-.539-2.681-1.616-4.916-8.614-13.944-20.37-21.541-27.997C79.535 15.528 44.766 5.12 23.494 17.503c-1.52.897-3.397.359-4.29-1.167-.894-1.525-.358-3.41 1.162-4.307 11.53-6.73 26.992-7.897 43.439-3.14 16.267 4.665 32.892 14.895 46.835 28.804 8.044 8.076 17.34 20.1 22.613 29.254.894 1.525.358 3.41-1.162 4.307-.625.36-1.162.539-1.698.539zM84.025 148.046c-.179 0-.358 0-.536-.09-17.519-3.14-33.876-12.742-51.483-30.24C3.672 89.538-7.411 52.746 5.102 28.338c.804-1.526 2.681-2.154 4.2-1.346 1.52.808 2.146 2.692 1.342 4.217-11.084 21.627-.269 56.175 25.741 82.019 16.625 16.6 31.998 25.664 48.176 28.536 1.699.269 2.86 1.974 2.503 3.679-.268 1.525-1.52 2.602-3.039 2.602z"/>
            <path d="M14.658 33.639c-6.614 0-11.977-5.385-11.977-12.025 0-6.64 5.363-12.025 11.977-12.025 6.615 0 11.977 5.385 11.977 12.025 0 6.64-5.362 12.025-11.977 12.025zm0-17.768c-3.128 0-5.72 2.602-5.72 5.743 0 3.14 2.592 5.743 5.72 5.743 3.129 0 5.72-2.602 5.72-5.743 0-3.14-2.591-5.743-5.72-5.743zM142.473 55.175c-6.615 0-11.977-5.384-11.977-12.025 0-6.64 5.362-12.024 11.977-12.024 6.614 0 11.977 5.384 11.977 12.024 0 6.64-5.363 12.025-11.977 12.025zm0-17.768c-3.129 0-5.72 2.603-5.72 5.743 0 3.141 2.591 5.744 5.72 5.744 3.128 0 5.72-2.603 5.72-5.744 0-3.14-2.592-5.743-5.72-5.743z"/>
        </g>
    </g>
</svg>
